if (_typeface_js && _typeface_js.loadFace) _typeface_js.loadFace({"glyphs":{" ":{"ha":347,"x_min":0,"x_max":0,"o":""},"":{"ha":1290,"x_min":0,"x_max":0,"o":"m 1149 377 b 1185 241 1196 350 1212 288 l 1135 156 b 1000 119 1108 109 1047 92 l 794 238 l 794 0 b 694 -99 794 -54 749 -99 l 595 -99 b 496 0 541 -99 496 -54 l 496 238 l 290 119 b 154 156 243 92 181 109 l 105 241 b 141 377 78 288 94 350 l 347 496 l 141 615 b 105 751 94 643 78 704 l 154 836 b 290 873 181 884 243 900 l 496 754 l 496 992 b 595 1091 496 1046 541 1091 l 694 1091 b 794 992 749 1091 794 1046 l 794 754 l 1000 873 b 1135 836 1047 900 1108 884 l 1185 751 b 1149 615 1212 704 1196 643 l 942 496 l 1149 377 "},"":{"ha":1091,"x_min":0,"x_max":0,"o":"m 1091 471 b 1017 397 1091 430 1058 397 l 694 397 l 694 74 b 620 0 694 33 661 0 l 471 0 b 397 74 430 0 397 33 l 397 397 l 74 397 b 0 471 33 397 0 430 l 0 620 b 74 694 0 661 33 694 l 397 694 l 397 1017 b 471 1091 397 1058 430 1091 l 620 1091 b 694 1017 661 1091 694 1058 l 694 694 l 1017 694 b 1091 620 1058 694 1091 661 "},"":{"ha":794,"x_min":0,"x_max":0,"o":"m 546 31 b 515 0 546 14 532 0 l 329 0 b 298 31 312 0 298 14 l 298 217 b 329 248 298 234 312 248 l 515 248 b 546 217 532 248 546 234 m 791 682 b 617 437 791 535 691 478 b 543 335 571 411 543 357 l 543 335 b 512 298 543 318 529 298 l 326 298 b 298 341 308 298 298 324 l 298 376 b 459 581 298 470 391 550 b 543 684 519 608 543 634 b 424 766 543 727 487 766 b 340 743 389 766 357 755 b 257 654 322 730 303 711 b 233 642 251 646 242 642 b 214 648 226 642 220 644 l 87 745 b 79 786 74 755 71 772 b 439 992 163 925 281 992 b 791 682 605 992 791 860 "},"´":{"ha":1389,"x_min":0,"x_max":0,"o":""},"¨":{"ha":1389,"x_min":0,"x_max":0,"o":""},"Æ":{"ha":1389,"x_min":0,"x_max":0,"o":""},"Ø":{"ha":1389,"x_min":0,"x_max":0,"o":""},"™":{"ha":1389,"x_min":0,"x_max":0,"o":""},"®":{"ha":1389,"x_min":0,"x_max":0,"o":""},"":{"ha":1091,"x_min":0,"x_max":0,"o":"m 1091 471 b 1017 397 1091 430 1058 397 l 74 397 b 0 471 33 397 0 430 l 0 620 b 74 694 0 661 33 694 l 1017 694 b 1091 620 1058 694 1091 661 "},"©":{"ha":1389,"x_min":0,"x_max":0,"o":""},"":{"ha":1389,"x_min":0,"x_max":0,"o":"m 1317 1046 b 1283 986 1317 1024 1299 1001 l 794 496 l 794 -99 l 1042 -99 b 1091 -149 1069 -99 1091 -122 b 1042 -198 1091 -176 1069 -198 l 347 -198 b 298 -149 320 -198 298 -176 b 347 -99 298 -122 320 -99 l 595 -99 l 595 496 l 105 986 b 72 1046 90 1001 72 1024 b 149 1091 72 1084 120 1091 l 1240 1091 b 1317 1046 1269 1091 1317 1084 "},"":{"ha":1190,"x_min":0,"x_max":0,"o":"m 1190 149 b 942 0 1190 40 1027 0 b 694 149 858 0 694 40 b 942 298 694 258 858 298 b 1091 267 994 298 1045 288 l 1091 684 l 496 500 l 496 -50 b 248 -198 496 -159 332 -198 b 0 -50 164 -198 0 -159 b 248 99 0 60 164 99 b 397 69 299 99 350 90 l 397 818 b 450 890 397 851 419 880 l 1094 1088 b 1116 1091 1101 1090 1108 1091 b 1190 1017 1157 1091 1190 1058 "},"":{"ha":1290,"x_min":0,"x_max":0,"o":"m 893 546 b 546 893 893 737 737 893 b 198 546 354 893 198 737 b 546 198 198 354 354 198 b 893 546 737 198 893 354 m 1290 -99 b 1190 -198 1290 -153 1245 -198 b 1121 -169 1164 -198 1139 -188 l 855 96 b 546 0 764 33 656 0 b 0 546 244 0 0 244 b 546 1091 0 847 244 1091 b 1091 546 847 1091 1091 847 b 995 236 1091 436 1058 327 l 1261 -29 b 1290 -99 1279 -47 1290 -73 "},"":{"ha":1389,"x_min":0,"x_max":0,"o":"m 1290 25 l 1290 620 b 1236 569 1273 601 1256 584 b 906 307 1125 484 1014 397 b 695 198 848 258 776 198 l 694 198 l 694 198 b 483 307 613 198 541 258 b 153 569 375 397 264 484 b 99 620 133 584 115 601 l 99 25 b 124 0 99 12 111 0 l 1265 0 b 1290 25 1278 0 1290 12 m 1290 839 b 1265 893 1290 859 1294 893 l 124 893 b 99 868 111 893 99 881 b 213 648 99 780 143 703 b 524 402 317 567 421 484 b 694 298 565 369 639 298 l 694 298 l 695 298 b 865 402 749 298 824 369 b 1176 648 968 484 1072 567 b 1290 839 1226 687 1290 773 m 1389 25 b 1265 -99 1389 -43 1333 -99 l 124 -99 b 0 25 56 -99 0 -43 l 0 868 b 124 992 0 936 56 992 l 1265 992 b 1389 868 1333 992 1389 936 "},"":{"ha":1389,"x_min":0,"x_max":0,"o":"m 694 -99 b 660 -85 682 -99 670 -95 l 177 381 b 0 729 171 387 0 543 b 370 1091 0 956 139 1091 b 694 924 506 1091 633 984 b 1018 1091 756 984 883 1091 b 1389 729 1250 1091 1389 956 b 1211 380 1389 543 1218 387 l 729 -85 b 694 -99 719 -95 707 -99 "},"":{"ha":1290,"x_min":0,"x_max":0,"o":"m 1290 689 b 1270 652 1290 675 1280 662 l 988 377 l 1055 -10 b 1056 -26 1056 -16 1056 -20 b 1024 -64 1056 -46 1046 -64 b 993 -55 1013 -64 1002 -60 l 645 128 l 297 -55 b 266 -64 287 -60 277 -64 b 233 -26 243 -64 233 -46 b 235 -10 233 -20 234 -16 l 301 377 l 19 652 b 0 689 10 662 0 675 b 43 725 0 712 24 722 l 432 781 l 607 1134 b 645 1166 614 1149 627 1166 b 683 1134 663 1166 676 1149 l 857 781 l 1246 725 b 1290 689 1265 722 1290 712 "},"":{"ha":1290,"x_min":0,"x_max":0,"o":"m 1118 643 l 791 691 l 645 987 l 498 691 l 171 643 l 408 412 l 352 86 l 645 240 l 937 86 l 881 412 m 1290 689 b 1270 652 1290 675 1280 662 l 988 377 l 1055 -10 b 1056 -26 1056 -16 1056 -20 b 1024 -64 1056 -47 1046 -64 b 993 -55 1013 -64 1002 -60 l 645 128 l 297 -55 b 266 -64 287 -60 277 -64 b 233 -26 243 -64 233 -46 b 235 -10 233 -20 234 -16 l 301 377 l 19 652 b 0 689 10 662 0 675 b 43 725 0 712 24 722 l 432 781 l 607 1134 b 645 1166 614 1149 627 1166 b 683 1134 663 1166 676 1149 l 857 781 l 1246 725 b 1290 689 1265 722 1290 712 "},"":{"ha":1091,"x_min":0,"x_max":0,"o":"m 1091 102 b 884 -99 1091 -24 1008 -99 l 207 -99 b 0 102 84 -99 0 -24 b 268 546 0 277 41 546 b 546 438 292 546 394 438 b 823 546 698 438 799 546 b 1091 102 1050 546 1091 277 m 843 794 b 546 496 843 629 710 496 b 248 794 381 496 248 629 b 546 1091 248 958 381 1091 b 843 794 710 1091 843 958 "},"":{"ha":1488,"x_min":0,"x_max":0,"o":"m 298 -50 l 298 50 b 248 99 298 77 275 99 l 149 99 b 99 50 122 99 99 77 l 99 -50 b 149 -99 99 -77 122 -99 l 248 -99 b 298 -50 275 -99 298 -77 m 298 248 l 298 347 b 248 397 298 374 275 397 l 149 397 b 99 347 122 397 99 374 l 99 248 b 149 198 99 221 122 198 l 248 198 b 298 248 275 198 298 221 m 298 546 l 298 645 b 248 694 298 672 275 694 l 149 694 b 99 645 122 694 99 672 l 99 546 b 149 496 99 519 122 496 l 248 496 b 298 546 275 496 298 519 m 1091 -50 l 1091 347 b 1042 397 1091 374 1069 397 l 446 397 b 397 347 419 397 397 374 l 397 -50 b 446 -99 397 -77 419 -99 l 1042 -99 b 1091 -50 1069 -99 1091 -77 m 298 843 l 298 942 b 248 992 298 970 275 992 l 149 992 b 99 942 122 992 99 970 l 99 843 b 149 794 99 816 122 794 l 248 794 b 298 843 275 794 298 816 m 1389 -50 l 1389 50 b 1339 99 1389 77 1366 99 l 1240 99 b 1190 50 1213 99 1190 77 l 1190 -50 b 1240 -99 1190 -77 1213 -99 l 1339 -99 b 1389 -50 1366 -99 1389 -77 m 1091 546 l 1091 942 b 1042 992 1091 970 1069 992 l 446 992 b 397 942 419 992 397 970 l 397 546 b 446 496 397 519 419 496 l 1042 496 b 1091 546 1069 496 1091 519 m 1389 248 l 1389 347 b 1339 397 1389 374 1366 397 l 1240 397 b 1190 347 1213 397 1190 374 l 1190 248 b 1240 198 1190 221 1213 198 l 1339 198 b 1389 248 1366 198 1389 221 m 1389 546 l 1389 645 b 1339 694 1389 672 1366 694 l 1240 694 b 1190 645 1213 694 1190 672 l 1190 546 b 1240 496 1190 519 1213 496 l 1339 496 b 1389 546 1366 496 1389 519 m 1389 843 l 1389 942 b 1339 992 1389 970 1366 992 l 1240 992 b 1190 942 1213 992 1190 970 l 1190 843 b 1240 794 1190 816 1213 794 l 1339 794 b 1389 843 1366 794 1389 816 m 1488 -74 b 1364 -198 1488 -143 1432 -198 l 124 -198 b 0 -74 56 -198 0 -143 l 0 967 b 124 1091 0 1035 56 1091 l 1364 1091 b 1488 967 1432 1091 1488 1035 "},"":{"ha":1290,"x_min":0,"x_max":0,"o":"m 595 99 b 496 0 595 45 550 0 l 99 0 b 0 99 45 0 0 45 l 0 397 b 99 496 0 451 45 496 l 496 496 b 595 397 550 496 595 451 m 595 694 b 496 595 595 640 550 595 l 99 595 b 0 694 45 595 0 640 l 0 992 b 99 1091 0 1046 45 1091 l 496 1091 b 595 992 550 1091 595 1046 m 1290 99 b 1190 0 1290 45 1245 0 l 794 0 b 694 99 739 0 694 45 l 694 397 b 794 496 694 451 739 496 l 1190 496 b 1290 397 1245 496 1290 451 m 1290 694 b 1190 595 1290 640 1245 595 l 794 595 b 694 694 739 595 694 640 l 694 992 b 794 1091 694 1046 739 1091 l 1190 1091 b 1290 992 1245 1091 1290 1046 "},"":{"ha":1389,"x_min":0,"x_max":0,"o":"m 397 74 b 322 0 397 33 363 0 l 74 0 b 0 74 33 0 0 33 l 0 223 b 74 298 0 264 33 298 l 322 298 b 397 223 363 298 397 264 m 397 471 b 322 397 397 430 363 397 l 74 397 b 0 471 33 397 0 430 l 0 620 b 74 694 0 661 33 694 l 322 694 b 397 620 363 694 397 661 m 893 74 b 818 0 893 33 860 0 l 570 0 b 496 74 529 0 496 33 l 496 223 b 570 298 496 264 529 298 l 818 298 b 893 223 860 298 893 264 m 397 868 b 322 794 397 827 363 794 l 74 794 b 0 868 33 794 0 827 l 0 1017 b 74 1091 0 1058 33 1091 l 322 1091 b 397 1017 363 1091 397 1058 m 893 471 b 818 397 893 430 860 397 l 570 397 b 496 471 529 397 496 430 l 496 620 b 570 694 496 661 529 694 l 818 694 b 893 620 860 694 893 661 m 1389 74 b 1314 0 1389 33 1356 0 l 1066 0 b 992 74 1025 0 992 33 l 992 223 b 1066 298 992 264 1025 298 l 1314 298 b 1389 223 1356 298 1389 264 m 893 868 b 818 794 893 827 860 794 l 570 794 b 496 868 529 794 496 827 l 496 1017 b 570 1091 496 1058 529 1091 l 818 1091 b 893 1017 860 1091 893 1058 m 1389 471 b 1314 397 1389 430 1356 397 l 1066 397 b 992 471 1025 397 992 430 l 992 620 b 1066 694 992 661 1025 694 l 1314 694 b 1389 620 1356 694 1389 661 m 1389 868 b 1314 794 1389 827 1356 794 l 1066 794 b 992 868 1025 794 992 827 l 992 1017 b 1066 1091 992 1058 1025 1091 l 1314 1091 b 1389 1017 1356 1091 1389 1058 "},"":{"ha":1389,"x_min":0,"x_max":0,"o":"m 397 74 b 322 0 397 33 363 0 l 74 0 b 0 74 33 0 0 33 l 0 223 b 74 298 0 264 33 298 l 322 298 b 397 223 363 298 397 264 m 397 471 b 322 397 397 430 363 397 l 74 397 b 0 471 33 397 0 430 l 0 620 b 74 694 0 661 33 694 l 322 694 b 397 620 363 694 397 661 m 1389 74 b 1314 0 1389 33 1356 0 l 570 0 b 496 74 529 0 496 33 l 496 223 b 570 298 496 264 529 298 l 1314 298 b 1389 223 1356 298 1389 264 m 397 868 b 322 794 397 827 363 794 l 74 794 b 0 868 33 794 0 827 l 0 1017 b 74 1091 0 1058 33 1091 l 322 1091 b 397 1017 363 1091 397 1058 m 1389 471 b 1314 397 1389 430 1356 397 l 570 397 b 496 471 529 397 496 430 l 496 620 b 570 694 496 661 529 694 l 1314 694 b 1389 620 1356 694 1389 661 m 1389 868 b 1314 794 1389 827 1356 794 l 570 794 b 496 868 529 794 496 827 l 496 1017 b 570 1091 496 1058 529 1091 l 1314 1091 b 1389 1017 1356 1091 1389 1058 "},"":{"ha":1389,"x_min":0,"x_max":0,"o":"m 1295 752 b 1273 699 1295 732 1287 713 l 712 138 l 607 33 b 554 11 593 19 574 11 b 501 33 535 11 515 19 l 396 138 l 115 419 b 94 471 102 432 94 452 b 115 524 94 491 102 510 l 221 629 b 274 651 235 643 254 651 b 326 629 293 651 312 643 l 554 401 l 1063 910 b 1115 932 1077 924 1096 932 b 1168 910 1135 932 1154 924 l 1273 805 b 1295 752 1287 791 1295 771 "},"":{"ha":1091,"x_min":0,"x_max":0,"o":"m 1006 166 b 984 113 1006 146 998 127 l 879 8 b 826 -14 865 -6 846 -14 b 773 8 807 -14 787 -6 l 546 236 l 318 8 b 265 -14 304 -6 284 -14 b 212 8 246 -14 226 -6 l 107 113 b 85 166 93 127 85 146 b 107 219 85 185 93 205 l 335 446 l 107 674 b 85 727 93 688 85 708 b 107 780 85 746 93 766 l 212 885 b 265 907 226 899 246 907 b 318 885 284 907 304 899 l 546 657 l 773 885 b 826 907 787 899 807 907 b 879 885 846 907 865 899 l 984 780 b 1006 727 998 766 1006 746 b 984 674 1006 708 998 688 l 756 446 l 984 219 b 1006 166 998 205 1006 185 "},"":{"ha":1290,"x_min":0,"x_max":0,"o":"m 794 521 b 769 496 794 508 782 496 l 595 496 l 595 322 b 570 298 595 309 584 298 l 521 298 b 496 322 508 298 496 309 l 496 496 l 322 496 b 298 521 309 496 298 508 l 298 570 b 322 595 298 584 309 595 l 496 595 l 496 769 b 521 794 496 782 508 794 l 570 794 b 595 769 584 794 595 782 l 595 595 l 769 595 b 794 570 782 595 794 584 m 893 546 b 546 893 893 737 737 893 b 198 546 354 893 198 737 b 546 198 198 354 354 198 b 893 546 737 198 893 354 m 1290 -99 b 1190 -198 1290 -154 1246 -198 b 1121 -169 1164 -198 1139 -188 l 855 96 b 546 0 764 33 656 0 b 0 546 244 0 0 244 b 546 1091 0 847 244 1091 b 1091 546 847 1091 1091 847 b 995 236 1091 436 1058 327 l 1261 -29 b 1290 -99 1279 -47 1290 -73 "},"":{"ha":1290,"x_min":0,"x_max":0,"o":"m 794 521 b 769 496 794 508 782 496 l 322 496 b 298 521 309 496 298 508 l 298 570 b 322 595 298 584 309 595 l 769 595 b 794 570 782 595 794 584 m 893 546 b 546 893 893 737 737 893 b 198 546 354 893 198 737 b 546 198 198 354 354 198 b 893 546 737 198 893 354 m 1290 -99 b 1190 -198 1290 -154 1246 -198 b 1121 -169 1164 -198 1139 -188 l 855 96 b 546 0 764 33 656 0 b 0 546 244 0 0 244 b 546 1091 0 847 244 1091 b 1091 546 847 1091 1091 847 b 995 236 1091 436 1058 327 l 1261 -29 b 1290 -99 1279 -47 1290 -73 "},"":{"ha":1190,"x_min":0,"x_max":0,"o":"m 1190 496 b 595 -99 1190 168 923 -99 b 0 496 267 -99 0 168 b 238 971 0 684 87 858 b 377 952 282 1004 344 996 b 357 813 410 908 401 846 b 198 496 257 737 198 622 b 595 99 198 277 377 99 b 992 496 814 99 992 277 b 833 813 992 622 934 737 b 814 952 790 846 780 908 b 953 971 846 996 909 1004 b 1190 496 1104 858 1190 684 m 694 595 b 595 496 694 541 649 496 b 496 595 541 496 496 541 l 496 1091 b 595 1190 496 1146 541 1190 b 694 1091 649 1190 694 1146 "},"":{"ha":1389,"x_min":0,"x_max":0,"o":"m 198 -74 b 174 -99 198 -88 188 -99 l 25 -99 b 0 -74 11 -99 0 -88 l 0 74 b 25 99 0 88 11 99 l 174 99 b 198 74 188 99 198 88 m 496 -74 b 471 -99 496 -88 485 -99 l 322 -99 b 298 -74 308 -99 298 -88 l 298 174 b 322 198 298 188 308 198 l 471 198 b 496 174 485 198 496 188 m 794 -74 b 769 -99 794 -88 783 -99 l 620 -99 b 595 -74 606 -99 595 -88 l 595 372 b 620 397 595 386 606 397 l 769 397 b 794 372 783 397 794 386 m 1091 -74 b 1066 -99 1091 -88 1080 -99 l 918 -99 b 893 -74 904 -99 893 -88 l 893 670 b 918 694 893 684 904 694 l 1066 694 b 1091 670 1080 694 1091 684 m 1389 -74 b 1364 -99 1389 -88 1378 -99 l 1215 -99 b 1190 -74 1201 -99 1190 -88 l 1190 1066 b 1215 1091 1190 1080 1201 1091 l 1364 1091 b 1389 1066 1378 1091 1389 1080 "},"":{"ha":1190,"x_min":0,"x_max":0,"o":"m 794 496 b 595 694 794 605 705 694 b 397 496 486 694 397 605 b 595 298 397 387 486 298 b 794 496 705 298 794 387 m 1190 408 b 1169 381 1190 397 1181 383 l 1025 359 b 995 288 1017 334 1008 311 b 1078 181 1022 250 1049 216 b 1086 162 1083 176 1086 169 b 1079 144 1086 155 1084 150 b 929 5 1060 119 956 5 b 909 12 922 5 915 9 l 802 96 b 732 67 780 84 756 74 b 709 -78 726 19 722 -31 b 681 -99 706 -90 695 -99 l 509 -99 b 481 -76 495 -99 483 -89 l 460 67 b 390 95 436 74 412 84 l 281 12 b 261 5 275 8 268 5 b 242 14 254 5 247 9 b 114 144 201 51 146 99 b 109 162 110 150 109 156 b 115 180 109 169 111 174 b 196 286 141 215 170 250 b 164 363 183 311 172 336 l 22 384 b 0 412 9 386 0 398 l 0 584 b 21 612 0 595 9 609 l 165 633 b 195 705 173 658 183 681 b 112 811 169 742 141 777 b 105 830 108 817 105 823 b 112 848 105 837 108 842 b 261 987 130 873 235 987 b 281 979 268 987 275 984 l 388 896 b 459 925 411 908 435 918 b 481 1070 464 973 469 1023 b 509 1091 484 1082 495 1091 l 681 1091 b 709 1068 695 1091 708 1081 l 731 925 b 801 897 755 918 778 908 l 911 980 b 929 987 915 984 922 987 b 949 979 936 987 943 984 b 1077 847 990 941 1044 893 b 1082 830 1080 842 1082 836 b 1076 812 1082 823 1080 818 b 994 706 1049 777 1021 742 b 1026 630 1008 681 1018 656 l 1168 608 b 1190 581 1181 606 1190 594 "},"":{"ha":1091,"x_min":0,"x_max":0,"o":"m 397 174 b 372 149 397 160 386 149 l 322 149 b 298 174 308 149 298 160 l 298 620 b 322 645 298 634 308 645 l 372 645 b 397 620 386 645 397 634 m 595 174 b 570 149 595 160 584 149 l 521 149 b 496 174 507 149 496 160 l 496 620 b 521 645 496 634 507 645 l 570 645 b 595 620 584 645 595 634 m 794 174 b 769 149 794 160 783 149 l 719 149 b 694 174 705 149 694 160 l 694 620 b 719 645 694 634 705 645 l 769 645 b 794 620 783 645 794 634 m 893 59 l 893 794 l 198 794 l 198 59 b 223 0 198 22 219 0 l 868 0 b 893 59 872 0 893 22 m 719 893 l 682 984 b 669 992 680 987 673 991 l 423 992 b 410 984 419 991 412 987 l 372 893 m 1091 818 b 1066 794 1091 805 1080 794 l 992 794 l 992 59 b 868 -99 992 -26 936 -99 l 223 -99 b 99 56 155 -99 99 -29 l 99 794 l 25 794 b 0 818 11 794 0 805 l 0 868 b 25 893 0 882 11 893 l 264 893 l 319 1022 b 422 1091 334 1060 381 1091 l 670 1091 b 773 1022 711 1091 757 1060 l 827 893 l 1066 893 b 1091 868 1080 893 1091 882 "},"":{"ha":1290,"x_min":0,"x_max":0,"o":"m 1091 50 b 1042 0 1091 22 1069 0 l 744 0 l 744 298 l 546 298 l 546 0 l 248 0 b 198 50 221 0 198 22 l 198 422 b 199 426 198 423 199 425 l 645 794 l 1090 426 b 1091 422 1091 425 1091 423 m 1264 475 l 1216 418 b 1200 409 1212 413 1206 410 b 1197 409 1199 409 1198 409 b 1181 415 1191 409 1186 411 l 645 862 l 109 415 b 90 409 103 411 97 408 b 74 418 84 410 78 413 l 26 475 b 29 510 17 485 19 501 l 586 974 b 704 974 618 1001 671 1001 l 893 816 l 893 967 b 918 992 893 981 904 992 l 1066 992 b 1091 967 1080 992 1091 981 l 1091 651 l 1261 510 b 1264 475 1271 501 1273 485 "},"":{"ha":1190,"x_min":0,"x_max":0,"o":"m 1138 896 b 1190 769 1166 867 1190 810 l 1190 -124 b 1116 -198 1190 -165 1157 -198 l 74 -198 b 0 -124 33 -198 0 -165 l 0 1116 b 74 1190 0 1157 33 1190 l 769 1190 b 896 1138 810 1190 867 1166 l 1138 896 m 794 794 l 1085 794 b 1068 825 1080 807 1073 820 l 825 1068 b 794 1085 820 1073 807 1080 m 1091 694 l 769 694 b 694 769 728 694 694 728 l 694 1091 l 99 1091 l 99 -99 l 1091 -99 "},"":{"ha":1190,"x_min":0,"x_max":0,"o":"m 694 422 b 670 397 694 408 684 397 l 422 397 b 397 422 408 397 397 408 l 397 471 b 422 496 397 485 408 496 l 595 496 l 595 769 b 620 794 595 783 606 794 l 670 794 b 694 769 684 794 694 783 m 1017 496 b 595 918 1017 729 828 918 b 174 496 363 918 174 729 b 595 74 174 264 363 74 b 1017 496 828 74 1017 264 m 1190 496 b 595 -99 1190 167 924 -99 b 0 496 267 -99 0 167 b 595 1091 0 825 267 1091 b 1190 496 924 1091 1190 825 "},"":{"ha":1488,"x_min":0,"x_max":0,"o":"m 861 419 l 861 422 l 842 670 b 816 694 842 684 829 694 l 672 694 b 646 670 659 694 646 684 l 627 422 l 627 419 b 649 397 626 406 638 397 l 839 397 b 861 419 850 397 862 406 m 1449 57 b 1414 0 1449 34 1443 0 l 868 0 b 891 25 881 0 892 11 l 876 223 b 849 248 875 237 863 248 l 639 248 b 612 223 625 248 613 237 l 597 25 b 620 0 596 11 607 0 l 74 0 b 39 57 45 0 39 34 b 59 146 39 88 47 119 l 382 956 b 432 992 390 975 411 992 l 694 992 b 668 967 681 992 669 981 l 656 818 b 680 794 656 805 666 794 l 808 794 b 832 818 822 794 832 805 l 820 967 b 794 992 819 981 807 992 l 1056 992 b 1106 956 1077 992 1098 975 l 1429 146 b 1449 57 1441 119 1449 88 "},"":{"ha":1290,"x_min":0,"x_max":0,"o":"m 992 149 b 942 198 992 176 970 198 b 893 149 915 198 893 176 b 942 99 893 122 915 99 b 992 149 970 99 992 122 m 1190 149 b 1141 198 1190 176 1168 198 b 1091 149 1114 198 1091 176 b 1141 99 1091 122 1114 99 b 1190 149 1168 99 1190 122 m 1290 74 b 1215 0 1290 33 1256 0 l 74 0 b 0 74 33 0 0 33 l 0 322 b 74 397 0 363 33 397 l 435 397 l 539 291 b 645 248 568 264 605 248 b 750 291 684 248 722 264 l 856 397 l 1215 397 b 1290 322 1256 397 1290 363 m 1038 763 b 1027 709 1046 745 1042 723 l 680 362 b 645 347 670 352 657 347 b 610 362 632 347 619 352 l 263 709 b 252 763 248 723 244 745 b 298 794 260 781 277 794 l 496 794 l 496 1141 b 546 1190 496 1168 519 1190 l 744 1190 b 794 1141 771 1190 794 1168 l 794 794 l 992 794 b 1038 763 1012 794 1030 781 "},"":{"ha":1190,"x_min":0,"x_max":0,"o":"m 868 471 b 860 453 868 464 865 458 l 613 205 b 595 198 608 201 601 198 b 577 205 589 198 583 201 l 329 453 b 324 481 322 461 320 471 b 347 496 328 490 337 496 l 496 496 l 496 769 b 521 794 496 783 507 794 l 670 794 b 694 769 684 794 694 783 l 694 496 l 843 496 l 843 496 b 868 471 857 496 868 485 m 595 918 b 174 496 363 918 174 729 b 595 74 174 264 363 74 b 1017 496 828 74 1017 264 b 595 918 1017 729 828 918 m 1190 496 b 595 -99 1190 167 924 -99 b 0 496 267 -99 0 167 b 595 1091 0 825 267 1091 l 595 1091 b 1190 496 924 1091 1190 825 "},"":{"ha":1190,"x_min":0,"x_max":0,"o":"m 867 512 b 843 496 863 502 853 496 l 694 496 l 694 223 b 670 198 694 209 684 198 l 521 198 b 496 223 507 198 496 209 l 496 496 l 347 496 l 347 496 b 322 521 333 496 322 507 b 330 539 322 528 326 534 l 577 787 b 595 794 583 791 589 794 b 613 787 601 794 608 791 l 861 539 b 867 512 868 531 870 521 m 595 918 b 174 496 363 918 174 729 b 595 74 174 264 363 74 b 1017 496 828 74 1017 264 b 595 918 1017 729 828 918 m 1190 496 b 595 -99 1190 167 924 -99 b 0 496 267 -99 0 167 b 595 1091 0 825 267 1091 l 595 1091 b 1190 496 924 1091 1190 825 "},"":{"ha":1190,"x_min":0,"x_max":0,"o":"m 1038 446 b 1034 459 1036 450 1035 455 l 870 843 l 321 843 l 157 459 b 153 446 155 455 154 450 l 398 446 l 471 298 l 719 298 l 793 446 m 1190 50 b 1141 0 1190 22 1168 0 l 50 0 b 0 50 22 0 0 22 l 0 423 b 19 519 0 451 9 492 l 204 946 b 273 992 215 972 246 992 l 918 992 b 987 946 945 992 976 972 l 1171 519 b 1190 423 1182 492 1190 451 "},"":{"ha":1190,"x_min":0,"x_max":0,"o":"m 918 496 b 893 453 918 478 908 462 l 471 205 b 446 198 463 201 455 198 b 422 205 438 198 429 201 b 397 248 406 214 397 230 l 397 744 b 422 787 397 762 406 778 b 471 787 437 796 457 796 l 893 539 b 918 496 908 530 918 514 m 1017 496 b 595 918 1017 729 828 918 b 174 496 363 918 174 729 b 595 74 174 264 363 74 b 1017 496 828 74 1017 264 m 1190 496 b 595 -99 1190 167 924 -99 b 0 496 267 -99 0 167 b 595 1091 0 825 267 1091 b 1190 496 924 1091 1190 825 "},"":{"ha":1190,"x_min":0,"x_max":0,"o":"m 1190 645 b 1141 595 1190 618 1168 595 l 794 595 b 748 626 773 595 756 608 b 759 680 740 644 744 666 l 866 787 b 595 893 793 854 697 893 b 198 496 377 893 198 715 b 595 99 198 277 377 99 b 908 253 718 99 832 155 b 926 263 912 259 919 262 b 946 256 933 263 940 260 l 1052 149 b 1053 115 1061 140 1061 126 b 595 -99 940 -21 773 -99 b 0 496 267 -99 0 168 b 595 1091 0 824 267 1091 b 1005 927 748 1091 896 1030 l 1106 1027 b 1160 1038 1120 1042 1142 1046 b 1190 992 1178 1030 1190 1012 "},"":{"ha":1190,"x_min":0,"x_max":0,"o":"m 1171 372 b 1170 367 1171 370 1171 368 b 592 -99 1104 92 878 -99 b 184 65 441 -99 295 -40 l 84 -35 b 50 -50 75 -44 63 -50 b 0 0 22 -50 0 -27 l 0 347 b 50 397 0 374 22 397 l 397 397 b 446 347 424 397 446 374 b 432 312 446 334 441 322 l 326 206 b 595 99 398 138 495 99 b 933 288 733 99 861 171 b 974 379 952 319 961 348 b 997 397 978 390 986 397 l 1146 397 b 1171 372 1160 397 1171 385 m 1190 645 b 1141 595 1190 618 1168 595 l 794 595 b 744 645 767 595 744 618 b 759 680 744 658 749 670 l 866 787 b 595 893 792 855 695 893 b 257 704 457 893 329 822 b 216 613 239 674 229 644 b 193 595 212 602 205 595 l 39 595 b 14 620 25 595 14 607 b 14 625 14 622 14 624 b 595 1091 81 901 309 1091 b 1005 927 747 1091 895 1031 l 1106 1027 b 1141 1042 1115 1036 1128 1042 b 1190 992 1168 1042 1190 1019 "},"":{"ha":1389,"x_min":0,"x_max":0,"o":"m 298 223 b 273 198 298 210 286 198 l 223 198 b 198 223 210 198 198 210 l 198 273 b 223 298 198 286 210 298 l 273 298 b 298 273 286 298 298 286 m 298 422 b 273 397 298 408 286 397 l 223 397 b 198 422 210 397 198 408 l 198 471 b 223 496 198 484 210 496 l 273 496 b 298 471 286 496 298 484 m 298 620 b 273 595 298 607 286 595 l 223 595 b 198 620 210 595 198 607 l 198 670 b 223 694 198 683 210 694 l 273 694 b 298 670 286 694 298 683 m 1190 223 b 1166 198 1190 210 1179 198 l 422 198 b 397 223 408 198 397 210 l 397 273 b 422 298 397 286 408 298 l 1166 298 b 1190 273 1179 298 1190 286 m 1190 422 b 1166 397 1190 408 1179 397 l 422 397 b 397 422 408 397 397 408 l 397 471 b 422 496 397 484 408 496 l 1166 496 b 1190 471 1179 496 1190 484 m 1190 620 b 1166 595 1190 607 1179 595 l 422 595 b 397 620 408 595 397 607 l 397 670 b 422 694 397 683 408 694 l 1166 694 b 1190 670 1179 694 1190 683 m 1290 124 l 1290 769 b 1265 794 1290 782 1278 794 l 124 794 b 99 769 111 794 99 782 l 99 124 b 124 99 99 111 111 99 l 1265 99 b 1290 124 1278 99 1290 111 m 1389 124 b 1265 0 1389 56 1333 0 l 124 0 b 0 124 56 0 0 56 l 0 967 b 124 1091 0 1035 56 1091 l 1265 1091 b 1389 967 1333 1091 1389 1035 "},"":{"ha":893,"x_min":0,"x_max":0,"o":"m 645 595 l 645 744 b 446 942 645 853 556 942 b 248 744 337 942 248 853 l 248 595 m 893 74 b 818 0 893 33 860 0 l 74 0 b 0 74 33 0 0 33 l 0 521 b 74 595 0 562 33 595 l 99 595 l 99 744 b 446 1091 99 935 256 1091 b 794 744 637 1091 794 935 l 794 595 l 818 595 b 893 521 860 595 893 562 "},"":{"ha":1389,"x_min":0,"x_max":0,"o":"m 248 992 b 198 907 248 956 229 925 l 198 -74 b 174 -99 198 -88 187 -99 l 124 -99 b 99 -74 111 -99 99 -88 l 99 907 b 50 992 69 925 50 956 b 149 1091 50 1047 94 1091 b 248 992 204 1091 248 1047 m 1389 351 b 1349 300 1389 322 1371 312 b 1063 210 1261 253 1164 210 b 683 319 920 210 852 319 b 323 205 560 319 430 263 b 298 198 315 201 307 198 b 248 248 270 198 248 221 l 248 823 b 272 866 248 842 257 855 b 333 899 291 878 313 889 b 660 992 431 949 550 992 b 984 901 781 992 877 952 b 1053 887 1006 891 1028 887 b 1339 992 1174 887 1305 992 b 1389 942 1366 992 1389 970 "},"":{"ha":1290,"x_min":0,"x_max":0,"o":"m 1290 504 b 1243 260 1290 419 1274 337 l 1228 222 l 1084 197 b 893 50 1062 112 985 50 l 893 25 b 868 0 893 11 882 0 l 818 0 b 794 25 805 0 794 11 l 794 471 b 818 496 794 485 805 496 l 868 496 b 893 471 882 496 893 485 l 893 446 b 1066 345 967 446 1032 405 l 1118 354 b 1141 504 1133 402 1141 452 b 645 942 1141 738 909 942 b 149 504 381 942 149 738 b 171 354 149 452 157 402 l 224 345 b 397 446 258 405 322 446 l 397 471 b 422 496 397 485 408 496 l 471 496 b 496 471 485 496 496 485 l 496 25 b 471 0 496 11 485 0 l 422 0 b 397 25 408 0 397 11 l 397 50 b 205 197 305 50 228 112 l 62 222 l 47 260 b 0 504 16 337 0 419 b 645 1091 0 822 295 1091 b 1290 504 994 1091 1290 822 "},"":{"ha":595,"x_min":0,"x_max":0,"o":"m 595 74 b 546 25 595 47 573 25 b 511 40 532 25 520 30 l 253 298 l 50 298 b 0 347 22 298 0 320 l 0 645 b 50 694 0 672 22 694 l 253 694 l 511 953 b 546 967 520 962 532 967 b 595 918 573 967 595 945 "},"":{"ha":893,"x_min":0,"x_max":0,"o":"m 595 74 b 546 25 595 47 573 25 b 511 40 532 25 520 30 l 253 298 l 50 298 b 0 347 22 298 0 320 l 0 645 b 50 694 0 672 22 694 l 253 694 l 511 953 b 546 967 520 962 532 967 b 595 918 573 967 595 945 m 893 496 b 773 314 893 419 846 343 b 753 310 767 311 760 310 b 704 360 726 310 704 332 b 794 496 704 419 794 402 b 704 632 794 590 704 574 b 753 682 704 660 726 682 b 773 678 760 682 767 681 b 893 496 846 649 893 574 "},"":{"ha":1290,"x_min":0,"x_max":0,"o":"m 595 74 b 546 25 595 47 573 25 b 511 40 532 25 520 30 l 253 298 l 50 298 b 0 347 22 298 0 320 l 0 645 b 50 694 0 672 22 694 l 253 694 l 511 953 b 546 967 520 962 532 967 b 595 918 573 967 595 945 m 893 496 b 773 314 893 419 846 343 b 753 310 767 311 760 310 b 704 360 726 310 704 332 b 794 496 704 419 794 402 b 704 632 794 590 704 574 b 753 682 704 660 726 682 b 773 678 760 682 767 681 b 893 496 846 649 893 574 m 1091 496 b 851 131 1091 339 997 192 b 832 127 845 129 838 127 b 781 177 804 127 781 150 b 811 222 781 198 794 213 b 870 257 832 233 852 243 b 992 496 947 312 992 401 b 870 736 992 591 947 680 b 811 770 852 749 832 759 b 781 815 794 779 781 794 b 831 865 781 842 804 865 b 851 861 838 865 845 863 b 1091 496 997 800 1091 653 m 1290 496 b 929 -51 1290 258 1148 43 b 909 -55 923 -53 916 -55 b 860 -5 882 -55 860 -33 b 890 40 860 17 871 29 b 925 57 901 47 913 50 b 988 96 946 68 968 81 b 1190 496 1115 190 1190 338 b 988 896 1190 654 1115 802 b 925 935 968 911 946 924 b 890 952 913 942 901 946 b 860 997 871 963 860 975 b 909 1047 860 1025 882 1047 b 929 1043 916 1047 923 1046 b 1290 496 1148 949 1290 734 "},"":{"ha":1091,"x_min":0,"x_max":0,"o":"m 298 198 l 198 198 l 198 298 l 298 298 m 298 794 l 198 794 l 198 893 l 298 893 m 893 794 l 794 794 l 794 893 l 893 893 m 397 100 l 397 397 l 99 397 l 99 100 m 397 694 l 397 992 l 99 992 l 99 694 m 992 694 l 992 992 l 694 992 l 694 694 m 496 0 l 0 0 l 0 496 l 496 496 m 893 0 l 794 0 l 794 99 l 893 99 m 1091 0 l 992 0 l 992 99 l 1091 99 m 1091 198 l 794 198 l 794 298 l 694 298 l 694 0 l 595 0 l 595 496 l 893 496 l 893 397 l 992 397 l 992 496 l 1091 496 m 496 595 l 0 595 l 0 1091 l 496 1091 m 1091 595 l 595 595 l 595 1091 l 1091 1091 "},"":{"ha":1389,"x_min":0,"x_max":0,"o":"m 49 0 b 0 0 32 0 16 0 b 0 1091 0 363 0 728 b 49 1091 16 1091 33 1091 b 49 0 49 729 49 365 m 98 1 b 73 1 89 1 82 1 b 73 1091 73 364 73 728 b 98 1091 81 1091 89 1091 b 98 1 98 729 98 365 m 171 1 b 146 1 163 1 155 1 b 146 1091 146 364 146 728 b 171 1091 154 1091 163 1091 b 171 1 171 729 171 365 m 292 1 b 268 1 284 1 277 1 b 268 1091 268 364 268 728 b 292 1091 276 1091 284 1091 b 292 1 292 729 292 365 m 414 1 b 366 1 398 1 383 1 b 366 1091 366 364 366 728 b 414 1091 382 1091 398 1091 b 414 1 414 729 414 365 m 512 1 b 488 1 504 1 496 1 b 488 1091 488 364 488 728 b 512 1091 495 1091 504 1091 b 512 1 512 729 512 365 m 560 1 b 536 1 553 1 545 1 b 536 1091 536 364 536 728 b 560 1091 544 1091 553 1091 b 560 1 560 729 560 365 m 609 1 b 585 1 601 1 594 1 b 585 1091 585 364 585 728 b 609 1091 593 1091 601 1091 b 609 1 609 729 609 365 m 731 1 b 682 1 715 1 700 1 b 682 1091 682 364 682 728 b 731 1091 698 1091 715 1091 b 731 1 731 729 731 365 m 853 1 b 804 1 837 1 822 1 b 804 1091 804 364 804 728 b 853 1091 820 1091 836 1091 b 853 1 853 729 853 365 m 950 1 b 901 1 934 1 918 1 b 901 1091 901 364 901 728 b 950 1091 918 1091 934 1091 b 950 1 950 729 950 365 m 1048 1 b 999 1 1032 1 1016 1 b 999 1091 999 364 999 728 b 1048 1091 1015 1091 1032 1091 b 1048 1 1048 729 1048 365 m 1121 1 b 1072 1 1104 1 1090 1 b 1072 1091 1072 364 1072 728 b 1121 1091 1088 1091 1104 1091 b 1121 1 1121 729 1121 365 m 1267 1 b 1194 1 1243 1 1219 1 b 1194 1091 1194 364 1194 728 b 1267 1091 1218 1091 1242 1091 b 1267 1 1267 729 1267 365 m 1316 1 b 1291 1 1308 1 1301 1 b 1291 1091 1291 364 1291 728 b 1316 1091 1300 1091 1308 1091 b 1316 1 1316 729 1316 365 m 1389 0 b 1340 0 1373 0 1358 0 b 1340 1091 1340 364 1340 728 b 1389 1091 1356 1091 1373 1091 b 1389 0 1389 728 1389 363 "},"":{"ha":1190,"x_min":0,"x_max":0,"o":"m 347 843 b 248 942 347 898 303 942 b 149 843 193 942 149 898 b 248 744 149 788 193 744 b 347 843 303 744 347 788 m 1174 397 b 1146 327 1174 370 1163 345 l 765 -54 b 694 -83 746 -72 721 -83 b 625 -54 668 -83 643 -72 l 71 501 b 0 670 31 539 0 615 l 0 992 b 99 1091 0 1046 45 1091 l 422 1091 b 591 1021 477 1091 552 1060 l 1146 467 b 1174 397 1163 449 1174 423 "},"":{"ha":1488,"x_min":0,"x_max":0,"o":"m 347 843 b 248 942 347 898 303 942 b 149 843 193 942 149 898 b 248 744 149 788 193 744 b 347 843 303 744 347 788 m 1174 397 b 1146 327 1174 370 1163 345 l 765 -54 b 694 -83 746 -72 721 -83 b 625 -54 668 -83 643 -72 l 71 501 b 0 670 31 539 0 615 l 0 992 b 99 1091 0 1046 45 1091 l 422 1091 b 591 1021 477 1091 552 1060 l 1146 467 b 1174 397 1163 449 1174 423 m 1472 397 b 1443 327 1472 370 1461 345 l 1063 -54 b 992 -83 1044 -72 1018 -83 b 905 -37 952 -83 932 -64 l 1270 327 b 1298 397 1287 345 1298 370 b 1270 467 1298 423 1287 449 l 715 1021 b 546 1091 676 1060 601 1091 l 719 1091 b 889 1021 774 1091 849 1060 l 1443 467 b 1472 397 1461 449 1472 423 "},"":{"ha":1290,"x_min":0,"x_max":0,"o":"m 1270 820 b 1284 720 1290 792 1295 756 l 1071 18 b 917 -99 1052 -48 984 -99 l 202 -99 b 9 44 122 -99 38 -36 b 8 143 -3 79 -3 113 b 13 192 9 158 12 174 b 9 224 14 205 7 215 b 40 277 12 243 28 256 b 98 419 64 315 90 378 b 98 463 102 433 95 450 b 125 503 102 478 117 489 b 177 644 146 539 173 608 b 175 691 178 660 171 678 b 209 732 181 708 198 716 b 264 872 228 757 259 831 b 260 912 265 885 257 898 b 294 960 263 927 281 942 b 431 1087 326 1008 332 1115 l 430 1084 b 470 1091 443 1087 457 1091 l 1059 1091 b 1148 1048 1096 1091 1128 1075 b 1162 947 1168 1020 1173 984 l 949 245 b 794 99 913 126 893 99 l 121 99 b 91 88 111 99 98 97 b 91 54 85 78 84 71 b 202 0 106 9 160 0 l 918 0 b 988 44 946 0 980 16 l 1221 809 b 1225 853 1225 824 1225 839 b 1270 820 1242 846 1259 836 m 446 818 b 463 794 441 805 449 794 l 934 794 b 966 818 947 794 962 805 l 983 868 b 966 893 987 882 980 893 l 494 893 b 462 868 481 893 467 882 l 446 818 m 381 620 b 398 595 377 606 384 595 l 870 595 b 902 620 883 595 898 606 l 918 670 b 901 694 923 684 915 694 l 430 694 b 398 670 417 694 402 684 l 381 620 "},"":{"ha":992,"x_min":0,"x_max":0,"o":"m 902 1091 b 936 1084 914 1091 925 1089 b 992 1004 970 1071 992 1039 l 992 5 b 936 -74 992 -29 970 -61 b 902 -81 925 -79 914 -81 b 838 -56 878 -81 856 -72 l 496 273 l 154 -56 b 90 -81 136 -72 114 -81 b 56 -74 78 -81 67 -79 b 0 5 22 -61 0 -29 l 0 1004 b 56 1084 0 1039 22 1071 b 90 1091 67 1089 78 1091 b 902 1091 114 1091 878 1091 "},"":{"ha":1290,"x_min":0,"x_max":0,"o":"m 992 0 l 992 198 l 298 198 l 298 0 m 992 496 l 992 794 l 868 794 b 794 868 827 794 794 827 l 794 992 l 298 992 l 298 496 m 1190 446 b 1141 496 1190 474 1168 496 b 1091 446 1114 496 1091 474 b 1141 397 1091 419 1114 397 b 1190 446 1168 397 1190 419 m 1290 124 b 1265 99 1290 111 1278 99 l 1091 99 l 1091 -25 b 1017 -99 1091 -66 1058 -99 l 273 -99 b 198 -25 232 -99 198 -66 l 198 99 l 25 99 b 0 124 12 99 0 111 l 0 446 b 149 595 0 528 67 595 l 198 595 l 198 1017 b 273 1091 198 1058 232 1091 l 794 1091 b 921 1039 835 1091 891 1068 l 1039 921 b 1091 794 1068 891 1091 835 l 1091 595 l 1141 595 b 1290 446 1222 595 1290 528 "},"":{"ha":1488,"x_min":0,"x_max":0,"o":"m 744 670 b 967 446 867 670 967 570 b 744 223 967 323 867 223 b 521 446 621 223 521 323 b 744 670 521 570 621 670 m 1290 992 b 1488 794 1399 992 1488 903 l 1488 99 b 1290 -99 1488 -10 1399 -99 l 198 -99 b 0 99 89 -99 0 -10 l 0 794 b 198 992 0 903 89 992 l 372 992 l 412 1097 b 546 1190 431 1149 491 1190 l 942 1190 b 1077 1097 997 1190 1057 1149 l 1116 992 l 1290 992 m 744 99 b 1091 446 935 99 1091 255 b 744 794 1091 638 935 794 b 397 446 553 794 397 638 b 744 99 397 255 553 99 "},"":{"ha":1290,"x_min":0,"x_max":0,"o":"m 430 408 b 660 405 507 408 584 405 b 705 407 675 405 690 406 b 562 757 664 525 617 645 m 0 -99 l 2 -38 b 186 53 74 -16 153 -31 l 370 530 l 587 1091 l 645 1091 l 686 1091 b 694 1075 689 1086 692 1080 l 853 703 b 1024 291 911 566 965 427 b 1125 48 1059 210 1086 127 b 1152 4 1130 36 1141 12 b 1285 -35 1177 -16 1249 -21 b 1290 -79 1287 -50 1290 -64 b 1289 -99 1290 -86 1289 -92 b 994 -87 1190 -99 1092 -87 b 689 -98 892 -87 791 -95 b 692 -38 689 -78 690 -58 l 794 -16 b 856 22 815 -12 856 -6 b 743 312 856 50 756 281 l 395 314 b 296 36 374 269 296 66 b 454 -32 296 -23 410 -26 b 455 -77 455 -47 455 -61 b 453 -98 455 -84 454 -91 b 183 -82 363 -98 273 -82 b 146 -88 172 -82 157 -87 b 0 -99 97 -97 49 -99 "},"":{"ha":1091,"x_min":0,"x_max":0,"o":"m 430 12 b 539 -13 464 -3 501 -13 b 830 246 715 -13 830 57 b 798 386 830 295 824 345 b 498 508 726 502 622 508 b 419 501 474 508 441 508 b 419 255 419 419 419 336 b 430 12 419 202 412 57 m 419 590 b 504 584 447 585 476 584 b 777 808 663 584 777 629 b 514 1011 777 960 643 1011 b 413 1001 480 1011 446 1007 b 419 767 413 923 419 845 b 419 643 419 725 419 684 b 419 590 419 625 419 608 m 0 -99 l 2 -26 b 150 7 51 -14 102 -13 b 173 185 177 53 173 133 b 156 980 173 202 174 943 b 5 1011 144 1002 30 1008 l 2 1075 b 554 1091 186 1078 370 1091 b 660 1090 589 1091 625 1090 b 1028 805 835 1090 1028 1007 b 813 565 1028 667 922 615 b 1091 269 960 532 1091 432 b 622 -86 1091 2 849 -86 b 417 -81 553 -86 485 -81 b 0 -99 278 -81 138 -94 "},"":{"ha":794,"x_min":0,"x_max":0,"o":"m 0 -98 l 13 -32 b 163 14 63 -16 116 -10 b 195 92 181 36 189 65 b 371 967 205 145 374 905 l 371 987 b 230 1011 329 1010 277 1004 l 245 1091 b 547 1079 345 1087 446 1079 b 794 1091 629 1079 711 1087 b 779 1022 791 1068 785 1045 b 616 974 725 1004 669 995 b 587 842 599 932 595 887 b 460 242 550 642 501 441 b 417 18 452 205 414 50 l 418 4 b 561 -20 465 -7 513 -12 b 549 -97 560 -46 555 -71 b 498 -99 532 -97 515 -99 b 364 -84 454 -99 408 -84 b 205 -82 311 -83 257 -82 b 0 -98 136 -82 68 -94 "},"":{"ha":1389,"x_min":0,"x_max":0,"o":"m 1352 99 b 1376 50 1386 99 1397 78 l 1278 -75 b 1202 -75 1257 -102 1223 -102 l 1104 50 b 1128 99 1084 78 1094 99 l 1190 99 l 1190 893 l 1128 893 b 1104 942 1094 893 1084 915 l 1202 1067 b 1278 1067 1223 1094 1257 1094 l 1376 942 b 1352 893 1397 915 1386 893 l 1290 893 l 1290 99 l 1352 99 m 105 1070 b 268 1066 110 1067 252 1066 b 473 1069 336 1066 405 1069 b 639 1068 529 1069 584 1068 l 867 1068 b 936 1090 898 1068 915 1061 l 969 1091 b 991 1090 976 1091 984 1090 b 992 830 992 1004 992 917 b 988 746 992 803 993 773 b 935 732 971 739 953 734 b 894 831 918 763 905 797 b 868 953 888 846 870 951 b 810 969 852 973 834 969 b 596 963 739 969 666 972 b 590 858 592 929 589 893 b 593 205 591 640 593 422 b 601 25 593 145 584 82 b 790 -37 660 -5 729 -10 b 794 -76 791 -50 794 -63 b 791 -98 794 -83 793 -91 l 765 -99 b 436 -85 655 -102 546 -85 b 201 -99 357 -85 279 -99 b 198 -59 200 -86 198 -72 l 198 -52 b 383 25 228 -5 334 -4 b 398 322 400 63 398 273 b 393 791 398 478 393 635 l 393 882 b 387 963 393 896 396 952 b 261 972 376 974 274 972 b 127 942 233 972 150 959 b 43 759 90 917 90 762 b 0 793 29 767 10 780 l 0 1090 l 63 1090 "},"":{"ha":1190,"x_min":0,"x_max":0,"o":"m 105 1070 b 268 1066 110 1067 252 1066 b 473 1069 336 1066 405 1069 b 1091 1066 678 1069 886 1073 b 1135 1090 1108 1066 1125 1077 l 1167 1091 b 1189 1090 1174 1091 1182 1090 b 1190 830 1190 1004 1190 917 b 1187 746 1190 802 1191 773 b 1134 732 1170 739 1152 734 b 1092 831 1116 763 1104 797 b 1066 953 1087 846 1067 951 b 1046 967 1061 960 1054 964 b 994 969 1039 970 1002 969 b 695 963 899 969 789 974 b 689 858 691 929 688 893 l 690 740 l 690 780 b 692 403 691 654 692 529 b 700 223 692 343 683 281 b 889 161 759 193 829 188 b 893 122 891 149 893 136 b 891 100 893 115 892 108 l 864 99 b 535 113 754 96 646 113 b 300 99 457 113 378 99 b 298 140 299 112 298 126 l 298 146 b 482 223 327 194 433 195 b 496 701 501 267 496 633 b 492 736 496 712 492 724 b 486 963 492 767 498 949 b 360 972 475 974 374 972 b 127 942 328 972 146 955 b 43 759 91 918 90 763 b 0 793 29 767 10 780 l 0 1090 l 63 1090 m 1015 97 b 1166 -12 1042 97 1146 5 b 1187 -50 1178 -21 1187 -34 b 1166 -88 1187 -65 1178 -78 b 1015 -196 1146 -104 1042 -196 b 992 -99 980 -196 992 -113 l 198 -99 b 175 -196 198 -113 211 -196 b 24 -88 148 -196 45 -104 b 4 -50 12 -78 4 -65 b 24 -12 4 -34 12 -21 b 175 97 45 5 148 97 b 198 0 211 97 198 14 l 992 0 b 1015 97 992 14 980 97 "},"":{"ha":1389,"x_min":0,"x_max":0,"o":"m 1389 50 b 1339 0 1389 22 1366 0 l 50 0 b 0 50 22 0 0 22 l 0 149 b 50 198 0 176 22 198 l 1339 198 b 1389 149 1366 198 1389 176 m 1091 347 b 1042 298 1091 320 1069 298 l 50 298 b 0 347 22 298 0 320 l 0 446 b 50 496 0 474 22 496 l 1042 496 b 1091 446 1069 496 1091 474 m 1290 645 b 1240 595 1290 618 1267 595 l 50 595 b 0 645 22 595 0 618 l 0 744 b 50 794 0 771 22 794 l 1240 794 b 1290 744 1267 794 1290 771 m 992 942 b 942 893 992 915 970 893 l 50 893 b 0 942 22 893 0 915 l 0 1042 b 50 1091 0 1069 22 1091 l 942 1091 b 992 1042 970 1091 992 1069 "},"":{"ha":1389,"x_min":0,"x_max":0,"o":"m 1389 50 b 1339 0 1389 22 1366 0 l 50 0 b 0 50 22 0 0 22 l 0 149 b 50 198 0 176 22 198 l 1339 198 b 1389 149 1366 198 1389 176 m 1091 347 b 1042 298 1091 320 1069 298 l 347 298 b 298 347 320 298 298 320 l 298 446 b 347 496 298 474 320 496 l 1042 496 b 1091 446 1069 496 1091 474 m 1290 645 b 1240 595 1290 618 1267 595 l 149 595 b 99 645 122 595 99 618 l 99 744 b 149 794 99 771 122 794 l 1240 794 b 1290 744 1267 794 1290 771 m 992 942 b 942 893 992 915 970 893 l 446 893 b 397 942 419 893 397 915 l 397 1042 b 446 1091 397 1069 419 1091 l 942 1091 b 992 1042 970 1091 992 1069 "},"":{"ha":1389,"x_min":0,"x_max":0,"o":"m 1389 50 b 1339 0 1389 22 1366 0 l 50 0 b 0 50 22 0 0 22 l 0 149 b 50 198 0 176 22 198 l 1339 198 b 1389 149 1366 198 1389 176 m 1389 347 b 1339 298 1389 320 1366 298 l 347 298 b 298 347 320 298 298 320 l 298 446 b 347 496 298 474 320 496 l 1339 496 b 1389 446 1366 496 1389 474 m 1389 645 b 1339 595 1389 618 1366 595 l 149 595 b 99 645 122 595 99 618 l 99 744 b 149 794 99 771 122 794 l 1339 794 b 1389 744 1366 794 1389 771 m 1389 942 b 1339 893 1389 915 1366 893 l 446 893 b 397 942 419 893 397 915 l 397 1042 b 446 1091 397 1069 419 1091 l 1339 1091 b 1389 1042 1366 1091 1389 1069 "},"":{"ha":1389,"x_min":0,"x_max":0,"o":"m 1389 50 b 1339 0 1389 22 1366 0 l 50 0 b 0 50 22 0 0 22 l 0 149 b 50 198 0 176 22 198 l 1339 198 b 1389 149 1366 198 1389 176 m 1389 347 b 1339 298 1389 320 1366 298 l 50 298 b 0 347 22 298 0 320 l 0 446 b 50 496 0 474 22 496 l 1339 496 b 1389 446 1366 496 1389 474 m 1389 645 b 1339 595 1389 618 1366 595 l 50 595 b 0 645 22 595 0 618 l 0 744 b 50 794 0 771 22 794 l 1339 794 b 1389 744 1366 794 1389 771 m 1389 942 b 1339 893 1389 915 1366 893 l 50 893 b 0 942 22 893 0 915 l 0 1042 b 50 1091 0 1069 22 1091 l 1339 1091 b 1389 1042 1366 1091 1389 1069 "},"":{"ha":1389,"x_min":0,"x_max":0,"o":"m 198 25 b 174 0 198 12 187 0 l 25 0 b 0 25 12 0 0 12 l 0 174 b 25 198 0 187 12 198 l 174 198 b 198 174 187 198 198 187 m 198 322 b 174 298 198 309 187 298 l 25 298 b 0 322 12 298 0 309 l 0 471 b 25 496 0 484 12 496 l 174 496 b 198 471 187 496 198 484 m 198 620 b 174 595 198 607 187 595 l 25 595 b 0 620 12 595 0 607 l 0 769 b 25 794 0 782 12 794 l 174 794 b 198 769 187 794 198 782 m 1389 25 b 1364 0 1389 12 1377 0 l 322 0 b 298 25 309 0 298 12 l 298 174 b 322 198 298 187 309 198 l 1364 198 b 1389 174 1377 198 1389 187 m 198 918 b 174 893 198 904 187 893 l 25 893 b 0 918 12 893 0 904 l 0 1066 b 25 1091 0 1080 12 1091 l 174 1091 b 198 1066 187 1091 198 1080 m 1389 322 b 1364 298 1389 309 1377 298 l 322 298 b 298 322 309 298 298 309 l 298 471 b 322 496 298 484 309 496 l 1364 496 b 1389 471 1377 496 1389 484 m 1389 620 b 1364 595 1389 607 1377 595 l 322 595 b 298 620 309 595 298 607 l 298 769 b 322 794 298 782 309 794 l 1364 794 b 1389 769 1377 794 1389 782 m 1389 918 b 1364 893 1389 904 1377 893 l 322 893 b 298 918 309 893 298 904 l 298 1066 b 322 1091 298 1080 309 1091 l 1364 1091 b 1389 1066 1377 1091 1389 1080 "},"":{"ha":1389,"x_min":0,"x_max":0,"o":"m 298 322 b 273 298 298 309 286 298 b 255 305 267 298 260 300 l 32 528 b 25 546 27 532 25 539 b 32 563 25 552 27 559 l 255 787 b 273 794 260 791 267 794 b 298 769 286 794 298 782 m 1389 25 b 1364 0 1389 12 1377 0 l 25 0 b 0 25 12 0 0 12 l 0 174 b 25 198 0 187 12 198 l 1364 198 b 1389 174 1377 198 1389 187 m 1389 322 b 1364 298 1389 309 1377 298 l 521 298 b 496 322 508 298 496 309 l 496 471 b 521 496 496 484 508 496 l 1364 496 b 1389 471 1377 496 1389 484 m 1389 620 b 1364 595 1389 607 1377 595 l 521 595 b 496 620 508 595 496 607 l 496 769 b 521 794 496 782 508 794 l 1364 794 b 1389 769 1377 794 1389 782 m 1389 918 b 1364 893 1389 904 1377 893 l 25 893 b 0 918 12 893 0 904 l 0 1066 b 25 1091 0 1080 12 1091 l 1364 1091 b 1389 1066 1377 1091 1389 1080 "},"":{"ha":1389,"x_min":0,"x_max":0,"o":"m 273 546 b 266 528 273 539 270 532 l 43 305 b 25 298 38 300 31 298 b 0 322 12 298 0 309 l 0 769 b 25 794 0 782 12 794 b 43 787 31 794 38 791 l 266 563 b 273 546 270 559 273 552 m 1389 25 b 1364 0 1389 12 1377 0 l 25 0 b 0 25 12 0 0 12 l 0 174 b 25 198 0 187 12 198 l 1364 198 b 1389 174 1377 198 1389 187 m 1389 322 b 1364 298 1389 309 1377 298 l 521 298 b 496 322 508 298 496 309 l 496 471 b 521 496 496 484 508 496 l 1364 496 b 1389 471 1377 496 1389 484 m 1389 620 b 1364 595 1389 607 1377 595 l 521 595 b 496 620 508 595 496 607 l 496 769 b 521 794 496 782 508 794 l 1364 794 b 1389 769 1377 794 1389 782 m 1389 918 b 1364 893 1389 904 1377 893 l 25 893 b 0 918 12 893 0 904 l 0 1066 b 25 1091 0 1080 12 1091 l 1364 1091 b 1389 1066 1377 1091 1389 1080 "},"":{"ha":1389,"x_min":0,"x_max":0,"o":"m 1389 74 b 1359 29 1389 54 1376 36 b 1339 25 1352 26 1345 25 b 1304 40 1326 25 1314 29 l 992 352 l 992 223 b 769 0 992 100 892 0 l 223 0 b 0 223 100 0 0 100 l 0 769 b 223 992 0 892 100 992 l 769 992 b 992 769 892 992 992 892 l 992 641 l 1304 953 b 1339 967 1314 963 1326 967 b 1359 963 1345 967 1352 966 b 1389 918 1376 956 1389 938 "},"":{"ha":1488,"x_min":0,"x_max":0,"o":"m 496 744 b 347 595 496 662 429 595 b 198 744 265 595 198 662 b 347 893 198 826 265 893 b 496 744 429 893 496 826 m 1290 99 l 198 99 l 198 248 l 446 496 l 570 372 l 967 769 l 1290 446 m 1364 992 l 124 992 b 99 967 111 992 99 980 l 99 25 b 124 0 99 12 111 0 l 1364 0 b 1389 25 1377 0 1389 12 l 1389 967 b 1364 992 1389 980 1377 992 m 1488 25 b 1364 -99 1488 -43 1432 -99 l 124 -99 b 0 25 56 -99 0 -43 l 0 967 b 124 1091 0 1035 56 1091 l 1364 1091 l 1364 1091 b 1488 967 1432 1091 1488 1035 "},"":{"ha":1190,"x_min":0,"x_max":0,"o":"m 352 71 l 170 253 l 99 182 l 99 99 l 198 99 l 198 0 l 281 0 m 687 719 b 670 736 687 729 680 736 b 656 731 665 736 660 735 l 236 311 b 231 298 233 307 231 302 b 248 281 231 288 238 281 b 261 286 253 281 257 282 l 681 706 b 687 719 685 710 687 715 m 967 546 l 322 -99 l 0 -99 l 0 223 l 645 868 m 1174 794 b 1146 724 1174 767 1163 742 l 1017 595 l 694 918 l 823 1046 b 893 1075 841 1064 867 1075 b 963 1046 919 1075 945 1064 l 1146 864 b 1174 794 1163 846 1174 820 "},"":{"ha":794,"x_min":0,"x_max":0,"o":"m 595 694 b 397 893 595 804 506 893 b 198 694 288 893 198 804 b 397 496 198 585 288 496 b 595 694 506 496 595 585 m 794 694 b 768 556 794 647 788 598 l 486 -44 b 397 -99 470 -78 434 -99 b 308 -44 360 -99 324 -78 l 26 556 b 0 694 5 598 0 647 b 397 1091 0 914 177 1091 b 794 694 616 1091 794 914 "},"":{"ha":1190,"x_min":0,"x_max":0,"o":"m 595 74 l 595 918 b 174 496 363 918 174 729 b 595 74 174 264 363 74 m 1190 496 b 595 -99 1190 167 924 -99 b 0 496 267 -99 0 167 b 595 1091 0 825 267 1091 b 1190 496 924 1091 1190 825 "},"":{"ha":794,"x_min":0,"x_max":0,"o":"m 397 298 b 381 351 397 317 391 336 b 314 471 371 367 330 419 b 298 484 312 480 304 484 b 281 471 291 484 284 480 b 214 351 265 419 224 367 b 198 298 205 336 198 317 b 298 198 198 243 243 198 b 397 298 353 198 397 243 m 794 397 b 397 0 794 177 616 0 b 0 397 177 0 0 177 b 63 610 0 475 24 548 b 331 1091 102 672 268 882 b 397 1141 341 1125 372 1141 b 463 1091 422 1141 453 1125 b 731 610 525 882 691 672 b 794 397 770 548 794 475 "},"":{"ha":1389,"x_min":0,"x_max":0,"o":"m 778 363 l 660 481 l 570 391 l 570 347 l 645 347 l 645 273 l 688 273 m 1029 831 b 1004 830 1022 838 1011 837 l 732 559 b 732 533 725 552 725 540 b 757 534 739 526 750 527 l 1028 805 b 1029 831 1035 812 1036 824 m 1091 223 b 868 0 1091 100 991 0 l 223 0 b 0 223 100 0 0 100 l 0 868 b 223 1091 0 991 100 1091 l 868 1091 b 959 1072 899 1091 930 1085 b 973 1054 966 1069 971 1062 b 966 1032 974 1046 972 1038 l 928 994 b 903 987 921 987 911 984 b 868 992 891 991 880 992 l 223 992 b 99 868 155 992 99 936 l 99 223 b 223 99 99 155 155 99 l 868 99 b 992 223 936 99 992 155 l 992 321 b 999 338 992 327 994 333 l 1049 388 b 1076 393 1056 395 1066 397 b 1091 370 1085 389 1091 381 m 1240 719 l 719 198 l 496 198 l 496 422 l 1017 942 m 1361 840 l 1290 769 l 1066 992 l 1138 1063 b 1243 1063 1166 1092 1215 1092 l 1361 946 b 1361 840 1390 917 1390 869 "},"":{"ha":1290,"x_min":0,"x_max":0,"o":"m 1091 223 b 868 0 1091 100 991 0 l 223 0 b 0 223 100 0 0 100 l 0 868 b 223 1091 0 991 100 1091 l 421 1091 b 421 1091 421 1091 421 1091 b 421 1091 421 1091 421 1091 b 446 1066 434 1091 446 1080 b 426 1042 446 1054 437 1044 b 322 995 387 1028 352 1013 b 310 992 319 994 315 992 l 223 992 b 99 868 155 992 99 936 l 99 223 b 223 99 99 155 155 99 l 868 99 b 992 223 936 99 992 155 l 992 389 b 1006 412 992 398 997 407 b 1048 440 1022 419 1035 429 b 1075 446 1055 447 1066 450 b 1091 424 1084 443 1091 434 m 1275 808 l 977 511 b 942 496 968 501 956 496 b 923 500 936 496 929 498 b 893 546 905 508 893 525 l 893 694 l 769 694 b 429 593 598 694 490 662 b 372 226 367 521 348 405 b 357 200 374 215 367 205 b 347 198 353 199 350 198 b 327 208 339 198 332 202 b 198 546 322 216 198 391 b 769 992 198 753 264 992 l 893 992 l 893 1141 b 923 1187 893 1161 905 1179 b 942 1190 929 1189 936 1190 b 977 1176 956 1190 968 1185 l 1275 878 b 1275 808 1294 859 1294 828 "},"":{"ha":1290,"x_min":0,"x_max":0,"o":"m 1091 223 b 868 0 1091 100 991 0 l 223 0 b 0 223 100 0 0 100 l 0 868 b 223 1091 0 991 100 1091 l 868 1091 b 959 1072 899 1091 930 1085 b 973 1054 966 1069 971 1062 b 966 1032 974 1046 972 1038 l 928 994 b 910 986 923 989 916 986 b 903 987 908 986 905 987 b 868 992 891 991 880 992 l 223 992 b 99 868 155 992 99 936 l 99 223 b 223 99 99 155 155 99 l 868 99 b 992 223 936 99 992 155 l 992 420 b 999 437 992 426 994 432 l 1049 487 b 1066 494 1054 492 1060 494 b 1076 492 1070 494 1073 494 b 1091 470 1085 488 1091 480 m 1270 849 l 639 218 b 551 218 615 193 576 193 l 218 551 b 218 639 193 576 193 615 l 303 725 b 391 725 328 749 367 749 l 595 521 l 1097 1022 b 1185 1022 1121 1047 1160 1047 l 1270 937 b 1270 849 1295 912 1295 873 "},"":{"ha":1389,"x_min":0,"x_max":0,"o":"m 1389 496 b 1374 461 1389 483 1383 470 l 1176 263 b 1141 248 1166 253 1154 248 b 1091 298 1114 248 1091 270 l 1091 397 l 794 397 l 794 99 l 893 99 b 942 50 920 99 942 77 b 928 15 942 36 937 24 l 729 -184 b 694 -198 720 -193 708 -198 b 660 -184 681 -198 669 -193 l 461 15 b 446 50 452 24 446 36 b 496 99 446 77 469 99 l 595 99 l 595 397 l 298 397 l 298 298 b 248 248 298 270 275 248 b 213 263 235 248 222 253 l 15 461 b 0 496 5 470 0 483 b 15 531 0 509 5 522 l 213 729 b 248 744 222 739 235 744 b 298 694 275 744 298 722 l 298 595 l 595 595 l 595 893 l 496 893 b 446 942 469 893 446 915 b 461 977 446 956 452 968 l 660 1176 b 694 1190 669 1185 681 1190 b 729 1176 708 1190 720 1185 l 928 977 b 942 942 937 968 942 956 b 893 893 942 915 920 893 l 794 893 l 794 595 l 1091 595 l 1091 694 b 1141 744 1091 722 1114 744 b 1176 729 1154 744 1166 739 l 1374 531 b 1389 496 1383 522 1389 509 "},"":{"ha":794,"x_min":0,"x_max":0,"o":"m 759 1081 b 794 1066 778 1101 794 1094 l 794 -74 b 759 -89 794 -102 778 -109 l 208 461 b 198 476 204 466 201 470 l 198 -50 b 149 -99 198 -77 176 -99 l 50 -99 b 0 -50 22 -99 0 -77 l 0 1042 b 50 1091 0 1069 22 1091 l 149 1091 b 198 1042 176 1091 198 1069 l 198 516 b 208 531 201 522 204 526 l 759 1081 "},"":{"ha":1389,"x_min":0,"x_max":0,"o":"m 1354 1081 b 1389 1066 1373 1101 1389 1094 l 1389 -74 b 1354 -89 1389 -102 1373 -109 l 804 461 b 794 476 799 466 796 470 l 794 -74 b 759 -89 794 -102 778 -109 l 208 461 b 198 476 204 466 201 470 l 198 -50 b 149 -99 198 -77 176 -99 l 50 -99 b 0 -50 22 -99 0 -77 l 0 1042 b 50 1091 0 1069 22 1091 l 149 1091 b 198 1042 176 1091 198 1069 l 198 516 b 208 531 201 522 204 526 l 759 1081 b 794 1066 778 1101 794 1094 l 794 516 b 804 531 796 522 799 526 l 1354 1081 "},"":{"ha":1290,"x_min":0,"x_max":0,"o":"m 1255 1081 b 1290 1066 1274 1101 1290 1094 l 1290 -74 b 1255 -89 1290 -102 1274 -109 l 705 461 b 694 476 700 466 697 470 l 694 -74 b 660 -89 694 -102 679 -109 l 109 461 b 109 531 90 481 90 512 l 660 1081 b 694 1066 679 1101 694 1094 l 694 516 b 705 531 697 522 700 526 l 1255 1081 "},"":{"ha":1091,"x_min":0,"x_max":0,"o":"m 43 -100 b 0 -74 19 -113 0 -102 l 0 1066 b 43 1092 0 1094 19 1105 l 1073 520 b 1073 472 1097 507 1097 485 "},"":{"ha":1190,"x_min":0,"x_max":0,"o":"m 1190 -50 b 1141 -99 1190 -77 1168 -99 l 744 -99 b 694 -50 717 -99 694 -77 l 694 1042 b 744 1091 694 1069 717 1091 l 1141 1091 b 1190 1042 1168 1091 1190 1069 m 496 -50 b 446 -99 496 -77 474 -99 l 50 -99 b 0 -50 22 -99 0 -77 l 0 1042 b 50 1091 0 1069 22 1091 l 446 1091 b 496 1042 474 1091 496 1069 "},"":{"ha":1190,"x_min":0,"x_max":0,"o":"m 1190 -50 b 1141 -99 1190 -77 1168 -99 l 50 -99 b 0 -50 22 -99 0 -77 l 0 1042 b 50 1091 0 1069 22 1091 l 1141 1091 b 1190 1042 1168 1091 1190 1069 "},"":{"ha":1290,"x_min":0,"x_max":0,"o":"m 35 -89 b 0 -74 16 -109 0 -102 l 0 1066 b 35 1081 0 1094 16 1101 l 585 531 b 595 516 590 526 593 522 l 595 1066 b 630 1081 595 1094 611 1101 l 1180 531 b 1180 461 1200 512 1200 481 l 630 -89 b 595 -74 611 -109 595 -102 l 595 476 b 585 461 593 470 590 466 l 35 -89 "},"":{"ha":1389,"x_min":0,"x_max":0,"o":"m 35 -89 b 0 -74 16 -109 0 -102 l 0 1066 b 35 1081 0 1094 16 1101 l 585 531 b 595 516 590 526 593 522 l 595 1066 b 630 1081 595 1094 611 1101 l 1180 531 b 1190 516 1185 526 1188 522 l 1190 1042 b 1240 1091 1190 1069 1213 1091 l 1339 1091 b 1389 1042 1366 1091 1389 1069 l 1389 -50 b 1339 -99 1389 -77 1366 -99 l 1240 -99 b 1190 -50 1213 -99 1190 -77 l 1190 476 b 1180 461 1188 470 1185 466 l 630 -89 b 595 -74 611 -109 595 -102 l 595 476 b 585 461 593 470 590 466 l 35 -89 "},"":{"ha":794,"x_min":0,"x_max":0,"o":"m 35 -89 b 0 -74 16 -109 0 -102 l 0 1066 b 35 1081 0 1094 16 1101 l 585 531 b 595 516 590 526 593 522 l 595 1042 b 645 1091 595 1069 618 1091 l 744 1091 b 794 1042 771 1091 794 1069 l 794 -50 b 744 -99 794 -77 771 -99 l 645 -99 b 595 -50 618 -99 595 -77 l 595 476 b 585 461 593 470 590 466 l 35 -89 "},"":{"ha":1192,"x_min":0,"x_max":0,"o":"m 561 982 b 631 982 581 1001 612 1001 l 1181 432 b 1166 397 1201 412 1194 397 l 26 397 b 11 432 -2 397 -9 412 m 50 0 b 1 50 23 0 1 22 l 1 248 b 50 298 1 275 23 298 l 1142 298 b 1191 248 1169 298 1191 275 l 1191 50 b 1142 0 1191 22 1169 0 "},"":{"ha":992,"x_min":0,"x_max":0,"o":"m 908 957 l 496 546 l 908 134 b 908 64 927 115 927 84 l 779 -64 b 709 -64 760 -84 729 -84 l 134 511 b 134 581 115 530 115 561 l 709 1156 b 779 1156 729 1175 760 1175 l 908 1027 b 908 957 927 1008 927 977 "},"":{"ha":992,"x_min":0,"x_max":0,"o":"m 858 511 l 283 -64 b 213 -64 264 -84 233 -84 l 84 64 b 84 134 65 84 65 115 l 496 546 l 84 957 b 84 1027 65 977 65 1008 l 213 1156 b 283 1156 233 1175 264 1175 l 858 581 b 858 511 877 561 877 530 "},"":{"ha":1190,"x_min":0,"x_max":0,"o":"m 942 446 l 942 546 b 893 595 942 573 920 595 l 694 595 l 694 794 b 645 843 694 821 672 843 l 546 843 b 496 794 519 843 496 821 l 496 595 l 298 595 b 248 546 270 595 248 573 l 248 446 b 298 397 248 419 270 397 l 496 397 l 496 198 b 546 149 496 171 519 149 l 645 149 b 694 198 672 149 694 171 l 694 397 l 893 397 b 942 446 920 397 942 419 m 1190 496 b 595 -99 1190 167 924 -99 b 0 496 267 -99 0 167 b 595 1091 0 825 267 1091 b 1190 496 924 1091 1190 825 "},"":{"ha":1190,"x_min":0,"x_max":0,"o":"m 942 446 l 942 546 b 893 595 942 573 920 595 l 298 595 b 248 546 270 595 248 573 l 248 446 b 298 397 248 419 270 397 l 893 397 b 942 446 920 397 942 419 m 1190 496 b 595 -99 1190 167 924 -99 b 0 496 267 -99 0 167 b 595 1091 0 825 267 1091 b 1190 496 924 1091 1190 825 "},"":{"ha":1190,"x_min":0,"x_max":0,"o":"m 891 321 b 876 356 891 334 885 346 l 736 496 l 876 636 b 891 671 885 646 891 658 b 876 707 891 684 885 698 l 806 777 b 770 791 797 786 784 791 b 736 777 757 791 745 786 l 595 636 l 455 777 b 420 791 446 786 433 791 b 384 777 407 791 394 786 l 315 707 b 300 671 305 698 300 684 b 315 636 300 658 305 646 l 455 496 l 315 356 b 300 321 305 346 300 334 b 315 285 300 308 305 295 l 384 215 b 420 201 394 206 407 201 b 455 215 433 201 446 206 l 595 356 l 736 215 b 770 201 745 206 757 201 b 806 215 784 201 797 206 l 876 285 b 891 321 885 295 891 308 m 1190 496 b 595 -99 1190 167 924 -99 b 0 496 267 -99 0 167 b 595 1091 0 825 267 1091 b 1190 496 924 1091 1190 825 "},"":{"ha":1190,"x_min":0,"x_max":0,"o":"m 995 622 b 981 657 995 635 991 648 l 911 727 b 876 742 901 736 889 742 b 841 727 863 742 850 736 l 525 412 l 350 587 b 315 601 340 596 328 601 b 280 587 301 601 289 596 l 209 517 b 195 481 200 508 195 494 b 209 446 195 468 200 456 l 490 166 b 525 151 499 157 512 151 b 560 166 538 151 551 157 l 981 587 b 995 622 991 596 995 608 m 1190 496 b 595 -99 1190 167 924 -99 b 0 496 267 -99 0 167 b 595 1091 0 825 267 1091 b 1190 496 924 1091 1190 825 "},"":{"ha":1190,"x_min":0,"x_max":0,"o":"m 694 124 l 694 273 b 670 298 694 287 684 298 l 521 298 b 496 273 507 298 496 287 l 496 124 b 521 99 496 110 507 99 l 670 99 b 694 124 684 99 694 110 m 893 645 b 611 893 893 787 744 893 b 323 728 484 893 390 839 b 329 695 316 717 319 703 l 432 618 b 446 613 436 615 441 613 b 466 622 453 613 461 616 b 532 694 502 669 518 683 b 599 712 546 703 571 712 b 694 646 649 712 694 680 b 626 564 694 606 674 586 b 496 400 571 539 496 475 l 496 372 b 521 347 496 358 507 347 l 670 347 b 694 372 684 347 694 358 l 694 372 b 753 449 694 390 717 428 b 893 645 812 482 893 527 m 1190 496 b 595 -99 1190 167 924 -99 b 0 496 267 -99 0 167 b 595 1091 0 825 267 1091 b 1190 496 924 1091 1190 825 "},"":{"ha":1190,"x_min":0,"x_max":0,"o":"m 794 124 l 794 248 b 769 273 794 262 783 273 l 694 273 l 694 670 b 670 694 694 684 684 694 l 422 694 b 397 670 408 694 397 684 l 397 546 b 422 521 397 532 408 521 l 496 521 l 496 273 l 422 273 b 397 248 408 273 397 262 l 397 124 b 422 99 397 110 408 99 l 769 99 b 794 124 783 99 794 110 m 694 818 l 694 942 b 670 967 694 956 684 967 l 521 967 b 496 942 507 967 496 956 l 496 818 b 521 794 496 805 507 794 l 670 794 b 694 818 684 794 694 805 m 1190 496 b 595 -99 1190 167 924 -99 b 0 496 267 -99 0 167 b 595 1091 0 825 267 1091 b 1190 496 924 1091 1190 825 "},"":{"ha":1190,"x_min":0,"x_max":0,"o":"m 928 397 l 843 397 b 794 446 816 397 794 419 l 794 546 b 843 595 794 573 816 595 l 928 595 b 694 829 894 707 806 795 l 694 744 b 645 694 694 717 672 694 l 546 694 b 496 744 519 694 496 717 l 496 829 b 263 595 384 795 296 707 l 347 595 b 397 546 374 595 397 573 l 397 446 b 347 397 397 419 374 397 l 263 397 b 496 164 296 285 384 197 l 496 248 b 546 298 496 275 519 298 l 645 298 b 694 248 672 298 694 275 l 694 164 b 928 397 806 197 894 285 m 1190 446 b 1141 397 1190 419 1168 397 l 1030 397 b 694 61 992 230 861 99 l 694 -50 b 645 -99 694 -77 672 -99 l 546 -99 b 496 -50 519 -99 496 -77 l 496 61 b 160 397 329 99 198 230 l 50 397 b 0 446 22 397 0 419 l 0 546 b 50 595 0 573 22 595 l 160 595 b 496 931 198 762 329 893 l 496 1042 b 546 1091 496 1069 519 1091 l 645 1091 b 694 1042 672 1091 694 1069 l 694 931 b 1030 595 861 893 992 762 l 1141 595 b 1190 546 1168 595 1190 573 "},"":{"ha":1190,"x_min":0,"x_max":0,"o":"m 850 354 l 737 241 b 701 241 727 231 711 231 l 595 347 l 489 241 b 453 241 479 231 463 231 l 340 354 b 340 390 330 364 330 380 l 446 496 l 340 602 b 340 638 330 612 330 628 l 453 751 b 489 751 463 761 479 761 l 595 645 l 701 751 b 737 751 711 761 727 761 l 850 638 b 850 602 860 628 860 612 l 744 496 l 850 390 b 850 354 860 380 860 364 m 1017 496 b 595 918 1017 729 828 918 b 174 496 363 918 174 729 b 595 74 174 264 363 74 b 1017 496 828 74 1017 264 m 1190 496 b 595 -99 1190 167 924 -99 b 0 496 267 -99 0 167 b 595 1091 0 825 267 1091 b 1190 496 924 1091 1190 825 "},"":{"ha":1190,"x_min":0,"x_max":0,"o":"m 908 560 l 581 233 b 511 233 561 214 530 214 l 283 461 b 283 531 264 481 264 512 l 362 610 b 432 610 381 629 412 629 l 546 496 l 759 709 b 829 709 778 729 809 729 l 908 630 b 908 560 927 611 927 580 m 1017 496 b 595 918 1017 729 828 918 b 174 496 363 918 174 729 b 595 74 174 264 363 74 b 1017 496 828 74 1017 264 m 1190 496 b 595 -99 1190 167 924 -99 b 0 496 267 -99 0 167 b 595 1091 0 825 267 1091 b 1190 496 924 1091 1190 825 "},"":{"ha":1190,"x_min":0,"x_max":0,"o":"m 1017 498 b 949 727 1017 583 992 661 l 365 143 b 595 74 432 100 511 74 b 1017 498 828 74 1017 264 m 828 851 b 595 922 761 896 681 922 b 174 498 363 922 174 732 b 243 267 174 412 199 333 m 1190 498 b 595 -99 1190 168 924 -99 b 0 498 267 -99 0 168 b 595 1095 0 828 267 1095 b 1190 498 924 1095 1190 828 "},"":{"ha":1190,"x_min":0,"x_max":0,"o":"m 1190 397 b 1100 298 1190 344 1156 298 l 554 298 l 781 70 b 811 0 800 52 811 26 b 781 -70 811 -26 800 -52 l 723 -129 b 653 -157 705 -146 680 -157 b 583 -129 627 -157 601 -146 l 78 377 b 50 446 60 395 50 420 b 78 517 50 473 60 498 l 583 1021 b 653 1050 601 1039 627 1050 b 723 1021 680 1050 705 1039 l 781 963 b 811 893 800 945 811 919 b 781 822 811 867 800 841 l 554 595 l 1100 595 b 1190 496 1156 595 1190 549 "},"":{"ha":1190,"x_min":0,"x_max":0,"o":"m 1141 446 b 1112 376 1141 420 1131 395 l 608 -129 b 537 -157 589 -146 563 -157 b 467 -129 511 -157 486 -146 l 409 -71 b 380 0 391 -52 380 -26 b 409 71 380 26 391 52 l 636 298 l 91 298 b 0 397 35 298 0 344 l 0 496 b 91 595 0 549 35 595 l 636 595 l 409 823 b 380 893 391 841 380 867 b 409 963 380 919 391 945 l 467 1021 b 537 1050 486 1039 511 1050 b 608 1021 563 1050 589 1039 l 1112 516 b 1141 446 1131 498 1141 473 "},"":{"ha":1290,"x_min":0,"x_max":0,"o":"m 1249 438 b 1220 368 1249 412 1238 387 l 1162 310 b 1091 281 1143 291 1118 281 b 1022 310 1065 281 1039 291 l 794 537 l 794 -9 b 694 -99 794 -64 747 -99 l 595 -99 b 496 -9 543 -99 496 -64 l 496 537 l 268 310 b 198 281 250 291 225 281 b 129 310 172 281 146 291 l 71 368 b 41 438 52 387 41 412 b 71 508 41 464 52 490 l 575 1013 b 645 1042 593 1032 618 1042 b 715 1013 671 1042 697 1032 l 1220 508 b 1249 438 1238 490 1249 464 "},"":{"ha":1290,"x_min":0,"x_max":0,"o":"m 1249 546 b 1220 476 1249 519 1238 494 l 715 -29 b 645 -58 697 -47 671 -58 b 575 -29 618 -58 593 -47 l 71 476 b 41 546 52 494 41 519 b 71 616 41 572 52 598 l 128 674 b 198 703 146 692 172 703 b 268 674 225 703 250 692 l 496 446 l 496 992 b 595 1091 496 1046 541 1091 l 694 1091 b 794 992 749 1091 794 1046 l 794 446 l 1022 674 b 1091 703 1039 692 1065 703 b 1162 674 1118 703 1143 692 l 1220 616 b 1249 546 1238 598 1249 572 "},"":{"ha":1389,"x_min":0,"x_max":0,"o":"m 1389 694 b 1374 660 1389 681 1383 669 l 977 263 b 942 248 968 253 956 248 b 893 298 915 248 893 270 l 893 496 l 719 496 b 166 62 385 496 166 432 b 170 -33 166 30 167 -2 b 174 -72 171 -46 174 -60 b 149 -99 174 -87 164 -99 b 127 -86 138 -99 133 -94 b 98 -27 115 -70 107 -45 b 0 322 54 72 0 214 b 41 581 0 409 9 498 b 719 893 149 848 465 893 l 893 893 l 893 1091 b 942 1141 893 1118 915 1141 b 977 1126 956 1141 968 1135 l 1374 729 b 1389 694 1383 720 1389 708 "},"":{"ha":1190,"x_min":0,"x_max":0,"o":"m 585 372 b 577 354 585 366 582 359 l 320 97 l 432 -15 b 446 -50 441 -24 446 -36 b 397 -99 446 -77 424 -99 l 50 -99 b 0 -50 22 -99 0 -77 l 0 298 b 50 347 0 325 22 347 b 84 332 63 347 75 342 l 196 221 l 453 478 b 471 486 458 483 465 486 b 489 478 477 486 484 483 l 577 390 b 585 372 582 385 585 378 m 1190 694 b 1141 645 1190 667 1168 645 b 1106 660 1128 645 1115 650 l 994 771 l 737 514 b 719 506 732 509 725 506 b 701 514 713 506 706 509 l 613 602 b 605 620 608 607 605 614 b 613 638 605 626 608 633 l 870 895 l 759 1007 b 744 1042 749 1016 744 1028 b 794 1091 744 1069 767 1091 l 1141 1091 b 1190 1042 1168 1091 1190 1069 "},"":{"ha":1190,"x_min":0,"x_max":0,"o":"m 595 99 b 546 50 595 72 573 50 b 511 64 532 50 520 55 l 399 176 l 142 -81 b 124 -89 137 -86 130 -89 b 106 -81 118 -89 111 -86 l 18 7 b 10 25 13 12 10 19 b 18 43 10 31 13 38 l 275 300 l 164 412 b 149 446 154 421 149 433 b 198 496 149 474 171 496 l 546 496 b 595 446 573 496 595 474 m 1180 967 b 1173 949 1180 961 1177 954 l 915 692 l 1027 581 b 1042 546 1036 571 1042 559 b 992 496 1042 519 1019 496 l 645 496 b 595 546 618 496 595 519 l 595 893 b 645 942 595 920 618 942 b 680 928 658 942 670 937 l 791 816 l 1049 1073 b 1066 1081 1053 1078 1060 1081 b 1084 1073 1073 1081 1080 1078 l 1173 985 b 1180 967 1177 980 1180 973 "},"":{"ha":1190,"x_min":0,"x_max":0,"o":"m 595 1091 b 1190 496 924 1091 1190 825 b 595 -99 1190 167 924 -99 b 0 496 267 -99 0 167 b 595 1091 0 825 267 1091 m 694 272 b 670 298 694 286 684 298 l 522 298 b 496 272 508 298 496 286 l 496 125 b 522 99 496 111 508 99 l 670 99 b 694 125 684 99 694 111 m 707 873 b 699 887 707 878 705 884 b 680 893 694 891 687 893 l 510 893 b 491 887 503 893 496 891 b 484 873 486 884 484 878 l 497 391 b 523 372 497 381 508 372 l 667 372 b 693 391 680 372 692 381 "},"":{"ha":1190,"x_min":0,"x_max":0,"o":"m 719 140 l 719 183 l 719 546 l 719 694 l 471 694 l 471 546 l 471 183 l 471 140 b 521 99 471 112 494 99 l 670 99 b 719 140 697 99 719 112 m 517 794 l 419 918 b 366 942 411 929 392 942 b 291 868 325 942 291 909 b 366 794 291 827 325 794 m 899 868 b 825 942 899 909 866 942 b 771 918 798 942 780 929 l 674 794 l 825 794 b 899 868 866 794 899 827 m 1190 422 b 1166 397 1190 408 1180 397 l 1091 397 l 1091 74 b 1017 0 1091 33 1058 0 l 174 0 b 99 74 133 0 99 33 l 99 397 l 25 397 b 0 422 11 397 0 408 l 0 670 b 25 694 0 684 11 694 l 366 694 b 192 868 270 694 192 772 b 366 1042 192 964 270 1042 b 496 982 418 1042 466 1020 l 595 854 l 694 982 b 825 1042 725 1020 773 1042 b 998 868 921 1042 998 964 b 825 694 998 772 921 694 l 1166 694 b 1190 670 1180 694 1190 684 "},"":{"ha":1389,"x_min":0,"x_max":0,"o":"m 992 645 b 942 694 992 672 970 694 b 312 382 668 694 491 580 b 298 347 303 372 298 361 b 347 298 298 320 320 298 b 382 312 361 298 372 303 b 491 419 420 346 454 384 b 942 595 632 545 752 595 b 992 645 970 595 992 618 m 1389 798 b 1373 649 1389 749 1383 698 b 953 144 1324 408 1169 251 b 614 60 849 91 732 60 b 392 97 539 60 463 73 b 250 158 355 109 281 158 b 97 0 211 158 164 0 b 12 60 48 0 33 24 b 0 94 5 73 0 78 b 153 282 0 174 153 237 b 130 346 153 289 133 330 b 123 426 126 372 123 399 b 539 922 123 673 319 849 b 1144 1015 698 974 1036 913 b 1273 1091 1187 1055 1208 1091 b 1389 798 1360 1091 1389 864 "},"":{"ha":1091,"x_min":0,"x_max":0,"o":"m 1091 -174 b 1066 -198 1091 -187 1080 -198 l 25 -198 b 0 -174 12 -198 0 -187 l 0 -124 b 25 -99 0 -111 12 -99 l 1066 -99 b 1091 -124 1080 -99 1091 -111 m 893 694 b 546 174 893 398 546 371 b 598 0 546 119 573 47 l 594 1 l 595 0 b 198 496 381 98 198 234 b 546 1017 198 793 546 819 b 494 1190 546 1071 519 1143 l 497 1190 l 496 1190 b 893 694 710 1092 893 956 "},"":{"ha":1389,"x_min":0,"x_max":0,"o":"m 1290 446 b 994 720 1216 560 1115 658 b 1042 546 1025 667 1042 607 b 694 198 1042 354 886 198 b 347 546 503 198 347 354 b 395 720 347 607 363 667 b 99 446 274 658 173 560 b 694 99 232 242 446 99 b 1290 446 943 99 1157 242 m 732 744 b 694 781 732 764 715 781 b 459 546 565 781 459 675 b 496 508 459 525 476 508 b 533 546 516 508 533 525 b 694 707 533 634 606 707 b 732 744 715 707 732 724 m 1389 446 b 1373 393 1389 427 1383 409 b 694 0 1231 158 970 0 b 16 393 419 0 158 159 b 0 446 6 409 0 427 b 16 500 0 466 6 484 b 694 893 158 734 419 893 b 1373 500 970 893 1231 734 b 1389 446 1383 484 1389 466 "},"":{"ha":1389,"x_min":0,"x_max":0,"o":"m 491 265 b 347 546 401 330 347 435 b 395 720 347 607 363 667 b 99 446 274 658 173 560 b 430 156 180 322 294 217 m 732 744 b 694 781 732 764 715 781 b 459 546 565 781 459 675 b 496 508 459 525 476 508 b 533 546 516 508 533 525 b 694 707 533 635 606 707 b 732 744 715 707 732 724 m 1013 892 b 1012 885 1013 891 1013 887 b 523 7 849 593 687 299 l 485 -62 b 463 -74 481 -70 472 -74 b 360 -20 450 -74 376 -29 b 347 2 352 -16 347 -8 b 381 69 347 14 374 56 b 16 393 231 137 105 253 b 0 446 5 408 0 427 b 16 500 0 465 5 484 b 694 893 169 736 408 893 b 834 880 741 893 788 888 l 876 955 b 898 967 880 963 888 967 b 1001 913 911 967 984 922 b 1013 892 1008 908 1013 901 m 1042 546 b 818 222 1042 401 953 273 l 1035 611 b 1042 546 1039 589 1042 567 m 1389 446 b 1373 393 1389 426 1383 410 b 1289 281 1349 353 1319 315 b 694 0 1137 106 928 0 l 752 102 b 1290 446 977 122 1169 259 b 1071 674 1232 536 1159 614 l 1120 761 b 1373 500 1216 697 1313 600 b 1389 446 1383 483 1389 467 "},"":{"ha":1389,"x_min":0,"x_max":0,"o":"m 794 125 l 794 272 b 769 298 794 286 783 298 l 620 298 b 595 272 606 298 595 286 l 595 125 b 620 99 595 111 606 99 l 769 99 b 794 125 783 99 794 111 m 806 770 b 798 785 806 775 804 781 b 780 794 794 789 787 794 l 609 794 b 591 785 602 794 595 789 b 583 769 585 781 583 773 l 596 415 b 622 397 596 405 608 397 l 766 397 b 792 415 780 397 791 405 m 1376 47 b 1375 -50 1394 17 1393 -20 b 1290 -99 1357 -81 1325 -99 l 99 -99 b 14 -50 64 -99 32 -81 b 12 47 -4 -20 -5 17 l 608 1139 b 694 1190 625 1170 658 1190 b 781 1139 731 1190 764 1170 "},"":{"ha":1091,"x_min":0,"x_max":0,"o":"m 1066 1066 b 992 818 1116 1017 1066 893 l 867 694 l 991 154 b 982 129 994 145 990 135 l 883 54 b 868 50 879 51 873 50 b 863 50 867 50 865 50 b 846 63 856 52 849 56 l 630 457 l 429 256 l 470 105 b 464 81 473 97 470 88 l 390 7 b 372 0 385 2 378 0 b 370 0 371 0 371 0 b 352 10 363 1 357 4 l 205 205 l 10 352 b 0 370 4 356 1 363 b 7 389 -1 377 2 384 l 81 464 b 99 471 86 469 93 471 b 105 470 102 471 104 471 l 256 429 l 457 630 l 63 846 b 50 865 56 850 51 857 b 57 886 49 872 51 880 l 156 985 b 179 991 162 991 171 994 l 694 868 l 818 992 b 1066 1066 893 1066 1017 1116 "},"":{"ha":1290,"x_min":0,"x_max":0,"o":"m 322 -99 l 322 124 l 99 124 l 99 -99 m 620 -99 l 620 124 l 372 124 l 372 -99 m 322 174 l 322 422 l 99 422 l 99 174 m 620 174 l 620 422 l 372 422 l 372 174 m 322 471 l 322 694 l 99 694 l 99 471 m 918 -99 l 918 124 l 670 124 l 670 -99 m 620 471 l 620 694 l 372 694 l 372 471 m 1190 -99 l 1190 124 l 967 124 l 967 -99 m 918 174 l 918 422 l 670 422 l 670 174 m 397 843 l 397 1066 b 372 1091 397 1080 385 1091 l 322 1091 b 298 1066 309 1091 298 1080 l 298 843 b 322 818 298 830 309 818 l 372 818 b 397 843 385 818 397 830 m 1190 174 l 1190 422 l 967 422 l 967 174 m 918 471 l 918 694 l 670 694 l 670 471 m 1190 471 l 1190 694 l 967 694 l 967 471 m 992 843 l 992 1066 b 967 1091 992 1080 980 1091 l 918 1091 b 893 1066 904 1091 893 1080 l 893 843 b 918 818 893 830 904 818 l 967 818 b 992 843 980 818 992 830 m 1290 -99 b 1190 -198 1290 -153 1245 -198 l 99 -198 b 0 -99 45 -198 0 -153 l 0 893 b 99 992 0 947 45 992 l 198 992 l 198 1066 b 322 1190 198 1135 254 1190 l 372 1190 b 496 1066 440 1190 496 1135 l 496 992 l 794 992 l 794 1066 b 918 1190 794 1135 849 1190 l 967 1190 b 1091 1066 1035 1190 1091 1135 l 1091 992 l 1190 992 b 1290 893 1245 992 1290 947 "},"":{"ha":1389,"x_min":0,"x_max":0,"o":"m 516 818 b 410 606 473 751 441 679 b 198 794 365 700 315 794 l 25 794 b 0 818 11 794 0 805 l 0 967 b 25 992 0 981 11 992 l 198 992 b 516 818 336 992 438 928 m 1389 198 b 1382 181 1389 192 1387 185 l 1134 -67 b 1116 -74 1129 -72 1122 -74 b 1091 -50 1103 -74 1091 -63 l 1091 99 b 576 274 861 99 719 72 b 681 485 618 340 650 412 b 893 298 726 391 776 298 l 1091 298 l 1091 446 b 1116 471 1091 460 1102 471 b 1135 463 1123 471 1129 468 l 1382 216 b 1389 198 1387 212 1389 205 m 1389 893 b 1382 875 1389 887 1387 880 l 1134 627 b 1116 620 1129 622 1122 620 b 1091 645 1103 620 1091 631 l 1091 794 l 893 794 b 698 639 790 794 741 723 b 637 507 675 596 656 551 b 198 99 551 307 450 99 l 25 99 b 0 124 11 99 0 110 l 0 273 b 25 298 0 287 11 298 l 198 298 b 394 452 301 298 350 368 b 454 584 416 495 436 540 b 893 992 540 784 641 992 l 1091 992 l 1091 1141 b 1116 1166 1091 1155 1102 1166 b 1135 1158 1123 1166 1129 1163 l 1382 911 b 1389 893 1387 906 1389 899 "},"":{"ha":1389,"x_min":0,"x_max":0,"o":"m 1389 496 b 694 0 1389 222 1078 0 b 582 6 656 0 618 2 b 226 -181 481 -84 360 -147 b 137 -198 198 -189 167 -195 b 100 -169 120 -200 104 -188 b 100 -168 100 -168 100 -168 b 121 -123 96 -149 109 -137 b 262 108 170 -68 226 -22 b 0 496 102 198 0 339 b 694 992 0 770 311 992 b 1389 496 1078 992 1389 770 "},"":{"ha":1190,"x_min":0,"x_max":0,"o":"m 1190 446 b 595 -99 1190 130 940 -99 b 0 446 250 -99 0 130 l 0 546 b 50 595 0 573 22 595 l 347 595 b 397 546 374 595 397 573 l 397 446 b 595 298 397 305 562 298 b 794 446 629 298 794 305 l 794 546 b 843 595 794 573 816 595 l 1141 595 b 1190 546 1168 595 1190 573 m 397 744 b 347 694 397 717 374 694 l 50 694 b 0 744 22 694 0 717 l 0 1042 b 50 1091 0 1069 22 1091 l 347 1091 b 397 1042 374 1091 397 1069 m 1190 744 b 1141 694 1190 717 1168 694 l 843 694 b 794 744 816 694 794 717 l 794 1042 b 843 1091 794 1069 816 1091 l 1141 1091 b 1190 1042 1168 1091 1190 1069 "},"":{"ha":1389,"x_min":0,"x_max":0,"o":"m 1304 159 l 1176 31 b 1106 31 1156 12 1125 12 l 694 443 l 283 31 b 213 31 264 12 233 12 l 84 159 b 84 229 65 178 65 210 l 660 804 b 729 804 679 823 710 823 l 1304 229 b 1304 159 1324 210 1324 178 "},"":{"ha":1389,"x_min":0,"x_max":0,"o":"m 1304 564 l 729 -10 b 660 -10 710 -29 679 -29 l 84 564 b 84 635 65 584 65 615 l 213 763 b 283 763 233 782 264 782 l 694 351 l 1106 763 b 1176 763 1125 782 1156 782 l 1304 635 b 1304 564 1324 615 1324 584 "},"":{"ha":1488,"x_min":0,"x_max":0,"o":"m 992 25 b 967 0 992 12 980 0 l 223 0 b 198 50 195 0 198 30 l 198 174 l 198 496 l 50 496 b 0 546 22 496 0 519 b 12 577 0 557 4 569 l 260 875 b 298 892 269 886 283 892 b 336 875 312 892 326 886 l 584 577 b 595 546 591 569 595 557 b 546 496 595 519 573 496 l 397 496 l 397 198 l 843 198 b 863 190 850 198 858 195 l 987 41 b 992 25 990 36 992 30 m 1488 347 b 1476 315 1488 336 1484 324 l 1228 18 b 1190 0 1219 7 1205 0 b 1152 18 1176 0 1162 7 l 904 315 b 893 347 897 324 893 336 b 942 397 893 374 915 397 l 1091 397 l 1091 694 l 645 694 b 625 704 638 694 630 698 l 501 853 b 496 868 498 856 496 863 b 521 893 496 881 508 893 l 1265 893 b 1290 843 1294 893 1290 863 l 1290 719 l 1290 397 l 1438 397 b 1488 347 1466 397 1488 374 "},"":{"ha":1290,"x_min":0,"x_max":0,"o":"m 496 0 b 397 -99 496 -54 451 -99 b 298 0 343 -99 298 -54 b 397 99 298 54 343 99 b 496 0 451 99 496 54 m 1190 0 b 1091 -99 1190 -54 1146 -99 b 992 0 1037 -99 992 -54 b 1091 99 992 54 1037 99 b 1190 0 1146 99 1190 54 m 1290 446 b 1246 397 1290 422 1270 400 l 436 302 b 446 248 440 284 446 267 b 428 198 446 230 436 214 l 1141 198 b 1190 149 1168 198 1190 176 b 1141 99 1190 122 1168 99 l 347 99 b 298 149 320 99 298 122 b 345 255 298 173 332 231 l 208 893 l 50 893 b 0 942 22 893 0 915 b 50 992 0 970 22 992 l 248 992 b 309 893 300 992 301 930 l 1240 893 b 1290 843 1267 893 1290 870 "},"":{"ha":1290,"x_min":0,"x_max":0,"o":"m 1290 174 b 1116 0 1290 78 1211 0 l 174 0 b 0 174 78 0 0 78 l 0 918 b 174 1091 0 1013 78 1091 l 422 1091 b 595 918 517 1091 595 1013 l 595 893 l 1116 893 b 1290 719 1211 893 1290 815 "},"":{"ha":1488,"x_min":0,"x_max":0,"o":"m 1456 453 b 1432 401 1456 434 1445 415 l 1172 95 b 967 0 1127 42 1035 0 l 124 0 b 57 43 96 0 57 9 b 81 95 57 62 68 81 l 341 401 b 546 496 386 454 477 496 l 1389 496 b 1456 453 1417 496 1456 488 m 1190 595 l 546 595 b 266 466 449 595 329 540 l 5 159 l 1 154 b 0 174 1 160 0 167 l 0 918 b 174 1091 0 1013 78 1091 l 422 1091 b 595 918 517 1091 595 1013 l 595 893 l 1017 893 b 1190 719 1112 893 1190 815 "},"":{"ha":595,"x_min":0,"x_max":0,"o":"m 546 942 b 496 893 546 915 523 893 l 397 893 l 397 99 l 496 99 b 546 50 523 99 546 77 b 531 15 546 36 540 24 l 332 -184 b 298 -198 323 -193 311 -198 b 263 -184 284 -198 272 -193 l 64 15 b 50 50 55 24 50 36 b 99 99 50 77 72 99 l 198 99 l 198 893 l 99 893 b 50 942 72 893 50 915 b 64 977 50 956 55 968 l 263 1176 b 298 1190 272 1185 284 1190 b 332 1176 311 1190 323 1185 l 531 977 b 546 942 540 968 546 956 "},"":{"ha":1389,"x_min":0,"x_max":0,"o":"m 1389 496 b 1374 461 1389 483 1383 470 l 1176 263 b 1141 248 1166 253 1154 248 b 1091 298 1114 248 1091 270 l 1091 397 l 298 397 l 298 298 b 248 248 298 270 275 248 b 213 263 235 248 222 253 l 15 461 b 0 496 5 470 0 483 b 15 531 0 509 5 522 l 213 729 b 248 744 222 739 235 744 b 298 694 275 744 298 722 l 298 595 l 1091 595 l 1091 694 b 1141 744 1091 722 1114 744 b 1176 729 1154 744 1166 739 l 1374 531 b 1389 496 1383 522 1389 509 "},"":{"ha":1587,"x_min":0,"x_max":0,"o":"m 496 99 l 298 99 l 298 496 l 496 496 m 794 99 l 595 99 l 595 893 l 794 893 m 1587 -99 l 0 -99 l 0 1091 l 99 1091 l 99 0 l 1587 0 m 1091 99 l 893 99 l 893 694 l 1091 694 m 1389 99 l 1190 99 l 1190 992 l 1389 992 "},"":{"ha":1190,"x_min":0,"x_max":0,"o":"m 992 718 b 898 691 963 705 932 696 b 970 782 932 711 958 744 b 867 742 939 763 904 749 b 748 794 837 774 794 794 b 585 631 658 794 585 721 b 589 594 585 618 586 605 b 253 764 453 601 333 665 b 230 682 239 740 230 711 b 301 546 230 625 257 576 b 223 567 274 547 248 555 b 223 565 223 567 223 566 b 357 405 223 486 283 420 b 318 399 343 401 332 399 b 288 402 308 399 298 401 b 439 289 308 338 368 291 b 237 219 384 246 314 219 b 198 222 224 219 211 220 b 448 149 270 176 356 149 b 911 612 747 149 911 397 b 911 633 911 619 911 626 b 992 718 942 656 970 684 m 1190 124 b 967 -99 1190 1 1090 -99 l 223 -99 b 0 124 100 -99 0 1 l 0 868 b 223 1091 0 991 100 1091 l 967 1091 b 1190 868 1090 1091 1190 991 "},"":{"ha":1190,"x_min":0,"x_max":0,"o":"m 967 1091 b 1190 868 1090 1091 1190 991 l 1190 124 b 967 -99 1190 1 1090 -99 l 822 -99 l 822 362 l 976 362 l 999 542 l 822 542 l 822 656 b 911 743 822 708 836 743 l 1005 744 l 1005 904 b 867 911 989 907 932 911 b 636 674 730 911 636 828 l 636 542 l 481 542 l 481 362 l 636 362 l 636 -99 l 223 -99 b 0 124 100 -99 0 1 l 0 868 b 223 1091 0 991 100 1091 l 967 1091 "},"":{"ha":1389,"x_min":0,"x_max":0,"o":"m 719 546 b 694 570 719 560 708 570 b 570 446 626 570 570 515 b 595 422 570 432 581 422 b 620 446 609 422 620 432 b 694 521 620 488 653 521 b 719 546 708 521 719 532 m 893 445 b 694 246 893 336 804 246 b 496 445 585 246 496 336 b 694 643 496 554 585 643 b 893 445 804 643 893 554 m 1290 0 l 1290 99 l 99 99 l 99 0 m 992 445 b 694 742 992 609 859 742 b 397 445 530 742 397 609 b 694 147 397 281 530 147 b 992 445 859 147 992 281 m 496 942 l 496 1042 l 198 1042 l 198 942 m 1290 794 l 1290 885 l 1290 992 l 648 992 l 598 893 l 99 893 l 99 794 m 1389 0 b 1290 -99 1389 -55 1345 -99 l 99 -99 b 0 0 44 -99 0 -55 l 0 992 b 99 1091 0 1047 44 1091 l 1290 1091 b 1389 992 1345 1091 1389 1047 "},"":{"ha":1389,"x_min":0,"x_max":0,"o":"m 645 794 b 496 942 645 876 578 942 b 347 794 414 942 347 876 b 362 729 347 771 353 749 b 298 744 342 739 320 744 b 149 595 215 744 149 677 b 298 446 149 513 215 446 b 446 595 380 446 446 513 b 432 660 446 618 441 639 b 496 645 452 650 474 645 b 645 794 578 645 645 711 m 1304 248 b 1215 159 1304 230 1233 159 b 1116 248 1195 159 1132 232 l 1042 174 l 1212 3 b 1234 -50 1226 -11 1234 -30 b 1141 -143 1234 -93 1184 -143 b 1088 -121 1121 -143 1102 -135 l 568 399 b 285 298 487 339 388 298 b 0 583 116 298 0 415 b 508 1091 0 837 254 1091 b 794 806 677 1091 794 975 b 692 523 794 704 753 605 l 967 248 l 1042 322 b 953 422 1025 339 953 401 b 1042 511 953 439 1024 511 b 1059 503 1048 511 1055 508 b 1304 248 1088 474 1304 270 "},"":{"ha":1488,"x_min":0,"x_max":0,"o":"m 694 496 b 496 694 694 605 605 694 b 298 496 387 694 298 605 b 496 298 298 387 387 298 b 694 496 605 298 694 387 m 1290 99 b 1190 198 1290 153 1245 198 b 1091 99 1136 198 1091 153 b 1190 0 1091 44 1136 0 b 1290 99 1246 0 1290 45 m 1290 893 b 1190 992 1290 947 1245 992 b 1091 893 1136 992 1091 947 b 1190 794 1091 838 1136 794 b 1290 893 1246 794 1290 839 m 992 423 b 974 400 992 413 984 401 l 854 381 b 829 322 848 361 839 342 b 899 233 851 291 874 263 b 904 218 902 229 904 224 b 899 203 904 212 903 207 b 774 88 884 182 797 88 b 758 93 768 88 763 90 l 669 163 b 609 139 649 153 630 145 b 591 19 605 99 601 57 b 568 0 588 8 579 0 l 424 0 b 401 19 413 0 402 9 l 383 138 b 325 162 363 144 343 153 l 233 93 b 218 88 229 89 223 88 b 202 94 212 88 206 90 b 90 218 181 112 90 195 b 95 233 90 223 92 228 b 164 321 118 262 141 291 b 136 384 153 342 143 363 l 19 403 b 0 426 8 405 0 415 l 0 569 b 18 592 0 579 8 591 l 138 611 b 163 670 144 631 153 650 b 93 759 141 701 118 729 b 88 774 90 763 88 769 b 93 790 88 780 89 785 b 218 904 109 811 195 904 b 234 899 224 904 229 902 l 323 829 b 383 854 343 839 362 847 b 401 973 387 893 391 935 b 424 992 404 984 413 992 l 568 992 b 591 973 579 992 590 984 l 609 854 b 667 830 629 848 649 839 l 759 899 b 774 904 763 903 769 904 b 791 898 780 904 786 902 b 902 774 811 880 902 796 b 897 760 902 769 900 764 b 829 671 874 729 851 701 b 856 608 839 650 849 629 l 973 590 b 992 567 984 587 992 577 m 1488 45 b 1373 21 1488 33 1388 22 b 1349 -19 1366 6 1359 -7 b 1389 -126 1356 -35 1389 -112 b 1386 -132 1389 -129 1388 -130 b 1290 -187 1376 -137 1294 -187 b 1214 -98 1280 -187 1221 -109 b 1190 -99 1206 -98 1198 -99 b 1167 -98 1183 -99 1175 -98 b 1091 -187 1159 -109 1101 -187 b 995 -132 1087 -187 1004 -137 b 992 -126 993 -130 992 -128 b 1032 -19 992 -113 1025 -35 b 1008 21 1022 -7 1015 6 b 893 45 993 22 893 33 l 893 153 b 1008 177 893 165 993 176 b 1032 218 1015 191 1022 205 b 992 325 1025 233 992 312 b 995 330 992 326 993 329 b 1091 384 1004 335 1087 384 b 1167 296 1101 384 1159 308 b 1190 298 1175 297 1183 298 b 1214 296 1198 298 1206 297 b 1285 383 1235 326 1259 357 l 1290 384 b 1386 330 1294 384 1376 336 b 1389 325 1388 329 1389 326 b 1349 218 1389 311 1356 233 b 1373 177 1359 205 1366 191 b 1488 153 1388 176 1488 165 m 1488 839 b 1373 815 1488 827 1388 816 b 1349 774 1366 800 1359 787 b 1389 667 1356 759 1389 681 b 1386 662 1389 665 1388 663 b 1290 607 1376 656 1294 607 b 1214 696 1280 607 1221 684 b 1190 694 1206 695 1198 694 b 1167 696 1183 694 1175 695 b 1091 607 1159 684 1101 607 b 995 662 1087 607 1004 656 b 992 667 993 663 992 666 b 1032 774 992 680 1025 759 b 1008 815 1022 787 1015 800 b 893 839 993 816 893 827 l 893 947 b 1008 971 893 959 993 970 b 1032 1011 1015 985 1022 999 b 992 1118 1025 1027 992 1105 b 995 1124 992 1120 993 1122 b 1091 1178 1004 1128 1087 1178 b 1167 1090 1101 1178 1159 1101 b 1190 1091 1175 1090 1183 1091 b 1214 1090 1198 1091 1206 1090 b 1285 1177 1235 1120 1259 1150 l 1290 1178 b 1386 1124 1294 1178 1376 1129 b 1389 1118 1388 1122 1389 1120 b 1349 1011 1389 1104 1356 1027 b 1373 971 1359 999 1366 985 b 1488 947 1388 970 1488 959 "},"":{"ha":1389,"x_min":0,"x_max":0,"o":"m 1091 595 b 546 198 1091 376 847 198 b 409 211 498 198 453 203 b 194 112 345 165 272 132 b 127 99 173 106 150 102 b 125 99 126 99 126 99 b 100 122 113 99 102 109 b 100 122 100 122 100 122 b 115 156 97 136 107 146 b 206 284 146 190 180 220 b 0 595 81 357 0 470 b 546 992 0 815 244 992 b 1091 595 847 992 1091 815 m 1389 397 b 1183 86 1389 270 1308 159 b 1273 -43 1209 22 1243 -9 b 1289 -77 1282 -53 1292 -62 b 1289 -77 1289 -77 1289 -77 b 1262 -99 1286 -91 1274 -101 b 1195 -87 1239 -96 1216 -92 b 980 12 1117 -67 1044 -33 b 843 0 936 5 891 0 b 477 102 703 0 574 39 b 546 99 500 101 523 99 b 990 234 712 99 870 147 b 1190 595 1119 329 1190 457 b 1173 713 1190 636 1184 675 b 1389 397 1304 641 1389 526 "},"":{"ha":1190,"x_min":0,"x_max":0,"o":"m 198 149 b 149 198 198 176 176 198 b 99 149 122 198 99 176 b 149 99 99 122 122 99 b 198 149 176 99 198 122 m 1091 595 b 992 694 1091 648 1044 694 l 719 694 b 794 942 719 785 794 851 b 670 1091 794 1033 776 1091 b 570 843 620 1041 646 922 b 511 773 549 821 530 797 b 322 595 476 728 384 595 l 298 595 l 298 99 l 322 99 b 479 57 366 99 437 71 b 744 0 564 27 653 0 l 838 0 b 987 129 925 0 987 35 b 983 173 987 144 985 159 b 1033 270 1015 191 1033 235 b 1019 324 1033 289 1028 308 b 1060 416 1046 349 1060 380 b 1033 496 1060 441 1049 477 b 1091 595 1070 497 1091 567 m 1190 596 b 1152 470 1190 551 1177 507 b 1159 416 1157 453 1159 434 b 1130 305 1159 377 1149 339 b 1132 271 1132 294 1132 282 b 1086 133 1132 222 1116 172 b 844 -99 1087 -13 987 -99 l 816 -99 l 744 -99 b 429 -31 634 -99 532 -67 b 322 0 407 -23 344 0 l 99 0 b 0 99 44 0 0 44 l 0 595 b 99 694 0 650 44 694 l 312 694 b 418 815 342 715 395 784 b 501 914 444 849 471 882 b 600 1162 547 963 522 1086 b 670 1190 618 1180 643 1190 b 866 1087 750 1190 828 1162 b 893 942 890 1039 893 994 b 856 794 893 888 879 842 l 992 794 b 1190 596 1099 794 1190 703 "},"":{"ha":1190,"x_min":0,"x_max":0,"o":"m 198 843 b 149 893 198 870 176 893 b 99 843 122 893 99 870 b 149 794 99 816 122 794 b 198 843 176 794 198 816 m 1091 397 b 1033 496 1091 426 1070 495 b 1060 576 1049 515 1060 551 b 1019 668 1060 612 1046 643 b 1033 722 1028 684 1033 703 b 983 819 1033 757 1015 801 b 987 863 985 833 987 848 b 843 992 987 953 929 992 l 744 992 b 479 935 653 992 564 965 b 322 893 437 921 366 893 l 298 893 l 298 397 l 322 397 b 511 219 384 397 476 264 b 570 149 530 195 549 171 b 670 -99 646 70 620 -49 b 794 50 776 -99 794 -41 b 719 298 794 141 719 207 l 992 298 b 1091 397 1044 298 1091 344 m 1190 396 b 992 198 1190 289 1099 198 l 856 198 b 893 50 879 150 893 104 b 866 -95 893 -2 890 -48 b 670 -198 828 -170 750 -198 b 600 -170 643 -198 618 -188 b 501 79 522 -94 546 29 b 418 177 471 110 444 143 b 312 298 395 208 342 277 l 99 298 b 0 397 44 298 0 342 l 0 893 b 99 992 0 948 44 992 l 322 992 b 429 1023 344 992 407 1015 b 757 1091 541 1062 638 1091 l 844 1091 b 1086 863 985 1091 1087 1008 l 1086 859 b 1132 721 1116 820 1132 770 b 1130 687 1132 710 1132 698 b 1159 576 1149 653 1159 615 b 1152 522 1159 558 1157 539 b 1190 396 1177 485 1190 441 "},"":{"ha":694,"x_min":0,"x_max":0,"o":"m 645 128 l 645 128 l 297 -55 b 266 -64 287 -60 277 -64 b 233 -26 243 -64 233 -46 b 235 -10 233 -20 234 -16 l 301 377 l 19 652 b 0 689 10 662 0 675 b 43 725 0 712 24 722 l 432 781 l 607 1134 b 645 1166 614 1149 627 1166 l 645 1166 "},"":{"ha":1389,"x_min":0,"x_max":0,"o":"m 1290 729 b 1018 992 1290 946 1142 992 b 732 819 903 992 773 867 b 656 819 714 797 675 797 b 370 992 616 867 486 992 b 99 729 246 992 99 946 b 244 453 99 587 243 455 l 694 19 l 1144 453 b 1290 729 1146 455 1290 587 m 1389 729 b 1211 380 1389 543 1218 387 l 729 -85 b 694 -99 719 -95 707 -99 b 660 -85 682 -99 670 -95 l 177 381 b 0 729 171 387 0 543 b 370 1091 0 956 139 1091 b 694 924 506 1091 633 984 b 1018 1091 756 984 883 1091 b 1389 729 1250 1091 1389 956 "},"":{"ha":1290,"x_min":0,"x_max":0,"o":"m 496 74 b 471 0 496 53 506 0 l 223 0 b 0 223 100 0 0 100 l 0 769 b 223 992 0 892 100 992 l 471 992 b 496 967 484 992 496 980 b 471 893 496 946 506 893 l 223 893 b 99 769 155 893 99 837 l 99 223 b 223 99 99 155 155 99 l 446 99 b 496 74 466 99 496 103 m 1215 496 b 1201 461 1215 483 1210 470 l 779 40 b 744 25 770 30 757 25 b 694 74 717 25 694 47 l 694 298 l 347 298 b 298 347 320 298 298 320 l 298 645 b 347 694 298 672 320 694 l 694 694 l 694 918 b 744 967 694 945 717 967 b 779 953 757 967 770 962 l 1201 531 b 1215 496 1210 522 1215 509 "},"":{"ha":1190,"x_min":0,"x_max":0,"o":"m 363 95 l 363 632 l 184 632 l 184 95 m 374 798 b 274 891 374 851 336 891 b 173 798 213 891 173 851 b 272 705 173 747 212 705 l 273 705 l 273 705 b 374 798 336 705 374 747 m 1007 95 l 1007 403 b 801 645 1007 568 918 645 b 639 554 705 645 662 591 l 640 554 l 640 632 l 461 632 b 461 95 461 632 463 582 l 461 95 l 640 95 l 640 395 b 646 439 640 411 641 427 b 738 504 659 470 688 504 b 828 382 802 504 828 455 l 828 95 m 1190 124 b 967 -99 1190 1 1090 -99 l 223 -99 b 0 124 100 -99 0 1 l 0 868 b 223 1091 0 991 100 1091 l 967 1091 b 1190 868 1090 1091 1190 991 "},"":{"ha":893,"x_min":0,"x_max":0,"o":"m 372 521 l 372 868 b 347 893 372 882 361 893 b 322 868 333 893 322 882 l 322 521 b 347 496 322 507 333 496 b 372 521 361 496 372 507 m 893 248 b 843 198 893 221 870 198 l 511 198 l 471 -176 b 447 -198 470 -188 460 -198 b 446 -198 447 -198 446 -198 b 422 -177 434 -198 424 -190 l 363 198 l 50 198 b 0 248 22 198 0 221 b 198 496 0 375 96 496 l 198 893 b 99 992 144 893 99 938 b 198 1091 99 1046 144 1091 l 694 1091 b 794 992 749 1091 794 1046 b 694 893 794 938 749 893 l 694 496 b 893 248 797 496 893 375 "},"":{"ha":1389,"x_min":0,"x_max":0,"o":"m 1091 223 b 868 0 1091 100 991 0 l 223 0 b 0 223 100 0 0 100 l 0 868 b 223 1091 0 991 100 1091 l 769 1091 b 794 1066 783 1091 794 1080 l 794 1017 b 769 992 794 1003 783 992 l 223 992 b 99 868 155 992 99 936 l 99 223 b 223 99 99 155 155 99 l 868 99 b 992 223 936 99 992 155 l 992 471 b 1017 496 992 485 1003 496 l 1066 496 b 1091 471 1080 496 1091 485 m 1389 744 b 1339 694 1389 717 1366 694 b 1304 709 1326 694 1314 700 l 1168 846 l 663 340 b 645 332 658 336 651 332 b 627 340 639 332 632 336 l 539 429 b 531 446 534 433 531 440 b 539 464 531 453 534 460 l 1044 970 l 908 1106 b 893 1141 898 1115 893 1128 b 942 1190 893 1168 915 1190 l 1339 1190 b 1389 1141 1366 1190 1389 1168 "},"":{"ha":1190,"x_min":0,"x_max":0,"o":"m 918 496 b 903 461 918 483 912 470 l 481 40 b 446 25 472 30 460 25 b 397 74 419 25 397 47 l 397 298 l 50 298 b 0 347 22 298 0 320 l 0 645 b 50 694 0 672 22 694 l 397 694 l 397 918 b 446 967 397 945 419 967 b 481 953 460 967 472 962 l 903 531 b 918 496 912 522 918 509 m 1190 223 b 967 0 1190 100 1090 0 l 719 0 b 694 25 706 0 694 12 b 719 99 694 47 684 99 l 967 99 b 1091 223 1035 99 1091 155 l 1091 769 b 967 893 1091 837 1035 893 l 744 893 b 694 918 725 893 694 889 b 719 992 694 939 684 992 l 967 992 b 1190 769 1090 992 1190 892 "},"":{"ha":1290,"x_min":0,"x_max":0,"o":"m 355 506 b 298 794 322 577 298 672 l 99 794 l 99 719 b 355 506 99 643 202 538 m 1190 719 l 1190 794 l 992 794 b 935 506 992 672 967 577 b 1190 719 1087 538 1190 643 m 1290 719 b 870 398 1290 572 1111 409 b 796 324 839 358 810 335 b 744 198 755 287 744 248 b 843 99 744 149 769 99 b 992 -25 918 99 992 50 l 992 -74 b 967 -99 992 -88 981 -99 l 322 -99 b 298 -74 308 -99 298 -88 l 298 -25 b 446 99 298 50 372 99 b 546 198 521 99 546 149 b 494 324 546 248 535 287 b 420 398 480 335 451 358 b 0 719 178 409 0 572 l 0 818 b 74 893 0 860 33 893 l 298 893 l 298 967 b 422 1091 298 1035 353 1091 l 868 1091 b 992 967 936 1091 992 1035 l 992 893 l 1215 893 b 1290 818 1256 893 1290 860 "},"":{"ha":1190,"x_min":0,"x_max":0,"o":"m 305 143 b 290 145 302 139 295 140 b 287 160 284 150 283 157 b 302 157 290 164 297 163 b 305 143 307 153 308 146 m 273 190 b 273 175 277 184 277 178 l 273 175 b 260 181 270 173 264 175 b 260 195 256 186 256 192 b 273 190 264 198 270 195 m 226 236 b 215 235 224 234 219 233 b 210 244 211 237 208 241 b 220 246 212 246 215 247 b 226 236 225 243 227 239 m 250 210 b 237 212 246 207 241 208 b 236 225 233 217 233 222 b 248 222 239 228 244 226 b 250 210 252 218 253 212 m 350 123 b 335 119 348 119 341 116 b 325 130 328 120 323 126 b 339 136 326 135 333 137 b 350 123 346 133 351 128 m 398 119 b 386 111 398 115 393 111 b 373 119 378 110 373 114 b 385 128 373 124 378 128 b 398 119 392 129 398 125 m 443 127 b 432 116 444 122 439 118 b 419 122 426 115 419 118 b 429 134 418 128 422 133 b 443 127 436 135 443 132 m 1190 124 b 967 -99 1190 1 1090 -99 l 794 -99 b 743 -62 769 -99 743 -99 b 743 123 743 -43 743 43 b 703 233 743 179 725 215 b 975 527 836 248 975 298 b 914 687 975 592 952 646 b 908 845 920 702 940 763 b 744 784 858 860 744 784 b 595 804 697 797 646 804 b 446 784 545 804 494 797 b 282 845 446 784 332 860 b 277 687 250 763 270 702 b 215 527 239 646 215 592 b 487 233 215 299 354 248 b 449 153 470 218 454 192 b 276 203 415 138 328 112 b 184 264 243 260 184 264 b 181 228 126 265 181 228 b 246 141 219 210 246 141 b 447 71 281 35 447 71 b 448 -62 447 21 448 -48 b 397 -99 448 -99 422 -99 l 223 -99 b 0 124 100 -99 0 1 l 0 868 b 223 1091 0 991 100 1091 l 967 1091 b 1190 868 1090 1091 1190 991 "},"":{"ha":1290,"x_min":0,"x_max":0,"o":"m 992 50 b 942 99 992 77 970 99 b 893 50 915 99 893 77 b 942 0 893 22 915 0 b 992 50 970 0 992 22 m 1190 50 b 1141 99 1190 77 1168 99 b 1091 50 1114 99 1091 77 b 1141 0 1091 22 1114 0 b 1190 50 1168 0 1190 22 m 1290 -25 b 1215 -99 1290 -66 1256 -99 l 74 -99 b 0 -25 33 -99 0 -66 l 0 223 b 74 298 0 264 33 298 l 405 298 b 546 198 426 240 481 198 l 744 198 b 884 298 808 198 863 240 l 1215 298 b 1290 223 1256 298 1290 264 m 1038 725 b 992 694 1030 707 1012 694 l 794 694 l 794 347 b 744 298 794 320 771 298 l 546 298 b 496 347 519 298 496 320 l 496 694 l 298 694 b 252 725 277 694 260 707 b 263 779 244 743 248 765 l 610 1126 b 645 1141 619 1136 632 1141 b 680 1126 657 1141 670 1136 l 1027 779 b 1038 725 1042 765 1046 743 "},"":{"ha":1190,"x_min":0,"x_max":0,"o":"m 1090 550 b 1071 713 1090 587 1084 682 b 1048 813 1056 750 1048 771 b 1056 918 1048 849 1056 884 b 1048 961 1056 933 1055 949 b 1038 962 1045 962 1041 962 b 947 955 1008 962 977 955 b 675 992 855 955 767 992 b 467 939 603 992 533 965 b 310 859 414 918 356 893 b 99 336 153 740 99 523 b 119 150 99 274 119 212 b 102 47 119 114 102 81 b 137 8 102 26 114 8 b 250 25 175 8 212 25 b 513 1 339 25 425 1 b 733 29 582 1 669 6 b 1090 550 937 101 1090 336 m 1190 552 b 766 -65 1190 294 1011 22 b 513 -99 689 -92 594 -99 b 250 -77 425 -99 338 -77 b 137 -99 213 -77 176 -99 b 2 43 60 -99 2 -30 b 19 148 2 80 19 112 b 0 336 19 211 0 272 b 250 938 0 556 67 799 b 430 1031 303 978 369 1007 b 675 1091 509 1063 589 1091 b 946 1054 767 1091 855 1054 b 1035 1062 975 1054 1004 1062 b 1155 918 1123 1062 1155 999 b 1147 813 1155 884 1147 848 b 1163 749 1147 785 1154 774 b 1190 552 1181 705 1190 601 "},"":{"ha":1091,"x_min":0,"x_max":0,"o":"m 1091 229 b 1067 122 1091 202 1079 147 b 973 40 1051 84 1008 59 b 829 0 927 15 880 0 b 625 53 756 0 691 29 b 490 118 578 71 532 91 b 118 490 358 199 199 358 b 53 625 91 532 71 578 b 0 829 29 691 0 756 b 40 973 0 880 15 927 b 122 1067 59 1008 84 1051 b 229 1091 147 1079 202 1091 b 246 1089 235 1091 240 1091 b 287 1030 262 1084 279 1046 b 361 898 312 986 336 941 b 397 829 374 877 397 853 b 257 670 397 781 257 712 b 287 604 257 649 276 622 b 604 287 365 463 463 365 b 670 257 622 276 649 257 b 829 397 712 257 781 397 b 898 361 853 397 877 374 b 1030 287 941 336 986 312 b 1089 246 1046 279 1084 262 b 1091 229 1091 240 1091 235 "},"":{"ha":1091,"x_min":0,"x_max":0,"o":"m 868 992 l 223 992 b 99 868 155 992 99 936 l 99 223 b 223 99 99 155 155 99 l 868 99 b 992 223 936 99 992 155 l 992 868 b 868 992 992 936 936 992 m 1091 223 b 868 0 1091 100 991 0 l 223 0 b 0 223 100 0 0 100 l 0 868 b 223 1091 0 991 100 1091 l 868 1091 l 868 1091 b 1091 868 991 1091 1091 991 "},"":{"ha":992,"x_min":0,"x_max":0,"o":"m 893 992 l 99 992 l 99 29 l 427 344 l 496 410 l 565 344 l 893 29 l 893 992 m 902 1091 b 936 1084 914 1091 925 1089 b 992 1004 970 1071 992 1039 l 992 5 b 936 -74 992 -29 970 -61 b 902 -81 925 -79 914 -81 b 838 -56 878 -81 856 -72 l 496 273 l 154 -56 b 90 -81 136 -72 114 -81 b 56 -74 78 -81 67 -79 b 0 5 22 -61 0 -29 l 0 1004 b 56 1084 0 1039 22 1071 b 90 1091 67 1089 78 1091 b 902 1091 114 1091 878 1091 "},"":{"ha":1190,"x_min":0,"x_max":0,"o":"m 992 266 b 991 278 992 270 992 274 b 851 362 986 292 873 350 b 801 388 836 370 818 388 b 686 286 767 388 716 286 b 637 308 670 286 651 300 b 407 538 535 365 464 436 b 385 587 399 552 385 571 b 487 701 385 617 487 667 b 461 752 487 719 470 737 b 377 891 449 773 391 887 b 365 893 374 893 369 893 b 287 876 345 893 305 884 b 198 701 236 853 198 755 b 237 554 198 649 219 602 b 653 138 299 384 484 200 b 801 99 701 120 749 99 b 975 188 854 99 952 136 b 992 266 983 206 992 246 m 1190 124 b 967 -99 1190 1 1090 -99 l 223 -99 b 0 124 100 -99 0 1 l 0 868 b 223 1091 0 991 100 1091 l 967 1091 b 1190 868 1090 1091 1190 991 "},"":{"ha":1290,"x_min":0,"x_max":0,"o":"m 1256 874 b 1130 745 1221 825 1179 780 b 1131 712 1131 734 1131 723 b 419 0 1131 381 879 0 b 34 112 277 0 145 41 b 95 109 54 110 74 109 b 405 216 212 109 319 149 b 171 390 295 219 203 291 b 219 386 187 388 202 386 b 284 395 241 386 264 389 b 84 640 170 418 84 519 b 84 643 84 641 84 643 b 197 612 117 625 156 613 b 85 820 129 656 85 733 b 119 946 85 867 98 909 b 636 684 243 794 428 695 b 629 742 632 703 629 722 b 880 992 629 880 741 992 b 1063 913 952 992 1017 962 b 1221 973 1119 924 1173 945 b 1111 836 1203 915 1163 867 b 1256 874 1162 841 1211 855 "},"":{"ha":794,"x_min":0,"x_max":0,"o":"m 743 977 l 622 977 b 508 865 526 977 508 931 l 508 718 l 736 718 l 705 489 l 508 489 l 508 -99 l 271 -99 l 271 489 l 74 489 l 74 718 l 271 718 l 271 887 b 567 1190 271 1084 391 1190 b 743 1181 650 1190 722 1184 "},"":{"ha":1190,"x_min":0,"x_max":0,"o":"m 1190 496 b 784 -69 1190 233 1020 10 b 743 -40 753 -74 743 -56 b 743 123 743 -21 743 43 b 703 233 743 179 725 215 b 975 527 836 248 975 298 b 914 687 975 592 952 646 b 908 845 920 702 940 763 b 744 784 858 860 744 784 b 595 804 697 797 646 804 b 446 784 545 804 494 797 b 282 845 446 784 332 860 b 277 687 250 763 270 702 b 215 527 239 646 215 592 b 487 233 215 299 354 248 b 449 153 470 218 454 192 b 276 203 415 138 328 112 b 184 264 243 260 184 264 b 181 228 126 265 181 228 b 246 141 219 210 246 141 b 447 71 281 35 447 71 b 448 -40 447 21 448 -26 b 407 -69 448 -56 437 -74 b 0 496 171 10 0 233 b 595 1091 0 825 267 1091 b 1190 496 924 1091 1190 825 "},"":{"ha":1290,"x_min":0,"x_max":0,"o":"m 1290 546 b 1240 496 1290 519 1267 496 l 1190 496 b 1141 546 1163 496 1141 519 l 1141 744 b 942 942 1141 853 1052 942 b 744 744 833 942 744 853 l 744 595 l 818 595 b 893 521 860 595 893 562 l 893 74 b 818 0 893 33 860 0 l 74 0 b 0 74 33 0 0 33 l 0 521 b 74 595 0 562 33 595 l 595 595 l 595 744 b 942 1091 595 935 751 1091 b 1290 744 1134 1091 1290 935 "},"":{"ha":1488,"x_min":0,"x_max":0,"o":"m 1364 1091 b 1488 967 1432 1091 1488 1035 l 1488 25 b 1364 -99 1488 -43 1432 -99 l 124 -99 b 0 25 56 -99 0 -43 l 0 967 b 124 1091 0 1035 56 1091 l 1364 1091 m 124 992 b 99 967 111 992 99 980 l 99 794 l 1389 794 l 1389 967 b 1364 992 1389 980 1377 992 l 124 992 m 1364 0 b 1389 25 1377 0 1389 12 l 1389 496 l 99 496 l 99 25 b 124 0 99 12 111 0 l 1364 0 m 198 198 l 397 198 l 397 99 l 198 99 m 496 198 l 794 198 l 794 99 l 496 99 "},"":{"ha":1091,"x_min":0,"x_max":0,"o":"m 298 149 b 149 0 298 67 231 0 b 0 149 67 0 0 67 b 149 298 0 231 67 298 b 298 149 231 298 298 231 m 694 53 b 681 16 695 40 691 26 b 645 0 672 5 659 0 l 540 0 b 491 45 515 0 494 19 b 45 491 469 281 281 469 b 0 540 19 494 0 515 l 0 645 b 16 681 0 659 5 672 b 50 694 25 690 37 694 b 53 694 51 694 52 694 b 491 491 219 681 374 609 b 694 53 609 374 681 219 m 1091 52 b 1077 16 1092 39 1087 26 b 1042 0 1068 5 1056 0 l 931 0 b 881 47 904 0 883 20 b 47 882 856 497 497 856 b 0 931 20 884 0 905 l 0 1042 b 16 1077 0 1056 5 1068 b 50 1091 25 1087 37 1091 b 52 1091 50 1091 51 1091 b 770 770 323 1077 578 963 b 1091 52 963 578 1077 323 "},"":{"ha":1190,"x_min":0,"x_max":0,"o":"m 806 248 b 744 186 806 214 778 186 b 682 248 710 186 682 214 b 744 310 682 282 710 310 b 806 248 778 310 806 282 m 1004 248 b 942 186 1004 214 977 186 b 880 248 908 186 880 214 b 942 310 880 282 908 310 b 1004 248 977 310 1004 282 m 1091 124 l 1091 372 b 1066 397 1091 385 1080 397 l 124 397 b 99 372 111 397 99 385 l 99 124 b 124 99 99 111 111 99 l 1066 99 b 1091 124 1080 99 1091 111 m 1053 496 l 931 870 b 898 893 927 883 912 893 l 292 893 b 260 870 278 893 264 883 l 138 496 m 1190 124 b 1066 0 1190 56 1135 0 l 124 0 b 0 124 56 0 0 56 l 0 372 b 12 430 0 393 6 411 l 165 900 b 292 992 183 954 235 992 l 898 992 b 1025 900 956 992 1008 954 l 1178 430 b 1190 372 1184 411 1190 393 "},"":{"ha":1389,"x_min":0,"x_max":0,"o":"m 1290 694 b 1389 595 1345 694 1389 650 b 1290 496 1389 540 1345 496 l 1290 198 b 1190 99 1290 144 1245 99 b 561 394 1053 214 830 371 b 498 193 469 363 437 255 b 595 -23 443 104 513 41 b 276 -53 547 -118 347 -119 b 219 397 231 84 164 222 l 124 397 b 0 521 56 397 0 453 l 0 670 b 124 794 0 738 56 794 l 496 794 b 1190 1091 794 794 1042 967 b 1290 992 1245 1091 1290 1046 l 1290 694 m 1190 966 b 595 700 988 811 792 722 l 595 491 b 1190 226 792 469 988 381 "},"":{"ha":1389,"x_min":0,"x_max":0,"o":"m 707 -124 b 694 -112 707 -117 701 -112 b 583 0 633 -112 583 -61 b 570 12 583 7 577 12 b 558 0 563 12 558 7 b 694 -136 558 -75 619 -136 b 707 -124 701 -136 707 -131 m 1198 99 b 992 744 1059 256 992 468 b 694 992 992 844 898 992 b 397 744 491 992 397 844 b 191 99 397 468 329 256 m 1339 99 b 1240 0 1339 45 1294 0 l 893 0 b 694 -198 893 -109 804 -198 b 496 0 585 -198 496 -109 l 149 0 b 50 99 95 0 50 45 b 298 744 164 196 298 370 b 626 1086 298 893 421 1056 b 620 1116 622 1095 620 1105 b 694 1190 620 1157 653 1190 b 769 1116 736 1190 769 1157 b 763 1086 769 1105 767 1095 b 1091 744 968 1056 1091 893 b 1339 99 1091 370 1225 196 "},"":{"ha":1190,"x_min":0,"x_max":0,"o":"m 1173 391 b 1189 337 1188 377 1194 357 b 1149 298 1184 318 1168 302 l 1003 260 l 1044 116 b 1029 62 1049 97 1044 76 b 975 47 1015 47 994 42 l 831 88 l 794 -57 b 754 -98 789 -77 773 -92 b 739 -99 749 -98 744 -99 b 700 -82 725 -99 710 -93 l 595 25 l 491 -82 b 436 -98 477 -97 456 -102 b 397 -57 416 -92 401 -77 l 360 88 l 215 47 b 161 62 196 42 175 47 b 146 116 146 76 141 97 l 188 260 l 42 298 b 2 337 22 302 7 318 b 17 391 -3 357 2 377 l 124 496 l 17 601 b 2 655 2 615 -3 636 b 42 694 7 674 22 690 l 188 732 l 146 876 b 161 930 141 895 146 916 b 215 945 175 945 196 950 l 360 904 l 397 1049 b 436 1089 401 1069 417 1084 b 491 1074 456 1094 477 1089 l 595 966 l 700 1074 b 754 1089 714 1089 734 1094 b 794 1049 773 1084 789 1069 l 831 904 l 975 945 b 1029 930 994 950 1015 945 b 1044 876 1044 916 1049 895 l 1003 732 l 1149 694 b 1189 655 1168 690 1184 674 b 1173 601 1194 636 1188 615 l 1066 496 "},"":{"ha":1389,"x_min":0,"x_max":0,"o":"m 198 149 b 149 198 198 176 176 198 b 99 149 122 198 99 176 b 149 99 99 122 122 99 b 198 149 176 99 198 122 m 1290 595 b 1190 694 1290 648 1242 694 l 744 694 b 818 893 744 743 818 794 b 694 992 818 967 760 992 b 625 884 673 992 633 902 b 596 834 615 867 606 850 b 509 722 570 793 541 757 b 322 595 460 665 405 595 l 298 595 l 298 99 l 322 99 b 741 0 458 99 591 0 b 887 129 828 0 887 36 b 884 173 887 144 886 159 b 934 270 916 191 934 235 b 920 324 934 289 929 308 b 961 416 946 349 961 380 b 934 496 961 441 950 477 l 1190 496 b 1290 595 1244 496 1290 542 m 1389 596 b 1190 397 1389 488 1299 397 l 1059 397 b 1031 305 1057 364 1047 333 b 1033 271 1032 294 1033 282 b 987 133 1033 222 1017 172 b 745 -99 988 -13 888 -99 b 495 -46 658 -99 576 -75 b 322 0 448 -29 371 0 l 99 0 b 0 99 44 0 0 44 l 0 595 b 99 694 0 650 44 694 l 322 694 b 435 787 360 694 412 761 b 512 887 463 818 489 850 b 694 1091 557 959 591 1091 b 918 893 818 1091 918 1024 b 901 794 918 859 912 825 l 1190 794 b 1389 596 1297 794 1389 703 "},"":{"ha":1389,"x_min":0,"x_max":0,"o":"m 1091 99 l 1091 595 l 1066 595 b 880 722 984 595 929 665 b 793 834 848 757 818 793 b 763 887 782 851 773 869 b 694 992 754 904 715 992 b 570 893 629 992 570 967 b 645 694 570 794 645 743 l 198 694 b 99 595 146 694 99 648 b 198 496 99 542 145 496 l 455 496 b 428 416 439 477 428 441 b 469 324 428 380 443 349 b 455 270 460 308 455 289 b 505 173 455 235 473 191 b 502 129 503 159 502 144 b 645 0 502 38 559 0 b 1066 99 799 0 931 99 m 1290 149 b 1240 198 1290 176 1267 198 b 1190 149 1213 198 1190 176 b 1240 99 1190 122 1213 99 b 1290 149 1267 99 1290 122 m 1389 99 b 1290 0 1389 44 1345 0 l 1066 0 b 894 -46 1018 0 941 -29 b 648 -99 815 -74 733 -99 b 402 129 505 -99 401 -19 l 403 133 b 356 271 372 172 356 222 b 358 305 356 282 357 294 b 329 397 342 333 332 364 l 198 397 b 0 596 90 397 0 488 b 198 794 0 703 91 794 l 488 794 b 471 893 477 825 471 859 b 694 1091 471 1024 571 1091 b 877 887 798 1091 832 959 b 954 787 900 850 926 818 b 1066 694 977 761 1029 694 l 1290 694 b 1389 595 1345 694 1389 650 "},"":{"ha":1190,"x_min":0,"x_max":0,"o":"m 992 -50 b 942 0 992 -22 970 0 b 893 -50 915 0 893 -22 b 942 -99 893 -77 915 -99 b 992 -50 970 -99 992 -77 m 1091 543 b 962 689 1091 630 1056 689 b 918 685 947 689 932 687 b 821 736 901 718 856 736 b 767 722 802 736 784 731 b 675 763 742 748 711 763 b 595 736 650 763 614 752 l 595 992 b 496 1091 595 1046 550 1091 b 397 992 443 1091 397 1044 l 397 546 b 198 620 348 546 298 620 b 99 496 124 620 99 562 b 207 426 99 474 189 435 b 257 398 224 417 241 408 b 370 311 298 372 334 343 b 496 124 426 261 496 206 l 496 99 l 992 99 l 992 124 b 1091 543 992 260 1091 392 m 1190 546 b 1137 297 1190 460 1166 377 b 1091 124 1120 250 1091 173 l 1091 -99 b 992 -198 1091 -154 1047 -198 l 496 -198 b 397 -99 441 -198 397 -154 l 397 124 b 305 236 397 161 330 214 b 205 314 273 264 241 291 b 0 496 133 359 0 392 b 198 719 0 619 67 719 b 298 702 233 719 266 714 l 298 992 b 495 1190 298 1099 388 1190 b 694 992 604 1190 694 1101 l 694 861 b 787 832 727 859 758 849 b 820 835 798 834 809 835 b 958 788 870 835 919 818 b 1190 546 1104 790 1190 690 "},"":{"ha":1190,"x_min":0,"x_max":0,"o":"m 1091 446 b 992 868 1091 601 992 732 l 992 893 l 496 893 l 496 868 b 370 681 496 786 426 731 b 257 594 334 649 298 620 b 205 565 240 584 222 574 b 99 496 187 556 99 517 b 198 372 99 430 124 372 b 397 446 298 372 348 446 l 397 0 b 496 -99 397 -52 443 -99 b 595 0 550 -99 595 -53 l 595 257 b 675 229 615 241 649 229 b 767 270 711 229 742 244 b 821 257 784 261 802 257 b 918 307 856 257 901 274 b 962 304 932 305 947 304 b 1091 446 1053 304 1091 360 m 992 1042 b 942 1091 992 1069 970 1091 b 893 1042 915 1091 893 1069 b 942 992 893 1015 915 992 b 992 1042 970 992 992 1015 m 1190 450 b 962 204 1190 307 1110 203 l 958 205 b 820 157 919 174 870 157 b 787 160 809 157 798 158 b 694 131 760 145 725 134 l 694 0 b 495 -198 694 -109 604 -198 b 298 0 388 -198 298 -107 l 298 290 b 198 273 267 277 231 273 b 0 496 68 273 0 373 b 205 678 0 600 133 633 b 305 756 241 701 273 728 b 397 868 330 778 397 831 l 397 1091 b 496 1190 397 1146 441 1190 l 992 1190 b 1091 1091 1047 1190 1091 1146 l 1091 868 b 1137 695 1091 819 1120 742 b 1190 450 1166 616 1190 535 "},"":{"ha":1190,"x_min":0,"x_max":0,"o":"m 992 446 l 992 546 b 942 595 992 573 970 595 l 553 595 l 700 742 b 715 777 709 751 715 763 b 700 811 715 790 709 802 l 629 882 b 594 896 620 891 608 896 b 560 882 581 896 569 891 l 279 601 l 208 531 b 195 496 199 522 195 509 b 208 461 195 483 199 470 l 279 391 l 560 110 b 594 96 569 101 581 96 b 629 110 608 96 620 101 l 700 181 b 714 215 709 190 714 202 b 700 250 714 229 709 241 l 553 397 l 942 397 b 992 446 970 397 992 419 m 1190 496 b 595 -99 1190 167 924 -99 b 0 496 267 -99 0 167 b 595 1091 0 825 267 1091 b 1190 496 924 1091 1190 825 "},"":{"ha":1190,"x_min":0,"x_max":0,"o":"m 996 496 b 982 531 996 509 991 522 l 911 601 l 631 882 b 596 896 622 891 609 896 b 561 882 583 896 570 891 l 491 811 b 477 777 481 802 477 790 b 491 742 477 763 481 751 l 637 595 l 248 595 b 198 546 221 595 198 573 l 198 446 b 248 397 198 419 221 397 l 637 397 l 491 250 b 476 215 481 241 476 229 b 491 181 476 202 481 190 l 561 110 b 596 96 570 101 583 96 b 631 110 609 96 622 101 l 911 391 l 982 461 b 996 496 991 470 996 483 m 1190 496 b 595 -99 1190 167 924 -99 b 0 496 267 -99 0 167 b 595 1091 0 825 267 1091 b 1190 496 924 1091 1190 825 "},"":{"ha":1190,"x_min":0,"x_max":0,"o":"m 995 497 b 981 532 995 510 991 522 l 701 812 l 630 883 b 595 897 621 892 608 897 b 560 883 582 897 570 892 l 490 812 l 209 532 b 195 497 200 522 195 510 b 209 462 195 484 200 471 l 280 391 b 315 377 289 382 301 377 b 350 391 328 377 340 382 l 496 538 l 496 149 b 546 99 496 122 519 99 l 645 99 b 694 149 672 99 694 122 l 694 538 l 841 391 b 876 377 850 382 863 377 b 911 391 889 377 901 382 l 981 462 b 995 497 991 471 995 484 m 1190 496 b 595 -99 1190 167 924 -99 b 0 496 267 -99 0 167 b 595 1091 0 825 267 1091 b 1190 496 924 1091 1190 825 "},"":{"ha":1190,"x_min":0,"x_max":0,"o":"m 995 495 b 981 530 995 508 991 521 l 911 601 b 876 615 901 610 889 615 b 841 601 863 615 850 610 l 694 454 l 694 843 b 645 893 694 870 672 893 l 546 893 b 496 843 519 893 496 870 l 496 454 l 350 601 b 315 615 340 610 328 615 b 280 601 301 615 289 610 l 209 530 b 195 495 200 521 195 508 b 209 460 195 482 200 470 l 490 180 l 560 109 b 595 95 570 100 582 95 b 630 109 608 95 621 100 l 701 180 l 981 460 b 995 495 991 470 995 482 m 1190 496 b 595 -99 1190 167 924 -99 b 0 496 267 -99 0 167 b 595 1091 0 825 267 1091 b 1190 496 924 1091 1190 825 "},"":{"ha":1190,"x_min":0,"x_max":0,"o":"m 595 1091 b 1190 496 924 1091 1190 825 b 595 -99 1190 167 924 -99 b 0 496 267 -99 0 167 b 595 1091 0 825 267 1091 m 808 687 b 790 673 801 683 798 674 b 800 691 794 674 798 687 b 817 702 805 696 811 699 b 857 711 830 708 843 709 b 897 703 870 715 887 715 b 915 722 894 705 913 722 b 939 732 922 726 934 725 b 940 749 940 734 940 749 b 922 770 927 747 922 760 b 917 764 922 770 920 767 b 898 769 918 776 903 767 b 877 799 880 773 882 786 b 862 815 873 806 865 808 b 850 831 859 820 857 830 b 836 815 846 832 837 815 b 820 811 829 819 825 814 b 807 807 815 808 811 809 b 794 818 821 811 801 819 b 793 838 805 821 799 832 b 797 838 794 838 795 838 b 767 856 795 845 773 851 b 715 863 760 860 722 868 b 717 835 705 858 717 842 b 708 815 718 825 708 823 b 726 787 708 802 732 805 b 701 765 722 776 708 773 b 708 738 695 757 702 743 b 695 724 715 733 698 725 b 669 749 682 718 672 737 b 656 772 667 757 666 767 b 634 771 652 773 637 776 b 602 791 629 783 613 787 b 557 794 587 797 574 797 b 543 815 563 795 556 819 b 546 839 546 823 545 832 b 556 857 548 846 551 852 b 569 879 557 860 574 878 b 608 887 582 877 597 877 b 625 914 615 894 618 906 b 658 910 635 925 647 911 b 664 934 674 909 673 926 b 660 954 674 933 666 952 b 641 944 653 956 627 949 b 608 926 638 946 619 907 b 597 947 605 930 604 946 b 584 935 591 947 587 940 b 557 953 588 946 563 953 b 551 974 569 961 560 970 b 520 975 545 978 525 981 b 543 950 505 957 536 955 b 550 939 546 949 555 943 b 529 930 545 937 531 933 b 528 908 525 923 535 915 b 515 935 521 915 521 927 b 488 931 522 926 488 931 b 450 935 477 931 458 923 b 453 952 448 938 448 956 b 436 966 446 957 441 963 b 363 934 411 957 387 946 b 373 935 367 933 369 933 b 391 944 379 937 384 941 b 423 949 398 947 415 956 b 427 953 424 951 426 953 b 443 934 432 947 438 941 b 419 935 436 937 426 935 b 402 925 414 933 405 932 b 406 911 405 922 408 915 b 374 932 396 918 388 930 b 357 931 368 932 362 932 b 175 759 283 890 220 830 b 184 753 178 756 181 753 b 199 739 192 750 184 728 b 202 725 204 736 205 730 b 236 704 202 725 233 705 b 252 687 241 699 250 694 b 244 674 253 682 249 676 b 230 684 243 675 232 687 b 239 660 228 680 230 659 b 229 601 226 659 232 611 b 230 601 229 601 230 601 b 251 559 228 591 236 555 b 273 519 241 556 269 521 b 301 497 283 512 295 507 b 320 461 309 486 309 470 b 336 428 317 452 336 441 b 332 426 334 427 333 427 b 356 405 336 415 350 415 b 366 388 359 399 356 384 b 347 436 367 405 356 422 b 334 458 343 443 338 450 b 326 481 330 465 329 474 b 345 472 329 481 346 474 b 378 419 339 457 370 429 b 389 394 381 417 398 394 b 418 370 399 394 413 378 b 428 332 425 359 423 344 b 467 302 432 316 454 309 b 498 285 477 297 487 289 b 532 287 514 279 518 284 b 570 259 552 290 554 267 b 613 250 581 253 602 246 b 631 215 608 249 629 217 b 659 191 638 205 651 201 b 664 198 661 193 663 195 b 684 175 661 190 676 174 b 694 200 692 177 694 194 b 656 214 679 192 665 198 b 653 239 655 218 643 239 b 656 262 668 239 658 251 b 639 289 655 273 644 280 b 614 290 634 280 618 282 b 612 281 614 288 612 284 b 600 281 608 281 604 280 b 605 312 601 291 602 302 b 601 352 608 326 634 353 b 581 336 589 351 584 346 b 567 314 577 327 578 319 b 530 316 560 311 537 312 b 505 367 515 325 505 352 b 505 426 505 388 515 407 b 520 442 510 430 515 438 b 532 449 525 445 530 439 b 526 453 530 450 527 453 b 570 453 538 448 560 461 b 587 455 576 449 583 447 b 584 473 587 457 581 467 b 607 466 587 460 595 457 b 632 458 612 461 624 463 b 653 456 641 453 643 444 b 662 437 659 446 660 446 b 677 403 664 429 669 407 b 687 429 693 393 689 420 b 686 456 687 430 687 456 b 684 494 661 461 670 481 b 712 508 687 495 705 501 b 724 535 719 514 728 525 b 732 542 728 535 731 538 b 719 550 730 543 721 550 b 721 562 725 553 724 557 b 732 578 729 567 725 575 b 749 589 741 567 758 580 b 780 605 757 600 775 594 b 789 625 791 601 783 616 b 811 636 794 632 804 632 b 824 647 811 635 830 646 b 843 671 837 646 863 660 b 829 683 846 678 836 681 b 846 684 835 684 842 681 b 841 697 856 691 849 694 b 808 687 830 700 816 693 m 681 8 b 953 154 787 26 882 79 b 934 160 949 159 940 157 b 915 167 928 163 923 165 b 889 195 917 182 900 188 b 858 208 879 203 873 212 b 844 199 856 208 841 202 b 816 216 834 208 829 212 b 783 222 804 220 795 236 b 777 200 777 215 780 206 b 778 228 767 208 786 219 b 745 216 769 239 753 221 b 732 206 740 212 735 211 b 723 188 728 201 726 194 b 707 198 721 195 708 193 b 714 141 710 179 710 160 b 705 104 716 130 714 112 b 682 73 695 95 684 86 b 691 53 680 64 683 55 b 680 20 692 41 679 33 b 681 8 680 19 680 12 "},"":{"ha":1290,"x_min":0,"x_max":0,"o":"m 298 50 b 248 99 298 77 275 99 b 198 50 221 99 198 77 b 248 0 198 22 221 0 b 298 50 275 0 298 22 m 797 375 l 268 -153 b 198 -182 250 -171 225 -182 b 128 -153 172 -182 146 -171 l 46 -70 b 16 0 27 -52 16 -26 b 46 71 16 26 27 52 l 574 598 b 797 375 614 497 695 415 m 1288 712 b 1270 630 1288 687 1279 655 b 942 397 1221 492 1089 397 b 595 744 751 397 595 553 b 942 1091 595 935 751 1091 b 1120 1042 999 1091 1073 1074 b 1132 1021 1128 1037 1132 1030 b 1120 999 1132 1012 1127 1004 l 893 868 l 893 694 l 1042 612 b 1263 739 1068 626 1248 739 b 1288 712 1279 739 1288 728 "},"":{"ha":1389,"x_min":0,"x_max":0,"o":"m 1290 99 l 1290 198 l 794 198 l 794 99 m 1290 496 l 1290 595 l 496 595 l 496 496 m 1290 893 l 1290 992 l 992 992 l 992 893 m 1389 50 b 1339 0 1389 22 1366 0 l 50 0 b 0 50 22 0 0 22 l 0 248 b 50 298 0 275 22 298 l 1339 298 b 1389 248 1366 298 1389 275 m 1389 446 b 1339 397 1389 419 1366 397 l 50 397 b 0 446 22 397 0 419 l 0 645 b 50 694 0 672 22 694 l 1339 694 b 1389 645 1366 694 1389 672 m 1389 843 b 1339 794 1389 816 1366 794 l 50 794 b 0 843 22 794 0 816 l 0 1042 b 50 1091 0 1069 22 1091 l 1339 1091 b 1389 1042 1366 1091 1389 1069 "},"":{"ha":1091,"x_min":0,"x_max":0,"o":"m 1087 962 b 1077 908 1095 943 1091 922 l 694 525 l 694 -50 b 664 -95 694 -70 682 -88 b 645 -99 658 -98 651 -99 b 610 -84 632 -99 619 -95 l 412 114 b 397 149 402 123 397 136 l 397 525 l 15 908 b 4 962 0 922 -4 943 b 50 992 12 980 29 992 l 1042 992 b 1087 962 1062 992 1080 980 "},"":{"ha":1389,"x_min":0,"x_max":0,"o":"m 893 992 l 893 1091 l 496 1091 l 496 992 m 1389 124 b 1265 0 1389 56 1333 0 l 124 0 b 0 124 56 0 0 56 l 0 496 l 521 496 l 521 372 b 570 322 521 345 543 322 l 818 322 b 868 372 846 322 868 345 l 868 496 l 1389 496 m 794 397 l 595 397 l 595 496 l 794 496 m 1389 570 l 0 570 l 0 868 b 124 992 0 936 56 992 l 397 992 l 397 1116 b 471 1190 397 1157 430 1190 l 918 1190 b 992 1116 959 1190 992 1157 l 992 992 l 1265 992 b 1389 868 1333 992 1389 936 "},"":{"ha":1190,"x_min":0,"x_max":0,"o":"m 719 496 l 994 221 l 1106 332 b 1160 343 1120 347 1142 351 b 1190 298 1178 336 1190 318 l 1190 -50 b 1141 -99 1190 -77 1168 -99 l 794 -99 b 748 -68 773 -99 756 -87 b 759 -15 740 -50 744 -29 l 870 97 l 595 372 l 320 97 l 432 -15 b 443 -68 446 -29 450 -50 b 397 -99 435 -87 417 -99 l 50 -99 b 0 -50 22 -99 0 -77 l 0 298 b 31 343 0 318 12 336 b 84 332 49 351 71 347 l 196 221 l 471 496 l 196 771 l 84 660 b 50 645 75 650 63 645 b 31 649 43 645 36 646 b 0 694 12 656 0 674 l 0 1042 b 50 1091 0 1069 22 1091 l 397 1091 b 443 1060 417 1091 435 1079 b 432 1007 450 1042 446 1021 l 320 895 l 595 620 l 870 895 l 759 1007 b 748 1060 744 1021 740 1042 b 794 1091 756 1079 773 1091 l 1141 1091 b 1190 1042 1168 1091 1190 1069 l 1190 694 b 1160 649 1190 674 1178 656 b 1141 645 1154 646 1147 645 b 1106 660 1128 645 1115 650 l 994 771 "},"≠":{"ha":1389,"x_min":0,"x_max":0,"o":""},"∞":{"ha":1389,"x_min":0,"x_max":0,"o":""},"":{"ha":1389,"x_min":0,"x_max":0,"o":""},"":{"ha":1488,"x_min":0,"x_max":0,"o":"m 460 496 b 254 397 379 494 306 459 l 150 397 b 0 520 73 397 0 434 b 96 794 0 583 -2 794 b 298 728 112 794 193 728 b 401 746 333 728 367 734 b 397 694 398 729 397 711 b 460 496 397 624 419 554 m 1290 2 b 1083 -198 1290 -123 1207 -198 l 405 -198 b 198 2 281 -198 198 -123 b 467 446 198 177 239 446 b 744 339 493 446 589 339 b 1022 446 899 339 995 446 b 1290 2 1249 446 1290 177 m 496 992 b 298 794 496 883 407 794 b 99 992 188 794 99 883 b 298 1190 99 1101 188 1190 b 496 992 407 1190 496 1101 m 1042 694 b 744 397 1042 530 908 397 b 446 694 580 397 446 530 b 744 992 446 859 580 992 b 1042 694 908 992 1042 859 m 1488 520 b 1338 397 1488 434 1415 397 l 1234 397 b 1028 496 1182 459 1109 494 b 1091 694 1069 554 1091 624 b 1087 746 1091 711 1090 729 b 1190 728 1121 734 1155 728 b 1392 794 1295 728 1376 794 b 1488 520 1490 794 1488 583 m 1389 992 b 1190 794 1389 883 1300 794 b 992 992 1081 794 992 883 b 1190 1190 992 1101 1081 1190 b 1389 992 1300 1190 1389 1101 "},"":{"ha":1290,"x_min":0,"x_max":0,"o":"m 1128 248 b 1107 301 1128 268 1121 287 l 946 462 b 893 484 932 476 912 484 b 837 459 870 484 853 475 b 893 372 863 433 893 412 b 818 298 893 331 860 298 b 732 353 779 298 757 328 b 706 297 715 338 706 320 b 728 244 706 277 714 258 l 887 84 b 940 63 901 70 921 63 b 993 83 960 63 979 70 l 1107 196 b 1128 248 1121 210 1128 229 m 584 794 b 562 847 584 814 576 833 l 402 1008 b 350 1029 388 1022 369 1029 b 297 1008 330 1029 311 1022 l 183 895 b 161 843 169 881 161 863 b 183 791 161 823 169 805 l 344 629 b 397 608 358 615 377 608 b 453 632 419 608 437 616 b 397 719 427 658 397 680 b 471 794 397 760 430 794 b 558 738 511 794 532 763 b 584 794 574 753 584 771 m 1277 248 b 1211 91 1277 189 1253 132 l 1097 -22 b 940 -87 1056 -64 999 -87 b 782 -21 880 -87 824 -64 l 622 140 b 558 297 581 181 558 238 b 626 459 558 358 583 416 l 558 527 b 397 459 515 484 458 459 b 239 524 338 459 281 482 l 78 685 b 12 843 35 728 12 784 b 78 1001 12 902 36 960 l 192 1114 b 350 1178 234 1156 291 1178 b 508 1112 409 1178 466 1155 l 667 952 b 732 794 709 910 732 853 b 663 632 732 733 707 675 l 732 564 b 893 632 774 608 832 632 b 1051 567 952 632 1009 609 l 1212 406 b 1277 248 1255 363 1277 308 "},"":{"ha":1488,"x_min":0,"x_max":0,"o":"m 1488 298 b 1190 0 1488 133 1355 0 l 347 0 b 0 347 156 0 0 156 b 200 661 0 486 82 606 b 198 694 199 672 198 684 b 595 1091 198 914 376 1091 b 963 845 761 1091 903 990 b 1091 893 997 875 1042 893 b 1290 694 1201 893 1290 804 b 1258 587 1290 655 1278 618 b 1488 298 1390 556 1488 439 "},"":{"ha":1290,"x_min":0,"x_max":0,"o":"m 1184 68 b 1091 -99 1242 -24 1201 -99 l 198 -99 b 106 68 89 -99 48 -24 l 496 683 l 496 992 l 446 992 b 397 1042 419 992 397 1015 b 446 1091 397 1069 419 1091 l 843 1091 b 893 1042 870 1091 893 1069 b 843 992 893 1015 870 992 l 794 992 l 794 683 l 1184 68 m 369 298 l 921 298 l 710 630 l 694 654 l 694 683 l 694 992 l 595 992 l 595 683 l 595 654 l 580 630 "},"":{"ha":1389,"x_min":0,"x_max":0,"o":"m 744 496 b 794 446 771 496 794 474 b 744 397 794 419 771 397 b 694 446 717 397 694 419 b 744 496 694 474 717 496 m 1370 138 b 1389 95 1383 128 1390 111 b 1362 55 1387 78 1376 63 l 1263 5 b 1240 0 1256 2 1248 0 b 1216 6 1232 0 1223 2 l 681 306 l 596 255 b 587 251 593 253 590 252 b 594 176 594 227 597 202 b 449 -34 587 96 534 20 b 234 -99 383 -76 307 -99 b 62 -39 164 -99 105 -78 b 1 122 18 2 -5 61 b 146 332 8 201 61 277 b 361 397 212 374 288 397 b 478 373 405 397 444 388 b 495 390 483 380 488 385 l 590 446 l 495 503 b 478 520 488 508 483 513 b 361 496 444 505 405 496 b 146 561 288 496 212 519 b 1 771 61 615 8 692 b 62 931 -5 832 18 891 b 234 992 105 971 164 992 b 449 927 307 992 383 969 b 594 717 534 873 587 797 b 587 642 597 691 594 666 b 596 638 590 641 593 639 l 681 587 l 1216 887 b 1240 893 1223 891 1232 893 b 1263 887 1248 893 1256 891 l 1362 838 b 1389 798 1376 830 1387 815 b 1370 755 1390 782 1383 765 l 977 446 m 449 648 b 383 822 496 691 467 770 b 234 868 336 853 281 868 b 146 840 198 868 167 859 b 212 666 99 797 129 718 b 361 620 260 636 314 620 b 449 648 397 620 429 629 m 383 71 b 449 245 467 123 496 202 b 361 273 429 264 397 273 b 212 227 314 273 260 257 b 146 53 129 174 99 96 b 234 25 167 34 198 25 b 383 71 281 25 336 40 m 595 501 l 595 509 b 621 553 595 527 605 543 l 632 559 l 570 595 l 550 575 b 533 557 544 569 539 563 b 528 553 531 555 529 554 l 521 546 m 769 347 l 1339 794 l 1240 843 l 645 509 l 645 422 l 521 347 l 528 341 b 533 336 529 339 531 338 b 550 318 539 330 544 324 l 570 298 l 694 372 m 1339 99 l 936 415 l 799 308 b 789 303 797 305 793 305 l 1240 50 "},"":{"ha":1389,"x_min":0,"x_max":0,"o":"m 1314 893 b 1389 818 1356 893 1389 860 l 1389 -124 b 1314 -198 1389 -165 1356 -198 l 570 -198 b 496 -124 529 -198 496 -165 l 496 99 l 74 99 b 0 174 33 99 0 133 l 0 694 b 53 822 0 736 24 793 l 369 1138 b 496 1190 398 1166 455 1190 l 818 1190 b 893 1116 860 1190 893 1157 l 893 862 b 992 893 923 880 962 893 l 1314 893 m 661 496 l 893 496 l 893 728 m 165 794 l 397 794 l 397 1025 m 794 769 l 794 1091 l 496 1091 l 496 769 b 422 694 496 728 463 694 l 99 694 l 99 198 l 496 198 l 496 397 b 549 524 496 438 520 495 m 1290 794 l 992 794 l 992 471 b 918 397 992 430 959 397 l 595 397 l 595 -99 l 1290 -99 "},"":{"ha":1091,"x_min":0,"x_max":0,"o":"m 1088 117 b 875 -96 1088 -4 996 -96 b 693 -19 807 -96 741 -67 l 91 583 b 3 793 36 639 3 715 b 297 1088 3 957 133 1088 b 508 1001 376 1088 452 1056 l 977 531 b 985 514 982 526 985 520 b 925 454 985 498 942 454 b 908 462 918 454 912 457 l 438 932 b 298 992 401 969 350 992 b 102 794 188 992 102 903 b 161 653 102 741 124 691 l 763 51 b 875 2 792 22 833 2 b 990 117 941 2 990 51 b 941 229 990 160 970 200 l 491 680 b 444 698 478 691 461 698 b 392 646 415 698 392 677 b 412 601 392 629 400 613 l 729 283 b 737 266 734 278 737 272 b 677 205 737 250 693 205 b 660 213 670 205 664 208 l 342 531 b 293 646 311 561 293 604 b 445 798 293 732 360 798 b 560 749 488 798 530 780 l 1011 299 b 1088 117 1059 251 1088 185 "},"":{"ha":1190,"x_min":0,"x_max":0,"o":"m 893 0 l 893 298 l 298 298 l 298 0 m 1091 0 l 1091 694 b 1068 751 1091 709 1078 741 l 850 969 b 794 992 839 980 809 992 l 794 670 b 719 595 794 629 760 595 l 273 595 b 198 670 232 595 198 629 l 198 992 l 99 992 l 99 0 l 198 0 l 198 322 b 273 397 198 363 232 397 l 918 397 b 992 322 959 397 992 363 l 992 0 m 694 719 l 694 967 b 670 992 694 980 683 992 l 521 992 b 496 967 508 992 496 980 l 496 719 b 521 694 496 706 508 694 l 670 694 b 694 719 683 694 694 706 m 1190 -25 b 1116 -99 1190 -66 1157 -99 l 74 -99 b 0 -25 33 -99 0 -66 l 0 1017 b 74 1091 0 1058 33 1091 l 794 1091 b 921 1039 835 1091 891 1068 l 1138 822 b 1190 694 1167 792 1190 736 "},"":{"ha":1190,"x_min":0,"x_max":0,"o":"m 1190 124 b 967 -99 1190 1 1090 -99 l 223 -99 b 0 124 100 -99 0 1 l 0 868 b 223 1091 0 991 100 1091 l 967 1091 b 1190 868 1090 1091 1190 991 "},"":{"ha":1190,"x_min":0,"x_max":0,"o":"m 1190 50 b 1141 0 1190 22 1168 0 l 50 0 b 0 50 22 0 0 22 l 0 149 b 50 198 0 176 22 198 l 1141 198 b 1190 149 1168 198 1190 176 m 1190 446 b 1141 397 1190 419 1168 397 l 50 397 b 0 446 22 397 0 419 l 0 546 b 50 595 0 573 22 595 l 1141 595 b 1190 546 1168 595 1190 573 m 1190 843 b 1141 794 1190 816 1168 794 l 50 794 b 0 843 22 794 0 816 l 0 942 b 50 992 0 970 22 992 l 1141 992 b 1190 942 1168 992 1190 970 "},"":{"ha":1389,"x_min":0,"x_max":0,"o":"m 298 99 b 149 -50 298 17 231 -50 b 0 99 67 -50 0 17 b 149 248 0 181 67 248 b 298 99 231 248 298 181 m 298 496 b 149 347 298 414 231 347 b 0 496 67 347 0 414 b 149 645 0 578 67 645 b 298 496 231 645 298 578 m 1389 25 b 1364 0 1389 12 1377 0 l 422 0 b 397 25 408 0 397 12 l 397 174 b 422 198 397 187 408 198 l 1364 198 b 1389 174 1377 198 1389 187 m 298 893 b 149 744 298 811 231 744 b 0 893 67 744 0 811 b 149 1042 0 975 67 1042 b 298 893 231 1042 298 975 m 1389 422 b 1364 397 1389 408 1377 397 l 422 397 b 397 422 408 397 397 408 l 397 570 b 422 595 397 584 408 595 l 1364 595 b 1389 570 1377 595 1389 584 m 1389 818 b 1364 794 1389 805 1377 794 l 422 794 b 397 818 408 794 397 805 l 397 967 b 422 992 397 980 408 992 l 1364 992 b 1389 967 1377 992 1389 980 "},"":{"ha":1389,"x_min":0,"x_max":0,"o":"m 295 -65 b 148 -198 295 -150 229 -198 b 15 -147 99 -198 50 -182 l 59 -79 b 141 -114 80 -98 112 -114 b 197 -70 168 -114 197 -101 b 115 -26 197 -26 147 -24 l 95 17 b 182 122 123 53 149 92 l 182 123 b 107 122 157 123 132 122 l 107 81 l 25 81 l 25 198 l 283 198 l 283 130 l 209 41 b 295 -65 261 29 295 -12 m 297 298 l 16 298 b 12 339 14 312 12 326 b 187 570 12 483 187 505 b 145 610 187 596 171 610 b 82 565 118 610 95 587 l 16 611 b 153 694 42 664 95 694 b 288 575 226 694 288 652 b 117 374 288 460 119 435 l 215 374 l 215 421 l 297 421 m 1389 25 b 1364 0 1389 12 1377 0 l 422 0 b 397 25 408 0 397 12 l 397 174 b 422 198 397 188 408 198 l 1364 198 b 1389 174 1377 198 1389 188 m 298 794 l 38 794 l 38 870 l 121 870 b 122 1059 121 933 122 996 l 122 1068 l 120 1068 b 81 1026 112 1051 96 1039 l 26 1085 l 132 1184 l 214 1184 l 214 870 l 298 870 m 1389 422 b 1364 397 1389 408 1377 397 l 422 397 b 397 422 408 397 397 408 l 397 570 b 422 595 397 584 408 595 l 1364 595 b 1389 570 1377 595 1389 584 m 1389 818 b 1364 794 1389 805 1377 794 l 422 794 b 397 818 408 794 397 805 l 397 967 b 422 992 397 980 408 992 l 1364 992 b 1389 967 1377 992 1389 980 "},"":{"ha":1389,"x_min":0,"x_max":0,"o":"m 1364 496 b 1389 471 1378 496 1389 485 l 1389 422 b 1364 397 1389 408 1378 397 l 25 397 b 0 422 11 397 0 408 l 0 471 b 25 496 0 485 11 496 l 1364 496 m 374 546 b 335 608 360 564 346 585 b 298 753 310 658 298 707 b 401 993 298 848 332 927 b 706 1091 470 1059 572 1091 b 836 1077 736 1091 778 1086 b 973 1039 870 1070 915 1058 b 989 948 978 1019 984 988 b 1000 806 996 887 1000 839 b 996 771 1000 795 998 784 l 987 769 l 922 773 l 911 775 b 831 934 884 853 857 906 b 668 1004 785 981 730 1004 b 527 959 609 1004 562 989 b 475 846 492 929 475 891 b 526 737 475 808 492 772 b 742 637 560 702 632 669 b 877 586 780 626 824 609 b 950 546 904 573 929 560 l 374 546 m 1086 347 b 1091 276 1090 326 1091 301 b 1059 112 1091 220 1081 165 b 1004 31 1048 83 1030 57 b 920 -32 986 13 958 -8 b 801 -83 881 -55 842 -73 b 644 -99 760 -94 708 -99 b 493 -81 601 -99 550 -98 l 384 -50 b 329 -29 354 -42 336 -35 b 322 -12 326 -26 322 -20 l 322 -2 b 321 119 322 5 324 45 b 322 201 319 158 322 185 l 322 235 l 401 236 b 452 117 430 171 443 131 b 514 44 470 87 491 63 b 595 0 536 26 563 11 b 698 -17 626 -12 661 -17 b 805 4 730 -17 767 -10 b 900 71 845 17 877 40 b 936 171 924 102 936 135 b 873 292 936 214 915 254 b 767 347 856 307 821 326 "},"":{"ha":1190,"x_min":0,"x_max":0,"o":"m 37 1018 b 2 1021 23 1018 12 1018 l 0 1089 b 31 1090 10 1090 20 1090 b 118 1087 58 1090 88 1089 b 246 1081 191 1083 234 1081 b 377 1084 291 1081 334 1082 b 490 1087 419 1085 457 1087 b 556 1089 522 1087 545 1088 l 556 1078 l 557 1028 l 557 1022 b 461 1015 526 1017 494 1015 b 400 995 430 1015 410 1008 b 390 893 393 987 390 953 b 391 848 390 874 391 860 l 391 670 l 402 453 b 442 297 405 391 418 339 b 516 226 460 267 484 243 b 653 189 563 201 608 189 b 801 211 706 189 756 196 b 878 250 829 219 854 232 b 929 300 902 268 919 284 b 970 388 949 331 962 361 b 986 566 980 426 986 485 b 964 884 986 705 976 708 l 961 929 b 942 997 959 963 953 986 b 883 1024 925 1015 905 1025 l 805 1022 l 794 1025 l 796 1091 l 861 1091 l 1020 1084 b 1172 1091 1073 1081 1123 1086 l 1186 1090 b 1190 1050 1189 1070 1190 1057 b 1187 1026 1190 1043 1189 1035 b 1122 1016 1166 1021 1145 1017 b 1061 1003 1086 1011 1065 1007 b 1049 971 1054 996 1049 986 b 1052 926 1049 961 1051 946 b 1069 619 1052 926 1058 912 b 1057 384 1073 502 1065 423 b 1025 289 1049 344 1039 312 b 939 194 1005 255 976 223 b 798 125 901 165 854 142 b 600 99 741 108 675 99 b 380 135 515 99 441 111 b 241 229 319 159 272 191 b 177 381 210 268 188 319 b 164 564 168 423 164 484 l 164 822 b 151 987 164 920 160 975 b 37 1018 139 1005 101 1016 m 1190 -25 b 1166 0 1190 -11 1180 0 l 25 0 b 0 -25 11 0 0 -11 l 0 -74 b 25 -99 0 -88 11 -99 l 1166 -99 b 1190 -74 1180 -99 1190 -88 "},"":{"ha":1290,"x_min":0,"x_max":0,"o":"m 397 124 l 397 273 b 372 298 397 287 386 298 l 124 298 b 99 273 110 298 99 287 l 99 124 b 124 99 99 110 110 99 l 372 99 b 397 124 386 99 397 110 m 397 422 l 397 570 b 372 595 397 584 386 595 l 124 595 b 99 570 110 595 99 584 l 99 422 b 124 397 99 408 110 397 l 372 397 b 397 422 386 397 397 408 m 794 124 l 794 273 b 769 298 794 287 783 298 l 521 298 b 496 273 507 298 496 287 l 496 124 b 521 99 496 110 507 99 l 769 99 b 794 124 783 99 794 110 m 397 719 l 397 868 b 372 893 397 882 386 893 l 124 893 b 99 868 110 893 99 882 l 99 719 b 124 694 99 705 110 694 l 372 694 b 397 719 386 694 397 705 m 794 422 l 794 570 b 769 595 794 584 783 595 l 521 595 b 496 570 507 595 496 584 l 496 422 b 521 397 496 408 507 397 l 769 397 b 794 422 783 397 794 408 m 1190 124 l 1190 273 b 1166 298 1190 287 1180 298 l 918 298 b 893 273 904 298 893 287 l 893 124 b 918 99 893 110 904 99 l 1166 99 b 1190 124 1180 99 1190 110 m 794 719 l 794 868 b 769 893 794 882 783 893 l 521 893 b 496 868 507 893 496 882 l 496 719 b 521 694 496 705 507 694 l 769 694 b 794 719 783 694 794 705 m 1190 422 l 1190 570 b 1166 595 1190 584 1180 595 l 918 595 b 893 570 904 595 893 584 l 893 422 b 918 397 893 408 904 397 l 1166 397 b 1190 422 1180 397 1190 408 m 1190 719 l 1190 868 b 1166 893 1190 882 1180 893 l 918 893 b 893 868 904 893 893 882 l 893 719 b 918 694 893 705 904 694 l 1166 694 b 1190 719 1180 694 1190 705 m 1290 124 b 1166 0 1290 56 1234 0 l 124 0 b 0 124 56 0 0 56 l 0 967 b 124 1091 0 1035 56 1091 l 1166 1091 b 1290 967 1234 1091 1290 1035 "},"":{"ha":1290,"x_min":0,"x_max":0,"o":"m 1149 967 l 1066 1050 l 839 823 l 922 740 m 1269 967 b 1255 932 1269 954 1264 942 l 258 -64 b 223 -78 249 -74 236 -78 b 188 -64 210 -78 198 -74 l 35 89 b 21 124 26 98 21 111 b 35 159 21 137 26 150 l 1032 1156 b 1066 1170 1041 1165 1053 1170 b 1101 1156 1080 1170 1092 1165 l 1255 1002 b 1269 967 1264 993 1269 980 m 298 1091 l 222 1068 l 198 992 l 175 1068 l 99 1091 l 175 1115 l 198 1190 l 222 1115 m 645 942 l 493 896 l 446 744 l 400 896 l 248 942 l 400 989 l 446 1141 l 493 989 m 1290 595 l 1214 572 l 1190 496 l 1167 572 l 1091 595 l 1167 618 l 1190 694 l 1214 618 m 794 1091 l 718 1068 l 694 992 l 671 1068 l 595 1091 l 671 1115 l 694 1190 l 718 1115 "},"":{"ha":1389,"x_min":0,"x_max":0,"o":"m 496 99 b 397 198 496 153 451 198 b 298 99 343 198 298 153 b 397 0 298 45 343 0 b 496 99 451 0 496 45 m 496 496 l 496 694 l 374 694 b 357 687 370 694 359 690 l 205 536 b 198 519 203 534 198 522 l 198 496 m 1190 99 b 1091 198 1190 153 1146 198 b 992 99 1037 198 992 153 b 1091 0 992 45 1037 0 b 1190 99 1146 0 1190 45 m 1389 149 b 1290 99 1389 91 1328 99 b 1091 -99 1290 -10 1201 -99 b 893 99 982 -99 893 -10 l 595 99 b 397 -99 595 -10 506 -99 b 198 99 288 -99 198 -10 l 149 99 b 50 149 110 99 50 91 b 99 198 50 176 72 198 l 99 446 b 134 605 99 501 91 563 l 288 759 b 372 794 307 778 344 794 l 496 794 l 496 942 b 546 992 496 970 519 992 l 1339 992 b 1389 942 1366 992 1389 970 "},"":{"ha":1190,"x_min":0,"x_max":0,"o":"m 1190 496 b 595 -99 1190 167 924 -99 b 426 -74 536 -99 481 -91 b 487 53 449 -39 474 7 b 529 216 487 53 494 79 b 674 142 549 177 609 142 b 995 550 865 142 995 316 b 618 891 995 726 846 891 b 193 519 336 891 193 688 b 315 291 193 417 232 326 b 344 307 328 286 340 291 b 357 354 347 317 353 343 b 348 388 360 370 359 374 b 308 505 324 416 308 453 b 601 790 308 655 421 790 b 849 561 761 790 849 692 b 660 245 849 390 773 245 b 567 360 598 245 552 296 b 619 570 584 435 619 516 b 539 660 619 619 593 660 b 424 506 475 660 424 594 b 443 412 424 506 424 450 b 367 88 378 136 367 88 b 357 -50 356 43 355 -8 b 0 496 146 43 0 252 b 595 1091 0 825 267 1091 b 1190 496 924 1091 1190 825 "},"":{"ha":1190,"x_min":0,"x_max":0,"o":"m 967 1091 b 1190 868 1090 1091 1190 991 l 1190 124 b 967 -99 1190 1 1090 -99 l 405 -99 b 489 64 431 -63 473 0 b 530 226 489 64 496 90 b 674 152 551 186 611 152 b 992 556 863 152 992 325 b 619 893 992 730 844 893 b 198 525 339 893 198 692 b 319 300 198 424 237 334 b 349 315 332 295 345 300 b 360 362 351 325 357 351 b 352 395 364 377 363 382 b 313 511 329 423 313 459 b 603 792 313 660 425 792 b 848 567 761 792 848 696 b 661 253 848 397 773 253 b 568 367 600 253 553 305 b 620 576 586 442 620 522 b 541 664 620 624 594 664 b 428 512 478 664 428 599 b 446 419 428 512 428 457 b 370 98 382 146 370 98 b 365 -99 353 26 360 -57 l 223 -99 b 0 124 100 -99 0 1 l 0 868 b 223 1091 0 991 100 1091 l 967 1091 "},"":{"ha":1190,"x_min":0,"x_max":0,"o":"m 643 246 b 489 131 643 161 563 131 b 306 262 409 131 306 166 b 505 389 306 363 425 389 b 529 388 513 389 521 389 b 643 246 577 353 643 313 m 585 669 b 488 561 585 610 552 561 b 358 751 400 561 358 677 b 454 865 358 809 388 865 b 585 669 543 865 585 742 m 736 918 l 530 918 b 267 698 402 918 267 839 b 439 531 267 601 343 531 b 473 533 450 531 462 532 b 463 491 467 519 463 506 b 494 419 463 462 476 441 b 295 370 427 414 352 405 b 214 239 249 341 214 295 b 439 86 214 124 345 86 b 712 288 558 86 712 146 b 560 515 712 426 560 450 b 677 721 560 577 677 593 b 603 868 677 789 647 823 l 667 868 m 992 521 l 992 570 l 893 570 l 893 670 l 843 670 l 843 570 l 744 570 l 744 521 l 843 521 l 843 397 l 893 397 l 893 521 m 1190 124 b 967 -99 1190 1 1090 -99 l 223 -99 b 0 124 100 -99 0 1 l 0 868 b 223 1091 0 991 100 1091 l 967 1091 b 1190 868 1090 1091 1190 991 "},"":{"ha":1290,"x_min":0,"x_max":0,"o":"m 570 574 b 809 219 570 471 809 437 b 772 84 809 171 795 125 b 377 -99 692 -51 525 -99 b 53 40 261 -99 118 -69 b 25 141 35 70 25 105 b 151 346 25 229 79 301 b 464 424 242 403 360 417 b 415 538 437 460 415 491 b 432 604 415 563 422 582 b 379 601 414 602 397 601 b 107 865 228 601 107 711 b 212 1090 107 950 147 1034 b 522 1190 295 1162 414 1190 l 846 1190 l 739 1122 l 637 1122 b 753 895 709 1061 753 993 b 570 574 753 694 570 672 m 457 648 b 568 694 495 648 541 667 b 609 818 600 729 609 772 b 402 1127 609 932 542 1127 b 288 1071 359 1127 314 1105 b 251 947 260 1036 251 991 b 457 648 251 831 317 648 m 458 -29 b 699 153 573 -29 699 19 b 520 375 699 257 595 321 b 483 377 508 377 495 377 b 169 177 357 377 169 336 b 458 -29 169 26 332 -29 m 1251 650 l 1251 567 l 1086 567 l 1086 397 l 1004 397 l 1004 567 l 840 567 l 840 650 l 1004 650 l 1004 818 l 1086 818 l 1086 650 "},"":{"ha":1488,"x_min":0,"x_max":0,"o":"m 893 298 l 893 372 l 794 372 l 794 719 l 705 719 l 591 613 l 650 551 b 693 595 669 567 680 576 l 694 595 l 694 372 l 595 372 l 595 298 m 992 496 b 744 174 992 355 907 174 b 496 496 581 174 496 355 b 744 818 496 637 581 818 b 992 496 907 818 992 637 m 1389 298 l 1389 694 b 1190 893 1280 694 1190 784 l 298 893 b 99 694 298 784 208 694 l 99 298 b 298 99 208 298 298 208 l 1190 99 b 1389 298 1190 208 1280 298 m 1488 50 b 1438 0 1488 22 1466 0 l 50 0 b 0 50 22 0 0 22 l 0 942 b 50 992 0 970 22 992 l 1438 992 b 1488 942 1466 992 1488 970 "},"":{"ha":794,"x_min":0,"x_max":0,"o":"m 794 645 b 779 610 794 632 788 619 l 432 263 b 397 248 422 253 410 248 b 362 263 384 248 371 253 l 15 610 b 0 645 5 619 0 632 b 50 694 0 672 22 694 l 744 694 b 794 645 771 694 794 672 "},"":{"ha":794,"x_min":0,"x_max":0,"o":"m 794 248 b 744 198 794 221 771 198 l 50 198 b 0 248 22 198 0 221 b 15 283 0 261 5 274 l 362 630 b 397 645 371 639 384 645 b 432 630 410 645 422 639 l 779 283 b 794 248 788 274 794 261 "},"":{"ha":496,"x_min":0,"x_max":0,"o":"m 496 149 b 446 99 496 122 474 99 b 412 114 433 99 421 105 l 64 461 b 50 496 55 470 50 483 b 64 531 50 509 55 522 l 412 878 b 446 893 421 887 433 893 b 496 843 474 893 496 870 "},"":{"ha":496,"x_min":0,"x_max":0,"o":"m 446 496 b 432 461 446 483 441 470 l 84 114 b 50 99 75 105 63 99 b 0 149 22 99 0 122 l 0 843 b 50 893 0 870 22 893 b 84 878 63 893 75 887 l 432 531 b 446 496 441 522 446 509 "},"":{"ha":1290,"x_min":0,"x_max":0,"o":"m 595 0 l 595 893 l 99 893 l 99 25 b 124 0 99 12 111 0 m 1190 25 l 1190 893 l 694 893 l 694 0 l 1166 0 b 1190 25 1179 0 1190 12 m 1290 25 b 1166 -99 1290 -43 1234 -99 l 124 -99 b 0 25 56 -99 0 -43 l 0 967 b 124 1091 0 1035 56 1091 l 1166 1091 b 1290 967 1234 1091 1290 1035 "},"":{"ha":794,"x_min":0,"x_max":0,"o":"m 794 347 b 779 312 794 334 788 322 l 432 -35 b 397 -50 422 -44 410 -50 b 362 -35 384 -50 371 -44 l 15 312 b 0 347 5 322 0 334 b 50 397 0 374 22 397 l 744 397 b 794 347 771 397 794 374 m 794 645 b 744 595 794 618 771 595 l 50 595 b 0 645 22 595 0 618 b 15 680 0 658 5 670 l 362 1027 b 397 1042 371 1036 384 1042 b 432 1027 410 1042 422 1036 l 779 680 b 794 645 788 670 794 658 "},"":{"ha":794,"x_min":0,"x_max":0,"o":"m 794 347 b 779 312 794 334 788 322 l 432 -35 b 397 -50 422 -44 410 -50 b 362 -35 384 -50 371 -44 l 15 312 b 0 347 5 322 0 334 b 50 397 0 374 22 397 l 744 397 b 794 347 771 397 794 374 "},"":{"ha":794,"x_min":0,"x_max":0,"o":"m 794 645 b 744 595 794 618 771 595 l 50 595 b 0 645 22 595 0 618 b 15 680 0 658 5 670 l 362 1027 b 397 1042 371 1036 384 1042 b 432 1027 410 1042 422 1036 l 779 680 b 794 645 788 670 794 658 "},"":{"ha":1389,"x_min":0,"x_max":0,"o":"m 1389 25 b 1265 -99 1389 -43 1333 -99 l 124 -99 b 0 25 56 -99 0 -43 l 0 640 b 78 573 23 615 50 592 b 463 305 207 485 337 398 b 694 198 529 257 609 198 l 694 198 l 695 198 b 925 305 780 198 860 257 b 1311 573 1052 397 1182 485 b 1389 640 1339 592 1366 615 m 1389 868 b 1256 656 1389 781 1325 703 b 894 404 1135 572 1014 488 b 695 298 843 369 758 298 l 694 298 l 694 298 b 495 404 631 298 546 369 b 133 656 375 488 253 572 b 0 851 78 693 0 780 b 124 992 0 927 41 992 l 1265 992 b 1389 868 1332 992 1389 936 "},"":{"ha":1190,"x_min":0,"x_max":0,"o":"m 270 -62 l 15 -62 l 15 706 l 270 706 m 287 943 b 143 811 288 870 232 811 l 143 811 l 141 811 b 0 943 55 811 0 870 b 144 1076 0 1018 57 1076 b 287 943 232 1076 286 1018 m 1190 -62 l 935 -62 l 935 349 b 806 522 935 452 898 522 b 675 429 736 522 694 475 b 667 367 669 412 667 390 l 667 -62 l 412 -62 l 412 -62 b 412 706 415 634 412 706 l 667 706 l 667 594 l 665 594 b 897 724 698 647 759 724 b 1190 378 1065 724 1190 614 "},"":{"ha":1190,"x_min":0,"x_max":0,"o":"m 1190 496 b 595 -99 1190 168 923 -99 b 137 115 418 -99 250 -21 b 139 149 129 126 130 140 l 245 256 b 264 263 250 260 257 263 b 282 253 271 262 278 259 b 595 99 358 155 472 99 b 992 496 814 99 992 277 b 595 893 992 715 814 893 b 326 787 494 893 398 854 l 432 680 b 443 626 446 666 450 644 b 397 595 435 608 417 595 l 50 595 b 0 645 22 595 0 618 l 0 992 b 31 1038 0 1012 12 1030 b 84 1027 49 1046 71 1042 l 185 927 b 595 1091 295 1030 443 1091 b 1190 496 923 1091 1190 824 "},"":{"ha":1389,"x_min":0,"x_max":0,"o":"m 1373 0 b 1344 -70 1373 -26 1362 -52 l 1261 -153 b 1190 -182 1242 -171 1217 -182 b 1121 -153 1164 -182 1139 -171 l 839 129 b 810 198 821 146 810 172 b 843 273 810 228 822 252 l 645 471 l 547 374 b 521 363 540 367 531 363 b 494 374 511 363 501 367 b 539 298 518 350 539 333 b 518 245 539 277 532 260 b 422 180 491 217 463 180 b 369 202 402 180 383 188 l 53 518 b 31 570 39 532 31 551 b 96 667 31 612 68 640 b 149 688 111 680 129 688 b 225 643 184 688 202 667 b 214 670 218 650 214 660 b 225 696 214 680 218 689 l 494 966 b 521 977 501 973 511 977 b 547 966 531 977 540 973 b 502 1042 524 989 502 1006 b 524 1094 502 1062 510 1080 b 620 1159 550 1122 578 1159 b 673 1138 639 1159 659 1152 l 989 822 b 1011 769 1003 808 1011 788 b 946 673 1011 727 973 699 b 893 651 931 659 913 651 b 817 696 857 651 840 673 b 828 670 824 689 828 680 b 817 643 828 660 824 650 l 719 546 l 918 347 b 992 381 939 368 963 381 b 1063 352 1018 381 1044 370 l 1344 71 b 1373 0 1362 52 1373 26 "},"":{"ha":1389,"x_min":0,"x_max":0,"o":"m 298 298 b 198 397 298 353 253 397 b 99 298 143 397 99 353 b 198 198 99 243 143 198 b 298 298 253 198 298 243 m 446 645 b 347 744 446 700 402 744 b 248 645 292 744 248 700 b 347 546 248 590 292 546 b 446 645 402 546 446 590 m 856 568 b 821 629 863 594 847 622 l 821 629 b 760 593 794 636 767 619 l 682 297 b 550 187 621 292 567 250 b 656 5 529 107 577 26 b 839 111 736 -16 818 32 b 778 272 855 174 829 237 m 1290 298 b 1190 397 1290 353 1246 397 b 1091 298 1135 397 1091 353 b 1190 198 1091 243 1135 198 b 1290 298 1246 198 1290 243 m 794 794 b 694 893 794 849 749 893 b 595 794 639 893 595 849 b 694 694 595 739 639 694 b 794 794 749 694 794 739 m 1141 645 b 1042 744 1141 700 1097 744 b 942 645 987 744 942 700 b 1042 546 942 590 987 546 b 1141 645 1097 546 1141 590 m 1389 298 b 1280 -77 1389 164 1351 36 b 1238 -99 1270 -91 1255 -99 l 151 -99 b 109 -77 134 -99 119 -91 b 0 298 38 35 0 164 b 694 992 0 680 312 992 b 1389 298 1077 992 1389 680 "},"":{"ha":1389,"x_min":0,"x_max":0,"o":"m 694 893 b 99 496 372 893 99 711 b 311 195 99 381 177 270 l 378 156 l 357 81 b 303 -52 343 26 323 -16 b 516 81 381 -19 453 25 l 550 110 l 594 105 b 694 99 627 102 661 99 b 1290 496 1017 99 1290 281 b 694 893 1290 711 1017 893 m 1389 496 b 694 0 1389 222 1078 0 b 582 6 656 0 618 2 b 226 -181 481 -84 360 -147 b 137 -198 198 -189 167 -195 b 133 -198 136 -198 134 -198 b 100 -169 118 -198 104 -186 b 100 -168 100 -168 100 -168 b 121 -123 96 -149 109 -137 b 262 108 170 -68 226 -22 b 0 496 102 198 0 339 b 694 992 0 770 311 992 l 694 992 b 1389 496 1078 992 1389 770 "},"":{"ha":1389,"x_min":0,"x_max":0,"o":"m 546 893 b 99 595 304 893 99 756 b 256 370 99 510 157 428 l 331 327 l 304 262 b 352 292 320 271 336 281 l 386 316 l 427 308 b 546 298 466 301 505 298 b 992 595 787 298 992 434 b 546 893 992 756 787 893 m 546 992 b 1091 595 847 992 1091 815 b 546 198 1091 376 847 198 b 409 211 498 198 453 203 b 194 112 345 165 272 132 b 127 99 173 106 150 102 b 125 99 126 99 126 99 b 100 122 113 99 102 109 b 100 122 100 122 100 122 b 115 156 97 136 107 146 b 206 284 146 190 180 220 b 0 595 81 357 0 470 b 546 992 0 815 244 992 m 1183 86 b 1273 -43 1209 22 1243 -9 b 1289 -77 1282 -53 1292 -62 b 1289 -77 1289 -77 1289 -77 b 1262 -99 1286 -91 1274 -101 b 1195 -87 1239 -96 1216 -92 b 980 12 1117 -67 1044 -33 b 843 0 936 5 891 0 b 477 102 703 0 574 39 b 546 99 500 101 523 99 b 990 234 712 99 870 147 b 1190 595 1119 329 1190 457 b 1173 713 1190 636 1184 675 b 1389 397 1304 641 1389 526 b 1183 86 1389 270 1308 159 "},"":{"ha":694,"x_min":0,"x_max":0,"o":"m 686 752 b 691 718 694 742 697 729 l 273 -179 b 240 -198 267 -191 254 -198 b 229 -197 237 -198 233 -198 b 206 -159 212 -191 202 -175 l 359 467 l 44 389 b 35 388 41 388 38 388 b 11 397 26 388 17 391 b 1 427 2 405 -2 416 l 157 1066 b 191 1091 160 1081 174 1091 l 445 1091 l 445 1091 b 480 1059 464 1091 480 1077 b 476 1045 480 1054 478 1049 l 343 686 l 650 762 b 660 763 653 763 656 763 b 686 752 670 763 679 759 "},"":{"ha":1389,"x_min":0,"x_max":0,"o":"m 1389 -25 b 1314 -99 1389 -66 1356 -99 l 1066 -99 b 992 -25 1025 -99 992 -66 l 992 223 b 1066 298 992 264 1025 298 l 1141 298 l 1141 446 l 744 446 l 744 298 l 818 298 b 893 223 860 298 893 264 l 893 -25 b 818 -99 893 -66 860 -99 l 570 -99 b 496 -25 529 -99 496 -66 l 496 223 b 570 298 496 264 529 298 l 645 298 l 645 446 l 248 446 l 248 298 l 322 298 b 397 223 363 298 397 264 l 397 -25 b 322 -99 397 -66 363 -99 l 74 -99 b 0 -25 33 -99 0 -66 l 0 223 b 74 298 0 264 33 298 l 149 298 l 149 446 b 248 546 149 501 194 546 l 645 546 l 645 694 l 570 694 b 496 769 529 694 496 728 l 496 1017 b 570 1091 496 1058 529 1091 l 818 1091 b 893 1017 860 1091 893 1058 l 893 769 b 818 694 893 728 860 694 l 744 694 l 744 546 l 1141 546 b 1240 446 1195 546 1240 501 l 1240 298 l 1314 298 b 1389 223 1356 298 1389 264 "},"":{"ha":1290,"x_min":0,"x_max":0,"o":"m 694 99 b 496 -99 694 -9 604 -99 b 298 99 388 -99 298 -9 b 347 149 298 126 320 149 b 397 99 374 149 397 126 b 496 0 397 47 444 0 b 595 99 548 0 595 47 l 595 549 b 645 557 612 554 628 557 b 694 549 662 557 678 554 m 1290 528 b 1265 503 1290 515 1278 503 b 1247 511 1258 503 1252 506 b 1096 582 1202 553 1160 582 b 917 478 1022 582 959 536 b 892 438 908 465 901 451 b 870 425 887 429 880 425 b 848 438 860 425 853 429 b 823 478 839 451 832 465 b 645 582 781 536 718 582 b 467 478 571 582 508 536 b 442 438 457 465 450 451 b 419 425 436 429 430 425 b 398 438 409 425 403 429 b 373 478 389 451 382 465 b 194 582 331 536 267 582 b 43 511 129 582 88 553 b 25 503 37 506 32 503 b 0 528 12 503 0 515 b 1 533 0 530 0 532 b 645 992 72 826 355 992 b 1289 533 933 992 1219 826 b 1290 528 1290 532 1290 530 m 694 1015 b 645 1017 678 1016 661 1017 b 595 1015 629 1017 612 1016 l 595 1091 b 645 1141 595 1118 618 1141 b 694 1091 672 1141 694 1118 "},"":{"ha":1389,"x_min":0,"x_max":0,"o":"m 1290 -99 l 1290 397 l 967 397 b 893 471 926 397 893 430 l 893 794 l 595 794 l 595 -99 m 794 1017 l 794 1066 b 769 1091 794 1080 782 1091 l 223 1091 b 198 1066 210 1091 198 1080 l 198 1017 b 223 992 198 1004 210 992 l 769 992 b 794 1017 782 992 794 1004 m 1224 496 l 992 728 l 992 496 m 1389 -124 b 1314 -198 1389 -165 1356 -198 l 570 -198 b 496 -124 529 -198 496 -165 l 496 0 l 74 0 b 0 74 33 0 0 33 l 0 1116 b 74 1190 0 1157 33 1190 l 918 1190 b 992 1116 959 1190 992 1157 l 992 862 b 1020 840 1002 856 1011 849 l 1336 524 b 1389 397 1366 494 1389 438 "},"":{"ha":794,"x_min":0,"x_max":0,"o":"m 570 744 b 546 719 570 731 559 719 b 521 744 532 719 521 731 b 397 818 521 798 438 818 b 372 843 384 818 372 830 b 397 868 372 856 384 868 b 570 744 469 868 570 830 m 694 744 b 397 992 694 899 537 992 b 99 744 257 992 99 899 b 152 605 99 694 119 643 b 199 553 167 587 184 571 b 308 322 254 488 301 410 l 485 322 b 594 553 493 410 539 488 b 642 605 610 571 627 587 b 694 744 674 643 694 694 m 794 744 b 714 536 794 664 767 595 b 584 312 660 477 590 395 b 620 248 606 298 620 274 b 601 198 620 229 613 212 b 620 149 613 185 620 167 b 585 86 620 123 607 100 b 595 50 591 75 595 62 b 511 -25 595 -1 556 -25 b 397 -99 491 -70 446 -99 b 283 -25 348 -99 303 -70 b 198 50 238 -25 198 -1 b 208 86 198 62 202 75 b 174 149 187 100 174 123 b 193 198 174 167 181 185 b 174 248 181 212 174 229 b 210 312 174 274 188 298 b 80 536 204 395 133 477 b 0 744 26 595 0 664 b 397 1091 0 955 201 1091 b 794 744 593 1091 794 955 "},"":{"ha":1389,"x_min":0,"x_max":0,"o":"m 1389 124 b 1364 99 1389 111 1377 99 l 298 99 l 298 -50 b 273 -74 298 -63 287 -74 b 254 -67 266 -74 260 -71 l 7 181 b 0 198 2 186 0 192 b 7 216 0 205 2 212 l 255 464 b 273 471 260 469 267 471 b 298 446 286 471 298 460 l 298 298 l 1364 298 b 1389 273 1377 298 1389 287 m 1389 694 b 1382 677 1389 688 1387 681 l 1134 429 b 1116 422 1129 424 1122 422 b 1091 446 1103 422 1091 433 l 1091 595 l 25 595 b 0 620 12 595 0 607 l 0 769 b 25 794 0 782 12 794 l 1091 794 l 1091 942 b 1116 967 1091 956 1102 967 b 1135 960 1123 967 1129 964 l 1382 712 b 1389 694 1387 708 1389 701 "},"":{"ha":1488,"x_min":0,"x_max":0,"o":"m 992 471 b 967 496 992 485 981 496 l 794 496 l 794 769 b 769 794 794 782 782 794 l 620 794 b 595 769 607 794 595 782 l 595 496 l 422 496 b 397 471 408 496 397 484 b 404 453 397 465 399 458 l 677 181 b 694 174 681 176 687 174 b 712 181 701 174 708 176 l 984 453 b 992 471 989 458 992 464 m 1488 298 b 1190 0 1488 133 1355 0 l 347 0 b 0 347 156 0 0 156 b 200 661 0 482 78 605 b 198 694 199 673 198 684 b 595 1091 198 914 376 1091 b 963 845 756 1091 901 994 b 1091 893 998 876 1044 893 b 1290 694 1201 893 1290 804 b 1258 587 1290 656 1279 619 b 1488 298 1393 556 1488 436 "},"":{"ha":1488,"x_min":0,"x_max":0,"o":"m 992 521 b 985 539 992 527 990 534 l 712 811 b 694 818 708 816 701 818 b 677 811 688 818 681 816 l 405 539 b 397 521 400 534 397 528 b 422 496 397 507 408 496 l 595 496 l 595 223 b 620 198 595 210 607 198 l 769 198 b 794 223 782 198 794 210 l 794 496 l 967 496 b 992 521 981 496 992 508 m 1488 298 b 1190 0 1488 133 1355 0 l 347 0 b 0 347 156 0 0 156 b 200 661 0 482 78 605 b 198 694 199 673 198 684 b 595 1091 198 914 376 1091 b 963 845 756 1091 901 994 b 1091 893 998 876 1044 893 b 1290 694 1201 893 1290 804 b 1258 587 1290 656 1279 619 b 1488 298 1393 556 1488 436 "},"":{"ha":1091,"x_min":0,"x_max":0,"o":"m 298 149 b 248 99 298 122 275 99 b 198 149 221 99 198 122 b 248 198 198 176 221 198 b 298 149 275 198 298 176 m 1091 102 b 884 -99 1091 -25 1008 -99 l 207 -99 b 0 102 83 -99 0 -25 b 215 539 0 256 31 499 b 198 446 203 510 198 478 l 198 289 b 99 149 139 268 99 212 b 248 0 99 67 166 0 b 397 149 330 0 397 67 b 298 289 397 212 357 268 l 298 446 b 317 519 298 472 300 498 b 546 438 382 467 463 438 b 774 519 629 438 709 467 b 794 446 791 498 794 472 l 794 397 b 595 198 684 397 595 308 l 595 129 b 570 74 580 115 570 95 b 645 0 570 33 604 0 b 719 74 686 0 719 33 b 694 129 719 95 710 115 l 694 198 b 794 298 694 253 739 298 b 893 198 848 298 893 253 l 893 129 b 868 74 877 115 868 95 b 942 0 868 33 901 0 b 1017 74 984 0 1017 33 b 992 129 1017 95 1008 115 l 992 198 b 893 370 992 269 954 335 b 876 539 893 426 898 487 b 1091 102 1060 499 1091 256 m 843 794 b 546 496 843 629 710 496 b 248 794 381 496 248 629 b 546 1091 248 958 381 1091 b 843 794 710 1091 843 958 "},"":{"ha":1091,"x_min":0,"x_max":0,"o":"m 992 645 b 942 694 992 672 970 694 b 893 645 915 694 893 672 b 942 595 893 618 915 595 b 992 645 970 595 992 618 m 1091 645 b 992 505 1091 580 1050 525 l 992 198 b 645 -99 992 34 836 -99 b 298 198 453 -99 298 34 l 298 301 b 0 595 129 322 0 446 l 0 992 b 50 1042 0 1019 22 1042 b 62 1040 54 1042 58 1041 b 149 1091 79 1070 112 1091 b 248 992 204 1091 248 1047 b 149 893 248 937 204 893 b 99 907 131 893 114 898 l 99 595 b 347 397 99 486 211 397 b 595 595 484 397 595 486 l 595 907 b 546 893 581 898 563 893 b 446 992 491 893 446 937 b 546 1091 446 1047 491 1091 b 632 1040 583 1091 615 1070 b 645 1042 636 1041 640 1042 b 694 992 672 1042 694 1019 l 694 595 b 397 301 694 446 565 322 l 397 198 b 645 0 397 89 508 0 b 893 198 781 0 893 89 l 893 505 b 794 645 835 525 794 580 b 942 794 794 727 860 794 b 1091 645 1025 794 1091 727 "},"":{"ha":1389,"x_min":0,"x_max":0,"o":"m 893 893 l 893 992 l 496 992 l 496 893 m 223 -99 l 174 -99 b 0 74 78 -99 0 -21 l 0 719 b 174 893 0 815 78 893 l 223 893 m 1091 -99 l 298 -99 l 298 893 l 397 893 l 397 1017 b 471 1091 397 1058 430 1091 l 918 1091 b 992 1017 959 1091 992 1058 l 992 893 l 1091 893 m 1389 74 b 1215 -99 1389 -21 1311 -99 l 1166 -99 l 1166 893 l 1215 893 b 1389 719 1311 893 1389 815 "},"":{"ha":1389,"x_min":0,"x_max":0,"o":"m 707 -124 b 694 -112 707 -117 701 -112 b 583 0 633 -112 583 -61 b 570 12 583 7 577 12 b 558 0 563 12 558 7 b 694 -136 558 -75 619 -136 b 707 -124 701 -136 707 -131 m 1339 99 b 1240 0 1339 45 1294 0 l 893 0 b 694 -198 893 -109 804 -198 b 496 0 585 -198 496 -109 l 149 0 b 50 99 95 0 50 45 b 298 744 164 196 298 370 b 626 1086 298 893 421 1056 b 620 1116 622 1095 620 1105 b 694 1190 620 1157 653 1190 b 769 1116 736 1190 769 1157 b 763 1086 769 1105 767 1095 b 1091 744 968 1056 1091 893 b 1339 99 1091 370 1225 196 "},"":{"ha":1488,"x_min":0,"x_max":0,"o":"m 1290 694 b 1141 843 1290 777 1223 843 l 1091 843 l 1091 546 l 1141 546 b 1290 694 1223 546 1290 612 m 1389 99 b 1190 -99 1389 -10 1300 -99 l 198 -99 b 0 99 89 -99 0 -10 m 1438 694 b 1141 397 1438 530 1305 397 l 1091 397 l 1091 372 b 918 198 1091 277 1013 198 l 372 198 b 198 372 277 198 198 277 l 198 942 b 248 992 198 970 221 992 l 1141 992 b 1438 694 1305 992 1438 859 "},"":{"ha":1091,"x_min":0,"x_max":0,"o":"m 496 645 b 397 505 496 582 456 525 l 397 -99 b 298 -198 397 -153 352 -198 l 198 -198 b 99 -99 144 -198 99 -153 l 99 505 b 0 645 40 525 0 582 l 0 1141 b 50 1190 0 1168 22 1190 b 99 1141 77 1190 99 1168 l 99 818 b 149 769 99 791 122 769 b 198 818 176 769 198 791 l 198 1141 b 248 1190 198 1168 221 1190 b 298 1141 275 1190 298 1168 l 298 818 b 347 769 298 791 320 769 b 397 818 374 769 397 791 l 397 1141 b 446 1190 397 1168 419 1190 b 496 1141 474 1190 496 1168 m 1091 -99 b 992 -198 1091 -153 1046 -198 l 893 -198 b 794 -99 839 -198 794 -153 l 794 298 l 620 298 b 595 322 607 298 595 309 l 595 942 b 843 1190 595 1079 707 1190 l 1042 1190 b 1091 1141 1069 1190 1091 1168 "},"":{"ha":1190,"x_min":0,"x_max":0,"o":"m 1138 896 b 1190 769 1166 867 1190 810 l 1190 -124 b 1116 -198 1190 -165 1157 -198 l 74 -198 b 0 -124 33 -198 0 -165 l 0 1116 b 74 1190 0 1157 33 1190 l 769 1190 b 896 1138 810 1190 867 1166 l 1138 896 m 794 794 l 1085 794 b 1068 825 1080 807 1073 820 l 825 1068 b 794 1085 820 1073 807 1080 m 1091 694 l 769 694 b 694 769 728 694 694 728 l 694 1091 l 99 1091 l 99 -99 l 1091 -99 m 298 570 b 322 595 298 584 308 595 l 868 595 b 893 570 882 595 893 584 l 893 521 b 868 496 893 507 882 496 l 322 496 b 298 521 308 496 298 507 l 298 570 m 868 397 b 893 372 882 397 893 386 l 893 322 b 868 298 893 308 882 298 l 322 298 b 298 322 308 298 298 308 l 298 372 b 322 397 298 386 308 397 l 868 397 m 868 198 b 893 174 882 198 893 188 l 893 124 b 868 99 893 110 882 99 l 322 99 b 298 124 308 99 298 110 l 298 174 b 322 198 298 188 308 198 l 868 198 "},"":{"ha":1091,"x_min":0,"x_max":0,"o":"m 298 124 b 273 99 298 111 286 99 l 223 99 b 198 124 210 99 198 111 l 198 174 b 223 198 198 187 210 198 l 273 198 b 298 174 286 198 298 187 m 298 322 b 273 298 298 309 286 298 l 223 298 b 198 322 210 298 198 309 l 198 372 b 223 397 198 385 210 397 l 273 397 b 298 372 286 397 298 385 m 496 322 b 471 298 496 309 484 298 l 422 298 b 397 322 408 298 397 309 l 397 372 b 422 397 397 385 408 397 l 471 397 b 496 372 484 397 496 385 m 298 521 b 273 496 298 508 286 496 l 223 496 b 198 521 210 496 198 508 l 198 570 b 223 595 198 584 210 595 l 273 595 b 298 570 286 595 298 584 m 893 124 b 868 99 893 111 881 99 l 818 99 b 794 124 805 99 794 111 l 794 174 b 818 198 794 187 805 198 l 868 198 b 893 174 881 198 893 187 m 694 322 b 670 298 694 309 683 298 l 620 298 b 595 322 607 298 595 309 l 595 372 b 620 397 595 385 607 397 l 670 397 b 694 372 683 397 694 385 m 496 521 b 471 496 496 508 484 496 l 422 496 b 397 521 408 496 397 508 l 397 570 b 422 595 397 584 408 595 l 471 595 b 496 570 484 595 496 584 m 298 719 b 273 694 298 706 286 694 l 223 694 b 198 719 210 694 198 706 l 198 769 b 223 794 198 782 210 794 l 273 794 b 298 769 286 794 298 782 m 893 322 b 868 298 893 309 881 298 l 818 298 b 794 322 805 298 794 309 l 794 372 b 818 397 794 385 805 397 l 868 397 b 893 372 881 397 893 385 m 694 521 b 670 496 694 508 683 496 l 620 496 b 595 521 607 496 595 508 l 595 570 b 620 595 595 584 607 595 l 670 595 b 694 570 683 595 694 584 m 496 719 b 471 694 496 706 484 694 l 422 694 b 397 719 408 694 397 706 l 397 769 b 422 794 397 782 408 794 l 471 794 b 496 769 484 794 496 782 m 298 918 b 273 893 298 904 286 893 l 223 893 b 198 918 210 893 198 904 l 198 967 b 223 992 198 980 210 992 l 273 992 b 298 967 286 992 298 980 m 893 521 b 868 496 893 508 881 496 l 818 496 b 794 521 805 496 794 508 l 794 570 b 818 595 794 584 805 595 l 868 595 b 893 570 881 595 893 584 m 694 719 b 670 694 694 706 683 694 l 620 694 b 595 719 607 694 595 706 l 595 769 b 620 794 595 782 607 794 l 670 794 b 694 769 683 794 694 782 m 496 918 b 471 893 496 904 484 893 l 422 893 b 397 918 408 893 397 904 l 397 967 b 422 992 397 980 408 992 l 471 992 b 496 967 484 992 496 980 m 893 719 b 868 694 893 706 881 694 l 818 694 b 794 719 805 694 794 706 l 794 769 b 818 794 794 782 805 794 l 868 794 b 893 769 881 794 893 782 m 694 918 b 670 893 694 904 683 893 l 620 893 b 595 918 607 893 595 904 l 595 967 b 620 992 595 980 607 992 l 670 992 b 694 967 683 992 694 980 m 893 918 b 868 893 893 904 881 893 l 818 893 b 794 918 805 893 794 904 l 794 967 b 818 992 794 980 805 992 l 868 992 b 893 967 881 992 893 980 m 992 -99 l 992 1091 l 99 1091 l 99 -99 l 397 -99 l 397 74 b 422 99 397 88 408 99 l 670 99 b 694 74 683 99 694 88 l 694 -99 m 1091 -149 b 1042 -198 1091 -176 1069 -198 l 50 -198 b 0 -149 22 -198 0 -176 l 0 1141 b 50 1190 0 1168 22 1190 l 1042 1190 b 1091 1141 1069 1190 1091 1168 "},"":{"ha":1091,"x_min":0,"x_max":0,"o":"m 298 124 b 273 99 298 111 286 99 l 223 99 b 198 124 210 99 198 111 l 198 174 b 223 198 198 187 210 198 l 273 198 b 298 174 286 198 298 187 m 298 322 b 273 298 298 309 286 298 l 223 298 b 198 322 210 298 198 309 l 198 372 b 223 397 198 385 210 397 l 273 397 b 298 372 286 397 298 385 m 496 322 b 471 298 496 309 484 298 l 422 298 b 397 322 408 298 397 309 l 397 372 b 422 397 397 385 408 397 l 471 397 b 496 372 484 397 496 385 m 298 521 b 273 496 298 508 286 496 l 223 496 b 198 521 210 496 198 508 l 198 570 b 223 595 198 584 210 595 l 273 595 b 298 570 286 595 298 584 m 893 124 b 868 99 893 111 881 99 l 818 99 b 794 124 805 99 794 111 l 794 174 b 818 198 794 187 805 198 l 868 198 b 893 174 881 198 893 187 m 694 322 b 670 298 694 309 683 298 l 620 298 b 595 322 607 298 595 309 l 595 372 b 620 397 595 385 607 397 l 670 397 b 694 372 683 397 694 385 m 496 521 b 471 496 496 508 484 496 l 422 496 b 397 521 408 496 397 508 l 397 570 b 422 595 397 584 408 595 l 471 595 b 496 570 484 595 496 584 m 893 322 b 868 298 893 309 881 298 l 818 298 b 794 322 805 298 794 309 l 794 372 b 818 397 794 385 805 397 l 868 397 b 893 372 881 397 893 385 m 694 521 b 670 496 694 508 683 496 l 620 496 b 595 521 607 496 595 508 l 595 570 b 620 595 595 584 607 595 l 670 595 b 694 570 683 595 694 584 m 893 521 b 868 496 893 508 881 496 l 818 496 b 794 521 805 496 794 508 l 794 570 b 818 595 794 584 805 595 l 868 595 b 893 570 881 595 893 584 m 992 -99 l 992 794 l 794 794 l 794 769 b 719 694 794 728 760 694 l 372 694 b 298 769 331 694 298 728 l 298 794 l 99 794 l 99 -99 l 397 -99 l 397 74 b 422 99 397 88 408 99 l 670 99 b 694 74 683 99 694 88 l 694 -99 m 694 818 l 694 1066 b 670 1091 694 1080 683 1091 l 620 1091 b 595 1066 607 1091 595 1080 l 595 992 l 496 992 l 496 1066 b 471 1091 496 1080 484 1091 l 422 1091 b 397 1066 408 1091 397 1080 l 397 818 b 422 794 397 805 408 794 l 471 794 b 496 818 484 794 496 805 l 496 893 l 595 893 l 595 818 b 620 794 595 805 607 794 l 670 794 b 694 818 683 794 694 805 m 1091 -149 b 1042 -198 1091 -176 1069 -198 l 50 -198 b 0 -149 22 -198 0 -176 l 0 843 b 50 893 0 870 22 893 l 298 893 l 298 1116 b 372 1190 298 1157 331 1190 l 719 1190 b 794 1116 760 1190 794 1157 l 794 893 l 1042 893 b 1091 843 1069 893 1091 870 "},"":{"ha":1488,"x_min":0,"x_max":0,"o":"m 496 99 b 397 198 496 154 452 198 b 298 99 342 198 298 154 b 397 0 298 44 342 0 b 496 99 452 0 496 44 m 496 496 l 496 694 l 374 694 b 357 687 369 694 360 691 l 205 536 b 198 519 203 532 199 524 l 198 496 m 1190 99 b 1091 198 1190 154 1146 198 b 992 99 1036 198 992 154 b 1091 0 992 44 1036 0 b 1190 99 1146 0 1190 44 m 1290 620 l 1290 769 b 1265 794 1290 783 1279 794 l 1091 794 l 1091 967 b 1066 992 1091 981 1080 992 l 918 992 b 893 967 904 992 893 981 l 893 794 l 719 794 b 694 769 705 794 694 783 l 694 620 b 719 595 694 606 705 595 l 893 595 l 893 422 b 918 397 893 408 904 397 l 1066 397 b 1091 422 1080 397 1091 408 l 1091 595 l 1265 595 b 1290 620 1279 595 1290 606 m 1488 149 b 1438 99 1488 122 1466 99 l 1290 99 b 1091 -99 1290 -10 1201 -99 b 893 99 982 -99 893 -10 l 595 99 b 397 -99 595 -10 507 -99 b 198 99 287 -99 198 -10 l 99 99 b 50 149 72 99 50 122 b 99 198 50 176 72 198 l 99 521 b 134 605 99 548 115 586 l 288 759 b 372 794 307 778 345 794 l 496 794 l 496 1042 b 546 1091 496 1069 519 1091 l 1438 1091 b 1488 1042 1466 1091 1488 1069 "},"":{"ha":1389,"x_min":0,"x_max":0,"o":"m 992 322 l 992 471 b 967 496 992 485 981 496 l 794 496 l 794 670 b 769 694 794 684 783 694 l 620 694 b 595 670 606 694 595 684 l 595 496 l 422 496 b 397 471 408 496 397 485 l 397 322 b 422 298 397 308 408 298 l 595 298 l 595 124 b 620 99 595 110 606 99 l 769 99 b 794 124 783 99 794 110 l 794 298 l 967 298 b 992 322 981 298 992 308 m 893 893 l 893 992 l 496 992 l 496 893 m 198 -99 l 174 -99 b 0 74 78 -99 0 -21 l 0 719 b 174 893 0 815 78 893 l 198 893 m 1116 -99 l 273 -99 l 273 893 l 397 893 l 397 1017 b 471 1091 397 1058 430 1091 l 918 1091 b 992 1017 959 1091 992 1058 l 992 893 l 1116 893 m 1389 74 b 1215 -99 1389 -21 1311 -99 l 1190 -99 l 1190 893 l 1215 893 b 1389 719 1311 893 1389 815 "},"":{"ha":1488,"x_min":0,"x_max":0,"o":"m 1488 446 b 1265 372 1488 446 1488 422 l 992 347 l 818 298 l 769 298 l 542 25 l 595 25 b 645 12 622 25 645 19 b 595 0 645 5 622 0 l 521 0 l 397 0 l 347 0 l 347 25 l 397 25 l 397 347 l 273 347 l 124 174 l 50 174 l 25 198 l 25 347 l 50 347 l 50 372 l 149 372 l 149 378 l 0 397 l 0 496 l 149 515 l 149 521 l 50 521 l 50 546 l 25 546 l 25 694 l 50 719 l 124 719 l 273 546 l 397 546 l 397 868 l 347 868 l 347 893 l 397 893 l 521 893 l 595 893 b 645 880 622 893 645 887 b 595 868 645 873 622 868 l 542 868 l 769 595 l 818 595 l 992 546 l 1265 521 b 1488 446 1488 471 1488 446 "},"":{"ha":1290,"x_min":0,"x_max":0,"o":"m 496 496 l 496 794 l 298 794 b 298 595 298 694 298 595 b 397 496 298 540 342 496 b 496 496 457 496 484 496 m 1290 0 l 397 0 l 397 149 l 496 298 b 397 298 488 298 405 298 b 99 595 233 298 99 431 l 99 843 l 50 893 l 74 992 l 446 992 l 471 1091 l 1215 1091 l 1240 942 l 1190 918 l 1190 298 l 1290 149 "},"":{"ha":1190,"x_min":0,"x_max":0,"o":"m 992 149 l 992 843 b 942 893 992 870 970 893 l 843 893 b 794 843 816 893 794 870 l 794 595 l 397 595 l 397 843 b 347 893 397 870 374 893 l 248 893 b 198 843 221 893 198 870 l 198 149 b 248 99 198 122 221 99 l 347 99 b 397 149 374 99 397 122 l 397 397 l 794 397 l 794 149 b 843 99 794 122 816 99 l 942 99 b 992 149 970 99 992 122 m 1190 124 b 967 -99 1190 1 1090 -99 l 223 -99 b 0 124 100 -99 0 1 l 0 868 b 223 1091 0 991 100 1091 l 967 1091 b 1190 868 1090 1091 1190 991 "},"":{"ha":1190,"x_min":0,"x_max":0,"o":"m 992 446 l 992 546 b 942 595 992 573 970 595 l 694 595 l 694 843 b 645 893 694 870 672 893 l 546 893 b 496 843 519 893 496 870 l 496 595 l 248 595 b 198 546 221 595 198 573 l 198 446 b 248 397 198 419 221 397 l 496 397 l 496 149 b 546 99 496 122 519 99 l 645 99 b 694 149 672 99 694 122 l 694 397 l 942 397 b 992 446 970 397 992 419 m 1190 124 b 967 -99 1190 1 1090 -99 l 223 -99 b 0 124 100 -99 0 1 l 0 868 b 223 1091 0 991 100 1091 l 967 1091 b 1190 868 1090 1091 1190 991 "},"":{"ha":794,"x_min":0,"x_max":0,"o":"m 486 124 b 478 106 486 118 483 111 l 439 67 b 422 60 435 63 428 60 b 404 67 415 60 408 63 l 43 429 b 35 446 38 433 35 440 b 43 464 35 453 38 460 l 404 825 b 422 833 408 830 415 833 b 439 825 428 833 435 830 l 478 787 b 486 769 483 782 486 775 b 478 751 486 763 483 756 l 174 446 l 478 142 b 486 124 483 137 486 130 m 784 124 b 776 106 784 118 780 111 l 737 67 b 719 60 732 63 725 60 b 701 67 713 60 706 63 l 340 429 b 332 446 336 433 332 440 b 340 464 332 453 336 460 l 701 825 b 719 833 706 830 713 833 b 737 825 725 833 732 830 l 776 787 b 784 769 780 782 784 775 b 776 751 784 763 780 756 l 471 446 l 776 142 b 784 124 780 137 784 130 "},"":{"ha":794,"x_min":0,"x_max":0,"o":"m 461 446 b 453 429 461 440 458 433 l 92 67 b 74 60 88 63 81 60 b 57 67 68 60 61 63 l 18 106 b 10 124 13 111 10 118 b 18 142 10 130 13 137 l 322 446 l 18 751 b 10 769 13 756 10 763 b 18 787 10 775 13 782 l 57 825 b 74 833 61 830 68 833 b 92 825 81 833 88 830 l 453 464 b 461 446 458 460 461 453 m 759 446 b 751 429 759 440 756 433 l 390 67 b 372 60 385 63 378 60 b 354 67 366 60 359 63 l 315 106 b 308 124 311 111 308 118 b 315 142 308 130 311 137 l 620 446 l 315 751 b 308 769 311 756 308 763 b 315 787 308 775 311 782 l 354 825 b 372 833 359 830 366 833 b 390 825 378 833 385 830 l 751 464 b 759 446 756 460 759 453 "},"":{"ha":893,"x_min":0,"x_max":0,"o":"m 833 174 b 825 156 833 167 830 160 l 787 117 b 769 109 782 112 776 109 b 751 117 763 109 756 112 l 446 422 l 142 117 b 124 109 137 112 130 109 b 106 117 118 109 111 112 l 67 156 b 60 174 63 160 60 167 b 67 191 60 180 63 187 l 429 553 b 446 560 433 557 440 560 b 464 553 453 560 460 557 l 825 191 b 833 174 830 187 833 180 m 833 471 b 825 453 833 465 830 458 l 787 415 b 769 407 782 410 776 407 b 751 415 763 407 756 410 l 446 719 l 142 415 b 124 407 137 410 130 407 b 106 415 118 407 111 410 l 67 453 b 60 471 63 458 60 465 b 67 489 60 477 63 484 l 429 850 b 446 858 433 855 440 858 b 464 850 453 858 460 855 l 825 489 b 833 471 830 484 833 477 "},"":{"ha":893,"x_min":0,"x_max":0,"o":"m 833 521 b 825 503 833 515 830 508 l 464 142 b 446 134 460 137 453 134 b 429 142 440 134 433 137 l 67 503 b 60 521 63 508 60 515 b 67 539 60 527 63 534 l 106 577 b 124 585 111 582 117 585 b 142 577 130 585 137 582 l 446 273 l 751 577 b 769 585 756 582 763 585 b 787 577 775 585 782 582 l 825 539 b 833 521 830 534 833 527 m 833 818 b 825 801 833 812 830 805 l 464 439 b 446 432 460 435 453 432 b 429 439 440 432 433 435 l 67 801 b 60 818 63 805 60 812 b 67 836 60 825 63 832 l 106 875 b 124 883 111 880 117 883 b 142 875 130 883 137 880 l 446 570 l 751 875 b 769 883 756 880 763 883 b 787 875 775 883 782 880 l 825 836 b 833 818 830 832 833 825 "},"":{"ha":496,"x_min":0,"x_max":0,"o":"m 486 769 b 478 751 486 763 483 756 l 174 446 l 478 142 b 486 124 483 137 486 130 b 478 106 486 118 483 111 l 439 67 b 422 60 435 63 428 60 b 404 67 415 60 408 63 l 43 429 b 35 446 38 433 35 440 b 43 464 35 453 38 460 l 404 825 b 422 833 408 830 415 833 b 439 825 428 833 435 830 l 478 787 b 486 769 483 782 486 776 "},"":{"ha":496,"x_min":0,"x_max":0,"o":"m 461 446 b 453 429 461 440 458 433 l 92 67 b 74 60 88 63 81 60 b 57 67 68 60 61 63 l 18 106 b 10 124 13 111 10 117 b 18 142 10 130 13 137 l 322 446 l 18 751 b 10 769 13 756 10 763 b 18 787 10 775 13 782 l 57 825 b 74 833 61 830 68 833 b 92 825 81 833 88 830 l 453 464 b 461 446 458 460 461 453 "},"":{"ha":893,"x_min":0,"x_max":0,"o":"m 833 273 b 825 255 833 267 830 260 l 787 216 b 769 208 782 212 776 208 b 751 216 763 208 756 212 l 446 521 l 142 216 b 124 208 137 212 130 208 b 106 216 118 208 111 212 l 67 255 b 60 273 63 260 60 267 b 67 291 60 279 63 286 l 429 652 b 446 660 433 656 440 660 b 464 652 453 660 460 656 l 825 291 b 833 273 830 286 833 279 "},"":{"ha":893,"x_min":0,"x_max":0,"o":"m 833 620 b 825 602 833 614 830 607 l 464 241 b 446 233 460 236 453 233 b 429 241 440 233 433 236 l 67 602 b 60 620 63 607 60 614 b 67 638 60 626 63 633 l 106 677 b 124 684 111 681 117 684 b 142 677 130 684 137 681 l 446 372 l 751 677 b 769 684 756 681 763 684 b 787 677 775 684 782 681 l 825 638 b 833 620 830 633 833 626 "},"":{"ha":1488,"x_min":0,"x_max":0,"o":"m 1389 422 l 1389 1066 b 1364 1091 1389 1080 1377 1091 l 124 1091 b 99 1066 111 1091 99 1080 l 99 422 b 124 397 99 408 111 397 l 1364 397 b 1389 422 1377 397 1389 408 m 1488 223 b 1364 99 1488 155 1432 99 l 942 99 b 992 -50 942 33 992 -22 b 942 -99 992 -77 970 -99 l 546 -99 b 496 -50 519 -99 496 -77 b 546 99 496 -21 546 32 l 124 99 b 0 223 56 99 0 155 l 0 1066 b 124 1190 0 1135 56 1190 l 1364 1190 b 1488 1066 1432 1190 1488 1135 "},"":{"ha":1488,"x_min":0,"x_max":0,"o":"m 322 198 b 198 322 254 198 198 254 l 198 868 b 322 992 198 936 254 992 l 1166 992 b 1290 868 1234 992 1290 936 l 1290 322 b 1166 198 1290 254 1234 198 l 322 198 m 298 322 b 322 298 298 309 309 298 l 1166 298 b 1190 322 1179 298 1190 309 l 1190 868 b 1166 893 1190 881 1179 893 l 322 893 b 298 868 309 893 298 881 m 1488 149 l 1488 74 b 1364 0 1488 33 1432 0 l 124 0 b 0 74 56 0 0 33 l 0 149 l 124 149 l 1364 149 m 806 74 b 818 87 813 74 818 80 b 806 99 818 94 813 99 l 682 99 b 670 87 675 99 670 94 b 682 74 670 80 675 74 l 806 74 "},"":{"ha":893,"x_min":0,"x_max":0,"o":"m 496 99 b 446 149 496 126 474 149 b 397 99 419 149 397 126 b 446 50 397 72 419 50 b 496 99 474 50 496 72 m 794 223 l 794 967 b 769 992 794 980 782 992 l 124 992 b 99 967 111 992 99 980 l 99 223 b 124 198 99 210 111 198 l 769 198 b 794 223 782 198 794 210 m 893 124 b 769 0 893 56 837 0 l 124 0 b 0 124 56 0 0 56 l 0 967 b 124 1091 0 1035 56 1091 l 769 1091 b 893 967 837 1091 893 1035 "},"":{"ha":595,"x_min":0,"x_max":0,"o":"m 360 99 b 298 161 360 133 332 161 b 236 99 264 161 236 133 b 298 37 236 65 264 37 b 360 99 332 37 360 65 m 521 223 l 521 769 b 496 794 521 782 509 794 l 99 794 b 74 769 86 794 74 782 l 74 223 b 99 198 74 210 86 198 l 496 198 b 521 223 509 198 521 210 m 372 880 b 360 893 372 887 367 893 l 236 893 b 223 880 229 893 223 887 b 236 868 223 873 229 868 l 360 868 b 372 880 367 868 372 873 m 595 99 b 496 0 595 45 550 0 l 99 0 b 0 99 45 0 0 45 l 0 893 b 99 992 0 947 45 992 l 496 992 b 595 893 550 992 595 947 "},"":{"ha":1190,"x_min":0,"x_max":0,"o":"m 595 918 b 174 496 363 918 174 729 b 595 74 174 264 363 74 b 1017 496 828 74 1017 264 b 595 918 1017 729 828 918 m 1190 496 b 595 -99 1190 167 924 -99 b 0 496 267 -99 0 167 b 595 1091 0 825 267 1091 l 595 1091 b 1190 496 924 1091 1190 825 "},"":{"ha":1290,"x_min":0,"x_max":0,"o":"m 595 149 b 446 0 595 67 529 0 l 149 0 b 0 149 67 0 0 67 l 0 694 b 397 1091 0 913 178 1091 l 446 1091 b 496 1042 474 1091 496 1069 l 496 942 b 446 893 496 915 474 893 l 397 893 b 198 694 288 893 198 804 l 198 670 b 273 595 198 629 232 595 l 446 595 b 595 446 529 595 595 529 m 1290 149 b 1141 0 1290 67 1223 0 l 843 0 b 694 149 761 0 694 67 l 694 694 b 1091 1091 694 913 873 1091 l 1141 1091 b 1190 1042 1168 1091 1190 1069 l 1190 942 b 1141 893 1190 915 1168 893 l 1091 893 b 893 694 982 893 893 804 l 893 670 b 967 595 893 629 926 595 l 1141 595 b 1290 446 1223 595 1290 529 "},"":{"ha":1290,"x_min":0,"x_max":0,"o":"m 595 397 b 198 0 595 178 417 0 l 149 0 b 99 50 122 0 99 22 l 99 149 b 149 198 99 176 122 198 l 198 198 b 397 397 308 198 397 288 l 397 422 b 322 496 397 463 363 496 l 149 496 b 0 645 67 496 0 563 l 0 942 b 149 1091 0 1025 67 1091 l 446 1091 b 595 942 529 1091 595 1025 m 1290 397 b 893 0 1290 178 1111 0 l 843 0 b 794 50 816 0 794 22 l 794 149 b 843 198 794 176 816 198 l 893 198 b 1091 397 1002 198 1091 288 l 1091 422 b 1017 496 1091 463 1058 496 l 843 496 b 694 645 761 496 694 563 l 694 942 b 843 1091 694 1025 761 1091 l 1141 1091 b 1290 942 1223 1091 1290 1025 "},"":{"ha":1389,"x_min":0,"x_max":0,"o":"m 408 110 b 308 11 408 56 363 11 b 209 110 254 11 209 56 b 308 209 209 165 254 209 b 408 110 363 209 408 165 m 794 -50 b 694 -149 794 -105 749 -149 b 595 -50 639 -149 595 -105 b 694 50 595 5 639 50 b 794 -50 749 50 794 5 m 248 496 b 149 397 248 441 204 397 b 50 496 94 397 50 441 b 149 595 50 551 94 595 b 248 496 204 595 248 551 m 1180 110 b 1080 11 1180 56 1135 11 b 981 110 1025 11 981 56 b 1080 209 981 165 1025 209 b 1180 110 1135 209 1180 165 m 432 882 b 308 758 432 814 377 758 b 184 882 240 758 184 814 b 308 1006 184 950 240 1006 b 432 882 377 1006 432 950 m 1339 496 b 1240 397 1339 441 1295 397 b 1141 496 1185 397 1141 441 b 1240 595 1141 551 1185 595 b 1339 496 1295 595 1339 551 m 843 1042 b 694 893 843 960 777 893 b 546 1042 612 893 546 960 b 694 1190 546 1124 612 1190 b 843 1042 777 1190 843 1124 m 1254 882 b 1080 708 1254 786 1176 708 b 907 882 984 708 907 786 b 1080 1056 907 977 984 1056 b 1254 882 1176 1056 1254 977 "},"":{"ha":1190,"x_min":0,"x_max":0,"o":"m 1190 496 b 595 -99 1190 167 924 -99 b 0 496 267 -99 0 167 b 595 1091 0 825 267 1091 b 1190 496 924 1091 1190 825 "},"":{"ha":1389,"x_min":0,"x_max":0,"o":"m 1389 322 b 1290 -27 1389 214 1335 72 b 1262 -86 1282 -45 1273 -70 b 1240 -99 1256 -94 1251 -99 b 1215 -72 1225 -99 1215 -87 b 1219 -33 1215 -60 1218 -46 b 1223 62 1221 -2 1223 30 b 670 496 1223 432 1004 496 l 496 496 l 496 298 b 446 248 496 270 474 248 b 412 263 433 248 421 253 l 15 660 b 0 694 5 669 0 681 b 15 729 0 708 5 720 l 412 1126 b 446 1141 421 1135 433 1141 b 496 1091 474 1141 496 1118 l 496 893 l 670 893 b 1348 581 924 893 1240 848 b 1389 322 1380 498 1389 409 "},"":{"ha":1290,"x_min":0,"x_max":0,"o":"m 496 248 b 397 99 496 191 467 99 b 298 248 327 99 298 191 b 397 397 298 305 327 397 b 496 248 467 397 496 305 m 992 248 b 893 99 992 191 963 99 b 794 248 823 99 794 191 b 893 397 794 305 823 397 b 992 248 963 397 992 305 m 1116 248 b 918 471 1116 367 1044 471 b 767 455 867 471 818 462 b 645 446 726 449 686 446 b 523 455 604 446 563 449 b 372 471 473 462 423 471 b 174 248 246 471 174 367 b 580 -26 174 11 391 -26 l 710 -26 b 1116 248 899 -26 1116 11 m 1290 384 b 1242 128 1290 298 1281 207 b 657 -99 1140 -79 859 -99 b 48 128 453 -99 154 -81 b 0 384 9 206 0 298 b 105 691 0 498 31 605 b 84 823 91 734 84 779 b 124 992 84 881 98 939 b 418 866 246 992 325 939 b 657 893 496 884 577 893 b 874 868 730 893 804 885 b 1166 992 966 940 1045 992 b 1205 823 1192 939 1205 881 b 1184 693 1205 779 1198 735 b 1290 384 1259 605 1290 498 "},"":{"ha":1290,"x_min":0,"x_max":0,"o":"m 1190 174 l 1190 719 b 1116 794 1190 760 1157 794 l 570 794 b 496 868 529 794 496 827 l 496 918 b 422 992 496 959 463 992 l 174 992 b 99 918 133 992 99 959 l 99 174 b 174 99 99 133 133 99 l 1116 99 b 1190 174 1157 99 1190 133 m 1290 174 b 1116 0 1290 78 1211 0 l 174 0 b 0 174 78 0 0 78 l 0 918 b 174 1091 0 1013 78 1091 l 422 1091 b 595 918 517 1091 595 1013 l 595 893 l 1116 893 b 1290 719 1211 893 1290 815 "},"":{"ha":1488,"x_min":0,"x_max":0,"o":"m 1380 469 b 1339 496 1380 491 1356 496 l 496 496 b 374 439 455 496 401 470 l 146 157 b 133 126 140 148 133 138 b 174 99 133 105 157 99 l 1017 99 b 1139 157 1058 99 1112 125 l 1366 439 b 1380 469 1373 447 1380 457 m 1091 595 l 1091 719 b 1017 794 1091 760 1058 794 l 570 794 b 496 868 529 794 496 827 l 496 918 b 422 992 496 959 463 992 l 174 992 b 99 918 133 992 99 959 l 99 257 l 298 501 b 496 595 343 556 426 595 m 1480 469 b 1444 376 1480 435 1465 402 l 1215 95 b 1017 0 1171 40 1087 0 l 174 0 b 0 174 78 0 0 78 l 0 918 b 174 1091 0 1013 78 1091 l 422 1091 b 595 918 517 1091 595 1013 l 595 893 l 1017 893 b 1190 719 1112 893 1190 815 l 1190 595 l 1339 595 b 1468 522 1392 595 1445 571 b 1480 469 1476 505 1480 488 "},"":{"ha":1389,"x_min":0,"x_max":0,"o":""},"":{"ha":1389,"x_min":0,"x_max":0,"o":""},"":{"ha":1190,"x_min":0,"x_max":0,"o":"m 879 357 b 595 149 840 233 726 149 b 312 357 464 149 350 233 b 344 419 303 384 318 411 b 406 387 370 428 398 413 b 595 248 432 304 508 248 b 784 387 682 248 759 304 b 847 419 793 413 821 428 b 879 357 873 411 887 384 m 496 694 b 397 595 496 639 452 595 b 298 694 342 595 298 639 b 397 794 298 749 342 794 b 496 694 452 794 496 749 m 893 694 b 794 595 893 639 849 595 b 694 694 739 595 694 639 b 794 794 694 749 739 794 b 893 694 849 794 893 749 m 1091 496 b 595 992 1091 770 869 992 b 99 496 322 992 99 770 b 595 0 99 222 322 0 b 1091 496 869 0 1091 222 m 1190 496 b 595 -99 1190 167 924 -99 b 0 496 267 -99 0 167 b 595 1091 0 825 267 1091 b 1190 496 924 1091 1190 825 "},"":{"ha":1190,"x_min":0,"x_max":0,"o":"m 879 238 b 847 176 887 212 873 184 b 784 208 821 167 793 182 b 595 347 759 291 682 347 b 406 208 508 347 432 291 b 344 176 398 182 370 167 b 312 238 318 184 303 212 b 595 446 350 363 464 446 b 879 238 726 446 840 363 m 496 694 b 397 595 496 639 452 595 b 298 694 342 595 298 639 b 397 794 298 749 342 794 b 496 694 452 794 496 749 m 893 694 b 794 595 893 639 849 595 b 694 694 739 595 694 639 b 794 794 694 749 739 794 b 893 694 849 794 893 749 m 1091 496 b 595 992 1091 770 869 992 b 99 496 322 992 99 770 b 595 0 99 222 322 0 b 1091 496 869 0 1091 222 m 1190 496 b 595 -99 1190 167 924 -99 b 0 496 267 -99 0 167 b 595 1091 0 825 267 1091 b 1190 496 924 1091 1190 825 "},"":{"ha":1190,"x_min":0,"x_max":0,"o":"m 893 347 b 843 298 893 320 870 298 l 347 298 b 298 347 320 298 298 320 b 347 397 298 374 320 397 l 843 397 b 893 347 870 397 893 374 m 496 694 b 397 595 496 639 452 595 b 298 694 342 595 298 639 b 397 794 298 749 342 794 b 496 694 452 794 496 749 m 893 694 b 794 595 893 639 849 595 b 694 694 739 595 694 639 b 794 794 694 749 739 794 b 893 694 849 794 893 749 m 1091 496 b 595 992 1091 770 869 992 b 99 496 322 992 99 770 b 595 0 99 222 322 0 b 1091 496 869 0 1091 222 m 1190 496 b 595 -99 1190 167 924 -99 b 0 496 267 -99 0 167 b 595 1091 0 825 267 1091 b 1190 496 924 1091 1190 825 "},"":{"ha":1488,"x_min":0,"x_max":0,"o":"m 645 347 l 645 446 b 620 471 645 460 634 471 l 471 471 l 471 620 b 446 645 471 634 460 645 l 347 645 b 322 620 333 645 322 634 l 322 471 l 174 471 b 149 446 160 471 149 460 l 149 347 b 174 322 149 333 160 322 l 322 322 l 322 174 b 347 149 322 160 333 149 l 446 149 b 471 174 460 149 471 160 l 471 322 l 620 322 b 645 347 634 322 645 333 m 1091 298 b 992 397 1091 353 1047 397 b 893 298 937 397 893 353 b 992 198 893 243 937 198 b 1091 298 1047 198 1091 243 m 1290 496 b 1190 595 1290 551 1246 595 b 1091 496 1135 595 1091 551 b 1190 397 1091 441 1135 397 b 1290 496 1246 397 1290 441 m 1488 397 b 1091 0 1488 177 1311 0 b 829 99 991 0 899 38 l 659 99 b 397 0 589 38 498 0 b 0 397 177 0 0 177 b 397 794 0 616 177 794 l 1091 794 b 1488 397 1311 794 1488 616 "},"":{"ha":1488,"x_min":0,"x_max":0,"o":"m 298 211 b 285 198 298 204 292 198 l 211 198 b 198 211 204 198 198 204 l 198 285 b 211 298 198 292 204 298 l 285 298 b 298 285 292 298 298 292 m 397 409 b 384 397 397 402 391 397 l 211 397 b 198 409 204 397 198 402 l 198 484 b 211 496 198 491 204 496 l 384 496 b 397 484 391 496 397 491 m 298 608 b 285 595 298 601 292 595 l 211 595 b 198 608 204 595 198 601 l 198 682 b 211 694 198 689 204 694 l 285 694 b 298 682 292 694 298 689 m 1091 211 b 1079 198 1091 204 1086 198 l 409 198 b 397 211 402 198 397 204 l 397 285 b 409 298 397 292 402 298 l 1079 298 b 1091 285 1086 298 1091 292 m 595 409 b 583 397 595 402 590 397 l 508 397 b 496 409 501 397 496 402 l 496 484 b 508 496 496 491 501 496 l 583 496 b 595 484 590 496 595 491 m 496 608 b 484 595 496 601 491 595 l 409 595 b 397 608 402 595 397 601 l 397 682 b 409 694 397 689 402 694 l 484 694 b 496 682 491 694 496 689 m 794 409 b 781 397 794 402 788 397 l 707 397 b 694 409 700 397 694 402 l 694 484 b 707 496 694 491 700 496 l 781 496 b 794 484 788 496 794 491 m 694 608 b 682 595 694 601 689 595 l 608 595 b 595 608 601 595 595 601 l 595 682 b 608 694 595 689 601 694 l 682 694 b 694 682 689 694 694 689 m 992 409 b 980 397 992 402 987 397 l 905 397 b 893 409 898 397 893 402 l 893 484 b 905 496 893 491 898 496 l 980 496 b 992 484 987 496 992 491 m 1290 211 b 1277 198 1290 204 1284 198 l 1203 198 b 1190 211 1196 198 1190 204 l 1190 285 b 1203 298 1190 292 1196 298 l 1277 298 b 1290 285 1284 298 1290 292 m 893 608 b 880 595 893 601 887 595 l 806 595 b 794 608 799 595 794 601 l 794 682 b 806 694 794 689 799 694 l 880 694 b 893 682 887 694 893 689 m 1091 608 b 1079 595 1091 601 1086 595 l 1004 595 b 992 608 997 595 992 601 l 992 682 b 1004 694 992 689 997 694 l 1079 694 b 1091 682 1086 694 1091 689 m 1290 409 b 1277 397 1290 402 1284 397 l 1104 397 b 1091 409 1097 397 1091 402 l 1091 484 b 1104 496 1091 491 1097 496 l 1190 496 l 1190 682 b 1203 694 1190 689 1196 694 l 1277 694 b 1290 682 1284 694 1290 689 m 1389 794 l 99 794 l 99 99 l 1389 99 m 1488 99 b 1389 0 1488 44 1444 0 l 99 0 b 0 99 44 0 0 44 l 0 794 b 99 893 0 849 44 893 l 1389 893 b 1488 794 1444 893 1488 849 "},"":{"ha":1389,"x_min":0,"x_max":0,"o":"m 1290 381 l 1290 858 b 1053 787 1228 825 1141 787 l 1053 787 b 940 812 1011 787 973 795 b 660 893 857 853 767 893 b 347 794 560 893 437 844 l 347 330 b 683 418 450 377 580 418 b 963 337 802 418 880 378 l 984 326 b 1063 309 1006 315 1032 309 b 1290 381 1149 309 1242 355 m 248 992 b 198 907 248 956 228 924 l 198 -74 b 174 -99 198 -88 188 -99 l 124 -99 b 99 -74 110 -99 99 -88 l 99 907 b 50 992 70 924 50 956 b 149 1091 50 1047 94 1091 b 248 992 204 1091 248 1047 m 1389 351 b 1362 307 1389 332 1378 315 b 1349 300 1359 305 1354 303 b 1063 210 1299 274 1182 210 b 940 237 1017 210 976 219 l 918 248 b 683 319 840 288 778 319 b 323 205 571 319 414 260 b 298 198 315 201 306 198 b 273 205 289 198 281 201 b 248 248 257 214 248 230 l 248 823 b 272 866 248 840 257 856 b 660 992 322 895 497 992 b 984 901 789 992 894 945 b 1053 887 1004 891 1027 887 b 1293 973 1144 887 1245 945 b 1317 987 1303 979 1311 984 b 1365 985 1332 994 1350 994 b 1389 942 1380 976 1389 960 "},"":{"ha":1389,"x_min":0,"x_max":0,"o":"m 645 415 l 645 564 b 347 474 550 556 436 518 l 347 330 b 645 415 437 372 549 408 m 645 739 l 645 892 b 347 794 547 887 432 842 l 347 648 b 645 739 439 695 549 736 m 1290 381 l 1290 523 b 992 468 1219 488 1096 436 l 992 642 b 962 653 982 645 972 649 b 683 740 873 698 800 740 b 645 738 670 740 658 739 l 645 566 b 660 566 650 566 655 566 b 962 480 777 566 873 524 b 992 468 972 475 982 471 l 992 322 b 1063 309 1013 314 1036 309 b 1290 381 1149 309 1242 355 m 1290 711 l 1290 858 b 1053 787 1228 825 1141 787 l 1053 787 b 992 794 1032 787 1011 789 l 992 642 b 1290 711 1096 612 1219 672 m 248 992 b 198 907 248 956 228 924 l 198 -74 b 174 -99 198 -88 188 -99 l 124 -99 b 99 -74 110 -99 99 -88 l 99 907 b 50 992 70 924 50 956 b 149 1091 50 1047 94 1091 b 248 992 204 1091 248 1047 m 1389 351 b 1362 307 1389 332 1378 315 b 1349 300 1359 305 1354 303 b 1063 210 1299 274 1182 210 b 940 237 1017 210 976 219 l 918 248 b 683 319 840 288 778 319 b 323 205 571 319 414 260 b 298 198 315 201 306 198 b 273 205 289 198 281 201 b 248 248 257 214 248 230 l 248 823 b 272 866 248 840 257 856 b 660 992 322 895 497 992 b 984 901 789 992 894 945 b 1053 887 1004 891 1027 887 b 1293 973 1144 887 1245 945 b 1317 987 1303 979 1311 984 b 1365 985 1332 994 1350 994 b 1389 942 1380 976 1389 960 "},"":{"ha":1290,"x_min":0,"x_max":0,"o":"m 453 429 l 92 67 b 57 67 82 57 67 57 l 18 106 b 18 142 8 116 8 132 l 322 446 l 18 751 b 18 787 8 761 8 777 l 57 825 b 92 825 67 836 82 836 l 453 464 b 453 429 463 454 463 439 m 1290 25 b 1265 0 1290 11 1279 0 l 521 0 b 496 25 507 0 496 11 l 496 74 b 521 99 496 88 507 99 l 1265 99 b 1290 74 1279 99 1290 88 "},"":{"ha":1488,"x_min":0,"x_max":0,"o":"m 478 106 l 439 67 b 404 67 429 57 414 57 l 43 429 b 43 464 33 439 33 454 l 404 825 b 439 825 414 836 429 836 l 478 787 b 478 751 488 777 488 761 l 174 446 l 478 142 b 478 106 488 132 488 116 m 936 933 l 647 -67 b 617 -84 643 -81 629 -88 l 569 -71 b 552 -40 556 -67 548 -53 l 841 960 b 871 977 845 973 859 981 l 919 964 b 936 933 932 960 940 946 m 1445 429 l 1084 67 b 1049 67 1074 57 1059 57 l 1010 106 b 1010 142 1000 116 1000 132 l 1314 446 l 1010 751 b 1010 787 1000 761 1000 777 l 1049 825 b 1084 825 1059 836 1074 836 l 1445 464 b 1445 429 1456 454 1456 439 "},"":{"ha":1389,"x_min":0,"x_max":0,"o":"m 496 298 b 466 252 496 277 484 260 b 446 248 460 250 453 248 b 412 263 433 248 421 253 l 15 660 b 15 729 -5 679 -5 710 l 412 1126 b 466 1137 426 1141 447 1145 b 496 1091 484 1129 496 1111 l 496 1038 l 188 729 b 188 660 169 710 169 679 l 496 352 m 1389 322 b 1262 -86 1389 161 1267 -76 b 1240 -99 1258 -95 1249 -99 b 1233 -98 1238 -99 1235 -99 b 1215 -72 1221 -95 1215 -84 b 1133 366 1238 140 1211 279 b 794 492 1067 439 960 479 l 794 298 b 763 252 794 277 781 260 b 744 248 757 250 750 248 b 709 263 731 248 718 253 l 312 660 b 312 729 293 679 293 710 l 709 1126 b 763 1137 723 1141 745 1145 b 794 1091 781 1129 794 1111 l 794 888 b 1258 717 1008 873 1160 817 b 1389 322 1375 597 1389 434 "},"":{"ha":1290,"x_min":0,"x_max":0,"o":"m 1118 643 l 842 683 l 791 691 l 768 737 l 645 987 l 645 240 l 691 216 l 937 86 l 891 361 l 881 412 l 919 449 m 1270 652 l 988 377 l 1055 -10 b 1024 -64 1060 -44 1048 -64 b 993 -55 1015 -64 1004 -61 l 645 128 l 297 -55 b 266 -64 285 -61 274 -64 b 235 -10 242 -64 229 -44 l 301 377 l 19 652 b 43 725 -14 685 -3 718 l 432 781 l 607 1134 b 645 1166 617 1155 631 1166 l 645 1166 b 683 1134 659 1166 672 1155 l 857 781 l 1246 725 b 1270 652 1293 718 1304 685 "},"":{"ha":1091,"x_min":0,"x_max":0,"o":"m 1086 920 l 590 -72 b 546 -99 581 -89 564 -99 b 534 -98 542 -99 538 -98 b 496 -50 512 -92 496 -73 l 496 397 l 50 397 b 2 435 26 397 7 412 b 27 491 -4 457 7 481 l 1019 987 b 1042 992 1026 991 1034 992 b 1077 977 1055 992 1067 987 b 1086 920 1092 963 1096 939 "},"":{"ha":1290,"x_min":0,"x_max":0,"o":"m 893 198 l 893 660 l 432 198 m 858 694 l 397 694 l 397 233 m 1290 25 b 1265 0 1290 11 1279 0 l 1091 0 l 1091 -174 b 1066 -198 1091 -188 1080 -198 l 918 -198 b 893 -174 904 -198 893 -188 l 893 0 l 223 0 b 198 25 209 0 198 11 l 198 694 l 25 694 b 0 719 11 694 0 705 l 0 868 b 25 893 0 882 11 893 l 198 893 l 198 1066 b 223 1091 198 1080 209 1091 l 372 1091 b 397 1066 386 1091 397 1080 l 397 893 l 1056 893 l 1247 1084 b 1283 1084 1257 1094 1273 1094 b 1283 1049 1292 1074 1292 1059 l 1091 858 l 1091 198 l 1265 198 b 1290 174 1279 198 1290 188 "},"":{"ha":794,"x_min":0,"x_max":0,"o":"m 223 50 b 149 124 223 91 190 124 b 74 50 108 124 74 91 b 149 -25 74 9 108 -25 b 223 50 190 -25 223 9 m 223 942 b 149 1017 223 984 190 1017 b 74 942 108 1017 74 984 b 149 868 74 901 108 868 b 223 942 190 868 223 901 m 719 843 b 645 918 719 884 686 918 b 570 843 604 918 570 884 b 645 769 570 802 604 769 b 719 843 686 769 719 802 m 794 843 b 719 715 794 788 763 740 b 387 331 717 435 519 373 b 223 198 264 292 223 274 l 223 178 b 298 50 267 153 298 105 b 149 -99 298 -33 231 -99 b 0 50 67 -99 0 -33 b 74 178 0 105 30 153 l 74 814 b 0 942 30 839 0 887 b 149 1091 0 1025 67 1091 b 298 942 231 1091 298 1025 b 223 814 298 887 267 839 l 223 429 b 343 473 263 448 305 461 b 570 715 487 519 569 553 b 496 843 526 740 496 788 b 645 992 496 925 563 992 b 794 843 727 992 794 925 "},"":{"ha":1290,"x_min":0,"x_max":0,"o":"m 340 205 l 142 7 b 124 0 136 2 130 0 b 106 7 118 0 112 2 b 106 43 97 17 97 33 l 305 241 b 340 241 315 250 330 250 b 340 205 350 231 350 215 m 471 -74 b 446 -99 471 -88 460 -99 b 422 -74 432 -99 422 -88 l 422 174 b 446 198 422 188 432 198 b 471 174 460 198 471 188 m 298 347 b 273 322 298 333 287 322 l 25 322 b 0 347 11 322 0 333 b 25 372 0 361 11 372 l 273 372 b 298 347 287 372 298 361 m 1277 248 b 1211 91 1277 188 1254 133 l 1097 -22 b 940 -87 1056 -64 1000 -87 b 782 -21 880 -87 824 -64 l 523 239 b 491 282 510 252 500 267 l 676 296 l 887 84 b 993 83 915 56 965 55 l 1107 196 b 1128 248 1121 210 1128 229 b 1107 301 1128 268 1121 287 l 894 514 l 908 699 b 952 667 924 690 939 680 l 1212 406 b 1277 248 1254 363 1277 308 m 799 809 l 614 795 l 402 1008 b 350 1029 388 1022 370 1029 b 297 1008 329 1029 311 1022 l 183 895 b 161 843 169 881 161 863 b 183 791 161 823 169 805 l 395 578 l 381 392 b 338 425 366 401 351 412 l 78 685 b 12 843 36 728 12 784 b 78 1001 12 903 36 959 l 192 1114 b 350 1178 234 1156 290 1178 b 508 1112 409 1178 466 1155 l 767 853 b 799 809 780 839 790 825 m 1290 744 b 1265 719 1290 730 1279 719 l 1017 719 b 992 744 1003 719 992 730 b 1017 769 992 758 1003 769 l 1265 769 b 1290 744 1279 769 1290 758 m 868 918 b 843 893 868 904 857 893 b 818 918 829 893 818 904 l 818 1166 b 843 1190 818 1180 829 1190 b 868 1166 857 1190 868 1180 m 1184 1049 l 985 850 b 967 843 980 846 973 843 b 949 850 961 843 955 846 b 949 886 940 860 940 876 l 1148 1084 b 1184 1084 1158 1094 1173 1094 b 1184 1049 1193 1074 1193 1059 "},"":{"ha":496,"x_min":0,"x_max":0,"o":"m 496 50 b 446 0 496 22 474 0 l 50 0 b 0 50 22 0 0 22 l 0 149 b 50 198 0 176 22 198 l 99 198 l 99 496 l 50 496 b 0 546 22 496 0 519 l 0 645 b 50 694 0 672 22 694 l 347 694 b 397 645 374 694 397 672 l 397 198 l 446 198 b 496 149 474 198 496 176 m 397 893 b 347 843 397 866 374 843 l 149 843 b 99 893 122 843 99 866 l 99 1042 b 149 1091 99 1069 122 1091 l 347 1091 b 397 1042 374 1091 397 1069 "},"":{"ha":496,"x_min":0,"x_max":0,"o":"m 397 50 b 347 0 397 22 374 0 l 149 0 b 99 50 122 0 99 22 l 99 223 b 149 273 99 250 122 273 l 347 273 b 397 223 374 273 397 250 m 420 1042 l 398 446 b 347 397 398 419 374 397 l 149 397 b 98 446 122 397 98 419 l 76 1042 b 124 1091 75 1069 97 1091 l 372 1091 b 420 1042 399 1091 421 1069 "},"":{"ha":1190,"x_min":0,"x_max":0,"o":"m 695 0 l 503 0 l 380 195 l 361 228 b 353 244 357 233 354 239 l 350 244 b 343 228 349 239 346 233 b 324 194 339 219 332 206 l 204 0 l 4 0 l 4 129 l 103 129 l 256 355 l 112 566 l 6 566 l 6 696 l 220 696 l 328 519 b 346 487 335 508 340 497 b 354 470 350 481 353 476 l 357 470 b 365 487 358 476 361 481 l 384 519 l 493 696 l 692 696 l 692 566 l 595 566 l 453 359 l 611 129 l 695 129 m 1189 496 l 791 496 l 788 517 b 785 553 787 528 785 543 b 1056 894 785 764 1056 782 b 979 962 1056 935 1020 962 b 904 932 949 962 923 948 b 876 902 894 923 884 912 l 794 973 b 843 1025 808 993 824 1009 b 989 1075 876 1050 923 1075 b 1180 906 1101 1075 1180 1009 b 911 594 1180 720 922 705 l 1091 594 l 1091 656 l 1189 656 "},"":{"ha":1190,"x_min":0,"x_max":0,"o":"m 695 0 l 503 0 l 380 195 l 361 228 b 353 244 357 233 354 239 l 350 244 b 343 228 349 239 346 233 b 324 194 339 219 332 206 l 204 0 l 4 0 l 4 129 l 103 129 l 256 355 l 112 566 l 6 566 l 6 696 l 220 696 l 328 519 b 346 487 335 508 340 497 b 354 470 350 481 353 476 l 357 470 b 365 487 358 476 361 481 l 384 519 l 493 696 l 692 696 l 692 566 l 595 566 l 453 359 l 611 129 l 695 129 m 1190 -198 l 792 -198 l 789 -177 b 787 -142 788 -166 787 -152 b 1058 200 787 70 1058 88 b 980 267 1058 240 1022 267 b 905 237 950 267 925 253 b 877 208 895 229 886 218 l 796 279 b 845 330 810 298 825 315 b 991 381 877 357 925 381 b 1181 212 1103 381 1181 315 b 913 -101 1181 26 924 11 l 1093 -101 l 1093 -39 l 1190 -39 "},"":{"ha":1488,"x_min":0,"x_max":0,"o":"m 955 397 l 360 397 l 99 99 l 694 99 m 1480 934 b 1463 828 1495 898 1489 857 l 769 34 b 694 0 750 12 723 0 l 99 0 b 9 58 60 0 25 22 b 25 164 -7 94 -1 135 l 719 958 b 794 992 738 980 765 992 l 1389 992 b 1480 934 1428 992 1463 970 "},"":{"ha":1290,"x_min":0,"x_max":0,"o":"m 1290 339 b 1159 193 1290 260 1244 193 b 955 279 1065 193 1040 279 b 870 183 893 279 870 240 b 894 5 870 122 894 64 l 894 1 b 868 0 885 1 877 1 b 627 -23 788 -8 708 -23 b 515 62 572 -23 515 -2 b 601 267 515 147 601 172 b 454 397 601 351 534 397 b 298 263 373 397 298 352 b 373 68 298 164 373 122 b 337 -1 373 41 356 17 b 246 -28 313 -23 279 -28 b 57 -9 183 -28 119 -19 b 14 -3 43 -7 28 -5 l 4 -2 b 0 0 2 -1 0 -1 l 0 794 b 57 784 3 791 49 786 b 246 766 119 774 183 766 b 337 793 279 766 313 770 b 373 862 356 811 373 835 b 298 1056 373 915 298 958 b 455 1190 298 1146 373 1190 b 601 1060 534 1190 601 1145 b 515 856 601 966 515 941 b 627 770 515 792 572 770 b 893 795 716 770 805 791 l 893 794 b 884 737 891 791 885 745 b 865 547 873 674 865 611 b 892 457 865 515 870 481 b 961 421 910 438 934 421 b 1156 496 1015 421 1057 496 b 1290 339 1245 496 1290 421 "},"":{"ha":893,"x_min":0,"x_max":0,"o":"m 893 546 b 496 102 893 316 719 127 l 496 0 l 694 0 b 744 -50 722 0 744 -22 b 694 -99 744 -77 722 -99 l 198 -99 b 149 -50 171 -99 149 -77 b 198 0 149 -22 171 0 l 397 0 l 397 102 b 0 546 174 127 0 316 l 0 645 b 50 694 0 672 22 694 b 99 645 77 694 99 672 l 99 546 b 446 198 99 354 255 198 b 794 546 638 198 794 354 l 794 645 b 843 694 794 672 816 694 b 893 645 870 694 893 672 m 694 546 b 446 298 694 409 583 298 b 198 546 310 298 198 409 l 198 942 b 446 1190 198 1079 310 1190 b 694 942 583 1190 694 1079 "},"":{"ha":1091,"x_min":0,"x_max":0,"o":"m 210 458 l 132 380 b 99 546 111 431 99 487 l 99 645 b 149 694 99 672 122 694 b 198 645 176 694 198 672 l 198 546 b 210 458 198 515 203 486 m 1073 925 l 794 645 l 794 546 b 546 298 794 409 682 298 b 461 312 516 298 488 303 l 387 238 b 546 198 434 213 488 198 b 893 546 737 198 893 354 l 893 645 b 942 694 893 672 915 694 b 992 645 970 694 992 672 l 992 546 b 595 102 992 316 818 127 l 595 0 l 794 0 b 843 -50 821 0 843 -22 b 794 -99 843 -77 821 -99 l 298 -99 b 248 -50 270 -99 248 -77 b 298 0 248 -22 270 0 l 496 0 l 496 102 b 314 165 430 109 368 132 l 117 -32 b 81 -32 107 -42 91 -42 l 18 32 b 18 67 8 42 8 57 l 974 1024 b 1010 1024 984 1034 1000 1034 l 1073 960 b 1073 925 1084 950 1084 935 m 779 1027 l 298 546 l 298 942 b 546 1190 298 1079 409 1190 b 779 1027 653 1190 744 1121 "},"":{"ha":992,"x_min":0,"x_max":0,"o":"m 843 446 l 843 942 l 496 942 l 496 61 b 661 167 536 82 599 119 b 843 446 744 233 843 334 m 992 446 b 516 -95 992 120 536 -86 b 496 -99 510 -98 503 -99 b 476 -95 489 -99 482 -98 b 0 446 457 -86 0 120 l 0 1042 b 50 1091 0 1069 22 1091 l 942 1091 b 992 1042 970 1091 992 1069 "},"":{"ha":1290,"x_min":0,"x_max":0,"o":"m 1190 -99 l 1190 694 l 99 694 l 99 -99 m 397 843 l 397 1066 b 372 1091 397 1080 386 1091 l 322 1091 b 298 1066 308 1091 298 1080 l 298 843 b 322 818 298 829 308 818 l 372 818 b 397 843 386 818 397 829 m 992 843 l 992 1066 b 967 1091 992 1080 981 1091 l 918 1091 b 893 1066 904 1091 893 1080 l 893 843 b 918 818 893 829 904 818 l 967 818 b 992 843 981 818 992 829 m 1290 -99 b 1190 -198 1290 -153 1245 -198 l 99 -198 b 0 -99 45 -198 0 -153 l 0 893 b 99 992 0 947 45 992 l 198 992 l 198 1066 b 322 1190 198 1135 254 1190 l 372 1190 b 496 1066 440 1190 496 1135 l 496 992 l 794 992 l 794 1066 b 918 1190 794 1135 849 1190 l 967 1190 b 1091 1066 1035 1190 1091 1135 l 1091 992 l 1190 992 b 1290 893 1245 992 1290 947 "},"":{"ha":1091,"x_min":0,"x_max":0,"o":"m 397 1042 b 347 1091 397 1069 374 1091 b 298 1042 320 1091 298 1069 b 347 992 298 1015 320 992 b 397 1042 374 992 397 1015 m 1091 818 b 1082 799 1091 811 1088 804 b 1066 794 1077 795 1072 794 b 1061 794 1065 794 1063 794 l 714 869 b 694 893 703 871 694 881 l 496 893 l 496 814 b 694 570 609 791 694 691 l 694 -50 b 645 -99 694 -77 672 -99 l 248 -99 b 198 -50 221 -99 198 -77 l 198 570 b 372 807 198 681 271 776 l 372 893 l 347 893 b 94 722 183 893 95 723 b 50 694 85 705 67 694 b 27 700 42 694 34 696 b 5 767 3 712 -7 742 b 243 975 9 774 87 925 b 223 1042 231 994 223 1017 b 347 1166 223 1110 279 1166 b 471 1042 415 1166 471 1110 b 460 992 471 1024 467 1008 l 694 992 b 714 1016 694 1004 703 1014 l 1061 1090 b 1066 1091 1063 1091 1065 1091 b 1082 1086 1072 1091 1077 1090 b 1091 1066 1088 1081 1091 1074 "},"":{"ha":1290,"x_min":0,"x_max":0,"o":"m 1116 843 b 1042 918 1116 884 1083 918 b 967 843 1001 918 967 884 b 1042 769 967 802 1001 769 b 1116 843 1083 769 1116 802 m 1290 1066 b 1035 453 1290 809 1218 638 b 884 317 990 409 939 363 l 868 23 b 856 3 867 16 863 8 l 558 -171 b 546 -174 554 -173 550 -174 b 528 -167 539 -174 533 -171 l 478 -117 b 472 -92 472 -110 470 -101 l 538 122 l 320 339 l 106 274 b 99 273 104 273 102 273 b 81 280 93 273 86 275 l 32 329 b 28 360 24 338 22 350 l 202 657 b 222 670 206 664 214 669 l 515 685 b 652 836 562 740 608 791 b 1263 1091 846 1029 994 1091 b 1290 1066 1277 1091 1290 1080 "},"":{"ha":1389,"x_min":0,"x_max":0,"o":"m 1352 591 l 1225 0 l 966 0 l 1104 645 b 1093 713 1111 672 1107 697 b 1028 739 1080 729 1056 739 l 898 739 l 739 0 l 481 0 l 639 739 l 417 739 l 259 0 l 0 0 l 158 739 l 40 992 l 1028 992 b 1290 873 1133 992 1228 949 b 1352 591 1352 797 1374 694 "},"":{"ha":1190,"x_min":0,"x_max":0,"o":"m 784 188 b 784 258 803 208 803 239 l 546 496 l 784 734 b 784 804 803 753 803 784 l 705 883 b 635 883 685 902 654 902 l 283 531 b 283 461 264 512 264 481 l 635 109 b 705 109 654 90 685 90 m 1190 496 b 595 -99 1190 167 924 -99 b 0 496 267 -99 0 167 b 595 1091 0 825 267 1091 b 1190 496 924 1091 1190 825 "},"":{"ha":1190,"x_min":0,"x_max":0,"o":"m 908 461 b 908 531 927 481 927 512 l 556 883 b 486 883 536 902 505 902 l 407 804 b 407 734 388 784 388 753 l 645 496 l 407 258 b 407 188 388 239 388 208 l 486 109 b 556 109 505 90 536 90 m 1190 496 b 595 -99 1190 167 924 -99 b 0 496 267 -99 0 167 b 595 1091 0 825 267 1091 b 1190 496 924 1091 1190 825 "},"":{"ha":1190,"x_min":0,"x_max":0,"o":"m 982 387 b 982 457 1001 406 1001 437 l 630 808 b 560 808 611 828 580 828 l 208 457 b 208 387 189 437 189 406 l 288 308 b 357 308 307 288 338 288 l 595 546 l 833 308 b 903 308 853 288 884 288 m 1190 496 b 595 -99 1190 167 924 -99 b 0 496 267 -99 0 167 b 595 1091 0 825 267 1091 b 1190 496 924 1091 1190 825 "},"":{"ha":1190,"x_min":0,"x_max":0,"o":"m 982 536 b 982 605 1001 555 1001 586 l 903 684 b 833 684 884 704 853 704 l 595 446 l 357 684 b 288 684 338 704 307 704 l 208 605 b 208 536 189 586 189 555 l 560 184 b 630 184 580 164 611 164 m 1190 496 b 595 -99 1190 167 924 -99 b 0 496 267 -99 0 167 b 595 1091 0 825 267 1091 b 1190 496 924 1091 1190 825 "},"":{"ha":1091,"x_min":0,"x_max":0,"o":"m 888 863 l 203 863 l 239 450 l 714 450 l 697 273 l 544 232 l 392 273 l 382 381 l 246 381 l 264 166 l 544 88 l 547 88 l 547 89 l 825 166 l 864 587 l 365 587 l 353 728 l 876 728 m 1091 1091 l 992 -23 l 544 -149 l 99 -23 l 0 1091 "},"":{"ha":1389,"x_min":0,"x_max":0,"o":"m 1380 1091 l 1173 58 l 550 -149 l 9 58 l 64 334 l 295 334 l 272 220 l 599 95 l 976 220 l 1028 483 l 92 483 l 137 713 l 1074 713 l 1104 861 l 167 861 l 213 1091 "},"":{"ha":1389,"x_min":0,"x_max":0,"o":"m 744 992 b 694 1042 744 1019 722 1042 b 645 992 667 1042 645 1019 b 694 942 645 965 667 942 b 744 992 722 942 744 965 m 1389 0 b 1373 -23 1389 -10 1383 -19 b 1364 -25 1370 -24 1367 -25 b 1346 -18 1358 -25 1352 -22 l 1274 54 b 694 -186 1152 -92 934 -186 b 115 54 455 -186 236 -92 l 43 -18 b 25 -25 38 -22 31 -25 b 16 -23 22 -25 19 -24 b 0 0 6 -19 0 -10 l 0 273 b 25 298 0 287 11 298 l 298 298 b 321 282 308 298 317 291 b 315 255 325 273 322 263 l 238 177 b 595 -5 308 84 442 16 l 595 496 l 446 496 b 397 546 419 496 397 519 l 397 645 b 446 694 397 672 419 694 l 595 694 l 595 821 b 496 992 536 855 496 918 b 694 1190 496 1101 585 1190 b 893 992 804 1190 893 1101 b 794 821 893 918 853 855 l 794 694 l 942 694 b 992 645 970 694 992 672 l 992 546 b 942 496 992 519 970 496 l 794 496 l 794 -5 b 1151 177 947 16 1081 84 l 1073 255 b 1068 282 1066 263 1064 273 b 1091 298 1072 291 1081 298 l 1364 298 b 1389 273 1378 298 1389 287 "},"":{"ha":893,"x_min":0,"x_max":0,"o":"m 818 595 b 893 521 860 595 893 562 l 893 74 b 818 0 893 33 860 0 l 74 0 b 0 74 33 0 0 33 l 0 521 b 74 595 0 562 33 595 l 99 595 l 99 843 b 446 1190 99 1035 255 1190 b 794 843 638 1190 794 1035 b 744 794 794 816 771 794 l 694 794 b 645 843 667 794 645 816 b 446 1042 645 953 556 1042 b 248 843 337 1042 248 953 l 248 595 l 818 595 "},"":{"ha":1190,"x_min":0,"x_max":0,"o":"m 794 496 b 595 298 794 387 705 298 b 397 496 486 298 397 387 b 595 694 397 605 486 694 b 794 496 705 694 794 605 m 893 496 b 595 794 893 660 760 794 b 298 496 431 794 298 660 b 595 198 298 332 431 198 b 893 496 760 198 893 332 m 992 496 b 595 99 992 277 815 99 b 198 496 376 99 198 277 b 595 893 198 715 376 893 b 992 496 815 893 992 715 m 1091 496 b 595 992 1091 770 869 992 b 99 496 322 992 99 770 b 595 0 99 222 322 0 b 1091 496 869 0 1091 222 m 1190 496 b 595 -99 1190 167 924 -99 b 0 496 267 -99 0 167 b 595 1091 0 825 267 1091 b 1190 496 924 1091 1190 825 "},"":{"ha":1091,"x_min":0,"x_max":0,"o":"m 298 471 b 223 397 298 430 264 397 l 74 397 b 0 471 33 397 0 430 l 0 620 b 74 694 0 661 33 694 l 223 694 b 298 620 264 694 298 661 m 694 471 b 620 397 694 430 661 397 l 471 397 b 397 471 430 397 397 430 l 397 620 b 471 694 397 661 430 694 l 620 694 b 694 620 661 694 694 661 m 1091 471 b 1017 397 1091 430 1058 397 l 868 397 b 794 471 827 397 794 430 l 794 620 b 868 694 794 661 827 694 l 1017 694 b 1091 620 1058 694 1091 661 "},"":{"ha":298,"x_min":0,"x_max":0,"o":"m 298 74 b 223 0 298 33 264 0 l 74 0 b 0 74 33 0 0 33 l 0 223 b 74 298 0 264 33 298 l 223 298 b 298 223 264 298 298 264 m 298 471 b 223 397 298 430 264 397 l 74 397 b 0 471 33 397 0 430 l 0 620 b 74 694 0 661 33 694 l 223 694 b 298 620 264 694 298 661 m 298 868 b 223 794 298 827 264 794 l 74 794 b 0 868 33 794 0 827 l 0 1017 b 74 1091 0 1058 33 1091 l 223 1091 b 298 1017 264 1091 298 1058 "},"":{"ha":1190,"x_min":0,"x_max":0,"o":"m 397 198 b 298 298 397 253 353 298 b 198 198 243 298 198 253 b 298 99 198 143 243 99 b 397 198 353 99 397 143 m 669 126 b 225 570 656 366 465 556 b 206 563 218 570 211 567 b 198 545 202 558 198 552 l 198 446 b 222 421 198 432 208 422 b 520 122 381 409 508 281 b 545 99 521 109 532 99 l 644 99 b 662 107 651 99 657 102 b 669 126 667 112 670 119 m 966 125 b 224 867 953 528 627 854 b 206 860 216 868 211 866 b 198 842 202 856 198 849 l 198 743 b 222 718 198 730 209 719 b 818 123 544 707 806 445 b 842 99 818 110 829 99 l 942 99 b 960 107 949 99 955 102 b 966 125 965 112 967 118 m 1190 124 b 967 -99 1190 1 1090 -99 l 223 -99 b 0 124 100 -99 0 1 l 0 868 b 223 1091 0 991 100 1091 l 967 1091 b 1190 868 1090 1091 1190 991 "},"":{"ha":1190,"x_min":0,"x_max":0,"o":"m 595 1091 b 1190 496 924 1091 1190 825 b 595 -99 1190 167 924 -99 b 0 496 267 -99 0 167 b 595 1091 0 825 267 1091 m 893 453 b 918 496 908 462 918 478 b 893 539 918 514 908 530 l 471 787 b 422 787 457 796 437 796 b 397 744 406 778 397 762 l 397 248 b 422 205 397 230 406 214 b 446 198 429 201 438 198 b 471 205 455 198 463 201 l 893 453 "},"":{"ha":1389,"x_min":0,"x_max":0,"o":"m 1039 595 l 595 152 l 350 397 l 794 840 m 1109 560 b 1109 630 1128 580 1128 611 l 829 911 b 759 911 810 929 777 929 l 280 432 b 280 362 260 412 260 381 l 560 81 b 595 67 570 72 582 67 b 630 81 608 67 621 72 m 1319 575 l 616 -129 b 476 -129 577 -167 514 -167 l 378 -31 b 378 180 436 27 436 122 b 167 180 320 238 226 238 l 71 277 b 71 418 32 315 32 379 l 773 1120 b 914 1120 811 1159 875 1159 l 1011 1023 b 1011 812 953 965 953 870 b 1221 812 1069 754 1163 754 l 1319 715 b 1319 575 1357 677 1357 613 "},"":{"ha":1190,"x_min":0,"x_max":0,"o":"m 992 446 l 992 546 b 942 595 992 573 970 595 l 248 595 b 198 546 221 595 198 573 l 198 446 b 248 397 198 419 221 397 l 942 397 b 992 446 970 397 992 419 m 1190 124 b 967 -99 1190 1 1090 -99 l 223 -99 b 0 124 100 -99 0 1 l 0 868 b 223 1091 0 991 100 1091 l 967 1091 b 1190 868 1090 1091 1190 991 "},"":{"ha":1091,"x_min":0,"x_max":0,"o":"m 893 521 b 868 496 893 507 882 496 l 223 496 b 198 521 209 496 198 507 l 198 570 b 223 595 198 584 209 595 l 868 595 b 893 570 882 595 893 584 m 992 223 l 992 868 b 868 992 992 936 936 992 l 223 992 b 99 868 155 992 99 936 l 99 223 b 223 99 99 155 155 99 l 868 99 b 992 223 936 99 992 155 m 1091 223 b 868 0 1091 100 991 0 l 223 0 b 0 223 100 0 0 100 l 0 868 b 223 1091 0 991 100 1091 l 868 1091 b 1091 868 991 1091 1091 991 "},"":{"ha":794,"x_min":0,"x_max":0,"o":"m 789 723 b 744 694 780 705 763 694 l 595 694 l 595 25 b 570 0 595 11 584 0 l 25 0 b 2 14 16 0 6 5 b 5 41 -2 23 -1 33 l 129 190 b 149 198 134 195 142 198 l 397 198 l 397 694 l 248 694 b 203 723 229 694 212 705 b 210 776 195 740 198 761 l 458 1073 b 534 1073 477 1096 515 1096 l 782 776 b 789 723 794 761 798 740 "},"":{"ha":794,"x_min":0,"x_max":0,"o":"m 570 992 b 595 966 584 992 595 980 l 595 298 l 744 298 b 789 269 763 298 780 286 b 782 215 798 251 794 230 l 534 -82 b 458 -82 515 -105 477 -105 l 210 215 b 203 269 198 230 195 251 b 248 298 212 286 229 298 l 397 298 l 397 794 l 149 794 b 129 802 142 794 135 797 l 5 951 b 2 977 -1 958 -2 969 b 25 992 6 986 16 992 "},"":{"ha":1190,"x_min":0,"x_max":0,"o":"m 1007 660 b 1007 729 1026 679 1026 710 l 928 808 b 858 808 908 828 877 828 l 496 446 l 332 610 b 263 610 313 629 282 629 l 184 531 b 184 461 164 512 164 481 l 461 184 b 531 184 481 164 512 164 m 1190 124 b 967 -99 1190 1 1090 -99 l 223 -99 b 0 124 100 -99 0 1 l 0 868 b 223 1091 0 991 100 1091 l 967 1091 b 1190 868 1090 1091 1190 991 "},"":{"ha":1190,"x_min":0,"x_max":0,"o":"m 431 214 l 391 174 l 347 174 l 347 248 l 273 248 l 273 291 l 313 332 m 634 634 b 632 611 640 629 639 618 l 406 385 b 383 383 399 378 388 377 b 385 406 377 388 378 399 l 611 632 b 634 634 618 639 629 640 m 843 521 l 620 744 l 198 322 l 198 99 l 422 99 m 964 642 b 964 747 993 670 993 718 l 846 865 b 741 865 818 894 770 894 l 670 794 l 893 570 m 1190 124 b 967 -99 1190 1 1090 -99 l 223 -99 b 0 124 100 -99 0 1 l 0 868 b 223 1091 0 991 100 1091 l 967 1091 b 1190 868 1090 1091 1190 991 "}}}
